SplineFontDB: 3.0
FontName: Garuda-Bold
FullName: Garuda Bold
FamilyName: Garuda
Weight: Bold
Copyright: Generated by NECTEC for Public Domain\n\nModified under GNU General Public License by TLWG
Version: 004.000
ItalicAngle: 0
UnderlinePosition: -27
UnderlineWidth: 20
Ascent: 872
Descent: 128
InvalidEm: 0
LayerCount: 3
Layer: 0 0 "Back" 1
Layer: 1 0 "Fore" 0
Layer: 2 1 "Quad" 0
FSType: 0
OS2Version: 4
OS2_WeightWidthSlopeOnly: 0
OS2_UseTypoMetrics: 0
CreationTime: 1153661448
ModificationTime: 1539666614
PfmFamily: 33
TTFWeight: 700
TTFWidth: 5
LineGap: 0
VLineGap: 0
Panose: 2 11 7 4 2 2 2 2 2 4
OS2TypoAscent: 0
OS2TypoAOffset: 1
OS2TypoDescent: 0
OS2TypoDOffset: 1
OS2TypoLinegap: 0
OS2WinAscent: 1284
OS2WinAOffset: 0
OS2WinDescent: 591
OS2WinDOffset: 0
HheadAscent: 1284
HheadAOffset: 0
HheadDescent: -591
HheadDOffset: 0
OS2Vendor: 'PfEd'
Lookup: 6 0 0 "'ccmp' Thai Tone Tilde Reordering" { "'ccmp' Thai Tone Tilde Reordering"  } ['ccmp' ('DFLT' <'dflt' > 'latn' <'dflt' > 'thai' <'KUY ' 'MLY ' 'PAL ' 'SAN ' 'THA ' 'dflt' > ) ]
Lookup: 6 0 0 "'ccmp' Thai Tone Macron Reordering" { "'ccmp' Thai Tone Macron Reordering"  } ['ccmp' ('DFLT' <'dflt' > 'latn' <'dflt' > 'thai' <'KUY ' 'MLY ' 'PAL ' 'SAN ' 'THA ' 'dflt' > ) ]
Lookup: 6 0 0 "'ccmp' Thai Below Vowel Macron Reordering" { "'ccmp' Thai Below Vowel Macron Reordering"  } ['ccmp' ('DFLT' <'dflt' > 'latn' <'dflt' > 'thai' <'KUY ' 'MLY ' 'PAL ' 'SAN ' 'THA ' 'dflt' > ) ]
Lookup: 4 0 0 "'ccmp' Patani Malay Ligatures" { "'ccmp' Patani Malay Ligatures"  } ['ccmp' ('DFLT' <'dflt' > 'thai' <'KUY ' 'MLY ' 'PAL ' 'SAN ' 'THA ' 'dflt' > ) ]
Lookup: 6 0 0 "'ccmp' Thai Conditional Descender Removal" { "'ccmp' Thai Conditional Descender Removal"  } ['ccmp' ('DFLT' <'dflt' > 'thai' <'KUY ' 'MLY ' 'THA ' 'dflt' > ) ]
Lookup: 1 0 0 "'ccmp' Pali-Sanskrit Descender Removal" { "'ccmp' Pali-Sanskrit Descender Removal" ("descless") } ['ccmp' ('thai' <'PAL ' 'SAN ' > ) ]

StartChar: .notdef
Encoding: 65536 -1 0
Width: 766
VWidth: 2048
Flags: W
HStem: 0 95<192 575> 1242 95<192 575>
VStem: 95 97<95 1242> 575 96<95 1242>
LayerCount: 3
Fore
SplineSet
95 0 m 1
 95 1337 l 1
 671 1337 l 1
 671 0 l 1
 95 0 l 1
192 95 m 1
 575 95 l 1
 575 1242 l 1
 192 1242 l 1
 192 95 l 1
EndSplineSet
Validated: 1
Layer: 2
SplineSet
95 0 m 1,0,-1
 95 1337 l 1,1,-1
 671 1337 l 1,2,-1
 671 0 l 1,3,-1
 95 0 l 1,0,-1
192 95 m 1,4,-1
 575 95 l 1,5,-1
 575 1242 l 1,6,-1
 192 1242 l 1,7,-1
 192 95 l 1,4,-1
EndSplineSet
EndChar

StartChar: exclam
Encoding: 33 33 2
Width: 308
Flags: W
HStem: 2 145<112.38 209.167> 680 20G<102 220>
VStem: 94 133<19.5198 129.864> 102 118<212 700>
LayerCount: 3
Back
SplineSet
221 212 m 1
 98 212 l 5
 98 697 l 5
 221 697 l 1
 221 212 l 1
227 75 m 0
 227 41 207 2 161 2 c 0
 115 2 94 41 94 75 c 0
 94 109 115 147 161 147 c 0
 207 147 227 109 227 75 c 0
EndSplineSet
Fore
SplineSet
220 212 m 1xd0
 102 212 l 1
 102 700 l 1
 220 700 l 1
 220 212 l 1xd0
227 75 m 0xe0
 227 41 207 2 161 2 c 0
 115 2 94 41 94 75 c 0
 94 109 115 147 161 147 c 0
 207 147 227 109 227 75 c 0xe0
EndSplineSet
Validated: 1
Layer: 2
SplineSet
220 212 m 1,0,-1
 102 212 l 1,1,-1
 102 700 l 1,2,-1
 220 700 l 1,3,-1
 220 212 l 1,0,-1
227 75 m 128,-1,5
 227 46 227 46 210 24 c 128,-1,6
 193 2 193 2 161 2 c 256,7,8
 129 2 129 2 111.5 24 c 128,-1,9
 94 46 94 46 94 75 c 0,10,11
 94 103 94 103 111.5 125 c 128,-1,12
 129 147 129 147 161 147 c 256,13,14
 193 147 193 147 210 125.5 c 128,-1,4
 227 104 227 104 227 75 c 128,-1,5
EndSplineSet
EndChar

StartChar: quotedbl
Encoding: 34 34 3
Width: 458
Flags: W
HStem: 455 242<98 124 334 360>
VStem: 61 101<555.342 697> 296 101<555.342 697>
LayerCount: 3
Back
SplineSet
360 455 m 1
 334 455 l 1
 296 578 l 1
 296 697 l 1
 397 697 l 1
 397 578 l 1
 360 455 l 1
124 455 m 1
 98 455 l 1
 61 578 l 1
 61 697 l 1
 162 697 l 1
 162 578 l 1
 124 455 l 1
EndSplineSet
Fore
SplineSet
360 455 m 1
 334 455 l 1
 296 578 l 1
 296 697 l 1
 397 697 l 1
 397 578 l 1
 360 455 l 1
124 455 m 1
 98 455 l 1
 61 578 l 1
 61 697 l 1
 162 697 l 1
 162 578 l 1
 124 455 l 1
EndSplineSet
Validated: 1
Layer: 2
SplineSet
360 455 m 1,0,-1
 334 455 l 1,1,-1
 296 578 l 1,2,-1
 296 697 l 1,3,-1
 397 697 l 1,4,-1
 397 578 l 1,5,-1
 360 455 l 1,0,-1
124 455 m 1,6,-1
 98 455 l 1,7,-1
 61 578 l 1,8,-1
 61 697 l 1,9,-1
 162 697 l 1,10,-1
 162 578 l 1,11,-1
 124 455 l 1,6,-1
EndSplineSet
EndChar

StartChar: numbersign
Encoding: 35 35 4
Width: 597
Flags: W
HStem: 0 21G<86 188.096 290 390.337> 166 99<31 120 238 325 441 540> 412 103<72 166 282 374 484 567> 680 20G<212.324 316 421.892 521>
DStem2: 86 0 184 0 0.185306 0.982681<18.1599 169.425 288.577 419.689 542.401 711.966> 290 0 386 0 0.19072 0.981645<18.3091 169.628 288.934 420.458 542.547 713.089>
LayerCount: 3
Fore
SplineSet
441 265 m 1
 540 265 l 1
 540 166 l 1
 422 166 l 1
 386 0 l 1
 290 0 l 1
 325 166 l 1
 218 166 l 1
 184 0 l 1
 86 0 l 1
 120 166 l 1
 31 166 l 1
 31 265 l 1
 139 265 l 1
 166 412 l 1
 72 412 l 1
 72 515 l 1
 182 515 l 1
 216 700 l 1
 316 700 l 1
 282 515 l 1
 388 515 l 1
 426 700 l 1
 521 700 l 1
 484 515 l 1
 567 515 l 1
 567 412 l 1
 469 412 l 1
 441 265 l 1
238 265 m 1
 343 265 l 1
 374 412 l 1
 264 412 l 1
 238 265 l 1
EndSplineSet
Validated: 1
Layer: 2
SplineSet
441 265 m 1,0,-1
 540 265 l 1,1,-1
 540 166 l 1,2,-1
 422 166 l 1,3,-1
 386 0 l 1,4,-1
 290 0 l 1,5,-1
 325 166 l 1,6,-1
 218 166 l 1,7,-1
 184 0 l 1,8,-1
 86 0 l 1,9,-1
 120 166 l 1,10,-1
 31 166 l 1,11,-1
 31 265 l 1,12,-1
 139 265 l 1,13,-1
 166 412 l 1,14,-1
 72 412 l 1,15,-1
 72 515 l 1,16,-1
 182 515 l 1,17,-1
 216 700 l 1,18,-1
 316 700 l 1,19,-1
 282 515 l 1,20,-1
 388 515 l 1,21,-1
 426 700 l 1,22,-1
 521 700 l 1,23,-1
 484 515 l 1,24,-1
 567 515 l 1,25,-1
 567 412 l 1,26,-1
 469 412 l 1,27,-1
 441 265 l 1,0,-1
238 265 m 1,28,-1
 343 265 l 1,29,-1
 374 412 l 1,30,-1
 264 412 l 1,31,-1
 238 265 l 1,28,-1
EndSplineSet
EndChar

StartChar: dollar
Encoding: 36 36 5
Width: 574
Flags: W
HStem: 535 101<224.016 264 359 386.153> 680 20G<264 359>
VStem: 92 110<129.406 210 421.675 514.794> 264 95<-75 2 106 264 400 532 636 700> 406 112<434 516.315> 414 114<122.977 239.666>
LayerCount: 3
Fore
SplineSet
92 457 m 0xf4
 92 567 178 636 264 636 c 1
 264 700 l 1
 359 700 l 1
 359 636 l 1
 443 625 518 560 518 474 c 0
 518 453 515 434 497 434 c 2
 426 434 l 2
 423 434 408 435 406 454 c 1xf8
 406 489 395 521 359 532 c 1
 359 377 l 1
 429 353 528 310 528 185 c 0
 528 65 433 2 359 2 c 1
 359 -75 l 1
 264 -75 l 1
 264 2 l 1
 133 2 93 123 93 183 c 0
 93 196 98 210 113 210 c 2
 182 210 l 2
 201 210 204 187 204 184 c 0
 204 146 216 120 264 106 c 1
 264 285 l 1
 230 291 166 310 123 357 c 0
 104 378 92 416 92 457 c 0xf4
265 400 m 1
 265 535 l 1
 236 530 202 509 202 461 c 0
 202 429 246 403 265 400 c 1
359 264 m 1
 359 104 l 1
 385 110 414 132 414 186 c 0xf4
 414 230 386 252 359 264 c 1
EndSplineSet
Validated: 1
Layer: 2
SplineSet
92 457 m 0,0,1
 92 536 92 536 144 586 c 128,-1,2
 196 636 196 636 264 636 c 1,3,-1
 264 700 l 1,4,-1
 359 700 l 1,5,-1
 359 636 l 1,6,7
 424 627 424 627 471 582 c 128,-1,8
 518 537 518 537 518 474 c 0,9,10
 518 434 518 434 497 434 c 2,11,-1
 426 434 l 2,12,13
 408 434 408 434 406 454 c 0,14,15
 406 518 406 518 359 532 c 1,16,-1
 359 377 l 1,17,18
 392 366 392 366 416 354 c 128,-1,19
 440 342 440 342 468.5 320 c 128,-1,20
 497 298 497 298 512.5 263.5 c 128,-1,21
 528 229 528 229 528 185 c 0,22,23
 528 101 528 101 474.5 51.5 c 128,-1,24
 421 2 421 2 359 2 c 1,25,-1
 359 -75 l 1,26,-1
 264 -75 l 1,27,-1
 264 2 l 1,28,29
 218 2 218 2 182.5 21.5 c 128,-1,30
 147 41 147 41 129 70.5 c 128,-1,31
 111 100 111 100 102 129 c 128,-1,32
 93 158 93 158 93 183 c 0,33,34
 93 210 93 210 113 210 c 2,35,-1
 182 210 l 2,36,37
 191 210 191 210 196 203.5 c 128,-1,38
 201 197 201 197 202.5 192 c 128,-1,39
 204 187 204 187 204 184 c 0,40,41
 204 153 204 153 217 134.5 c 128,-1,42
 230 116 230 116 264 106 c 1,43,-1
 264 285 l 1,44,45
 174 301 174 301 123 357 c 0,46,47
 92 391 92 391 92 457 c 0,0,1
265 400 m 1,48,-1
 265 535 l 1,49,50
 239 531 239 531 220.5 512.5 c 128,-1,51
 202 494 202 494 202 461 c 0,52,53
 202 439 202 439 224.5 421 c 128,-1,54
 247 403 247 403 265 400 c 1,48,-1
359 264 m 1,55,-1
 359 104 l 1,56,57
 414 117 414 117 414 186 c 0,58,59
 414 240 414 240 359 264 c 1,55,-1
EndSplineSet
EndChar

StartChar: percent
Encoding: 37 37 6
Width: 697
Flags: W
HStem: -8 61<510.005 578.859> 0 21G<95 226.686> 308 61<509.416 578.25> 322 61<146.021 214.865> 638 61<145.422 215.295>
VStem: 41 86<402.014 619.941> 233 86<400.869 620.456> 406 86<72.2455 290.852> 598 86<72.1825 288.361>
DStem2: 95 0 215 0 0.507235 0.861808<60.8682 812.246>
LayerCount: 3
Back
SplineSet
41 510 m 0x1f80
 41 607 81 699 178 699 c 0
 276 699 317 607 317 510 c 0
 317 415 277 322 178 322 c 0
 81 322 41 417 41 510 c 0x1f80
231 507 m 0
 231 565 234 642 178 642 c 0
 123 642 126 549 126 510 c 0
 126 477 124 383 178 383 c 0
 235 383 231 469 231 507 c 0
406 182 m 0
 406 276 446 369 544 369 c 0
 642 369 684 279 684 182 c 0
 684 86 642 -8 544 -8 c 0xaf80
 446 -8 406 87 406 182 c 0
544 311 m 0
 489 311 492 219 492 182 c 0
 492 147 490 54 544 54 c 0
 599 54 598 139 598 176 c 0
 598 215 602 311 544 311 c 0
507 700 m 1
 624 700 l 1
 215 0 l 1
 95 0 l 1x4f80
 507 700 l 1
EndSplineSet
Fore
SplineSet
41 510 m 0x1f80
 41 607 83 699 180 699 c 0
 278 699 319 607 319 510 c 0
 319 415 279 322 180 322 c 0
 83 322 41 417 41 510 c 0x1f80
233 507 m 0
 233 565 232 638 180 638 c 0
 128 638 127 549 127 510 c 0
 127 477 128 383 180 383 c 0
 232 383 233 469 233 507 c 0
406 182 m 0
 406 276 446 369 544 369 c 0
 642 369 684 279 684 182 c 0
 684 86 642 -8 544 -8 c 0xaf80
 446 -8 406 87 406 182 c 0
544 308 m 0
 492 308 492 219 492 182 c 0
 492 147 492 53 544 53 c 0
 596 53 598 139 598 176 c 0
 598 215 596 308 544 308 c 0
507 700 m 1
 624 700 l 1
 215 0 l 1
 95 0 l 1x4f80
 507 700 l 1
EndSplineSet
Validated: 1
Layer: 2
SplineSet
41 510 m 0,0,1
 41 589 41 589 76.5 644 c 128,-1,2
 112 699 112 699 180 699 c 0,3,4
 249 699 249 699 284 644.5 c 128,-1,5
 319 590 319 590 319 510 c 0,6,7
 319 431 319 431 284 376.5 c 128,-1,8
 249 322 249 322 180 322 c 0,9,10
 112 322 112 322 76.5 377.5 c 128,-1,11
 41 433 41 433 41 510 c 0,0,1
233 507 m 0,12,13
 233 536 233 536 232 553 c 128,-1,14
 231 570 231 570 226.5 593 c 128,-1,15
 222 616 222 616 210 627 c 128,-1,16
 198 638 198 638 180 638 c 0,17,18
 127 638 127 638 127 510 c 0,19,20
 127 383 127 383 180 383 c 256,21,22
 233 383 233 383 233 507 c 0,12,13
406 182 m 0,23,24
 406 260 406 260 440.5 314.5 c 128,-1,25
 475 369 475 369 544 369 c 256,26,27
 613 369 613 369 648.5 315 c 128,-1,28
 684 261 684 261 684 182 c 256,29,30
 684 103 684 103 648.5 47.5 c 128,-1,31
 613 -8 613 -8 544 -8 c 256,32,33
 475 -8 475 -8 440.5 47.5 c 128,-1,34
 406 103 406 103 406 182 c 0,23,24
544 308 m 0,35,36
 492 308 492 308 492 182 c 0,37,38
 492 53 492 53 544 53 c 0,39,40
 598 53 598 53 598 176 c 0,41,42
 598 308 598 308 544 308 c 0,35,36
507 700 m 1,43,-1
 624 700 l 1,44,-1
 215 0 l 1,45,-1
 95 0 l 1,46,-1
 507 700 l 1,43,-1
EndSplineSet
EndChar

StartChar: ampersand
Encoding: 38 38 7
Width: 717
Flags: W
HStem: -5 100<215.605 382.325 601.496 683.596> 616 100<272.895 381.32>
VStem: 31 118<157.912 278.59> 134 118<491.888 594.161> 410 118<488.213 585.399> 573 106<319.116 374.991>
DStem2: 371 372 270 326 0.668396 -0.743805<0 188.124>
LayerCount: 3
Back
SplineSet
212 394 m 1xb6
 174 443 136 492 136 552 c 0
 136 659 228 707 328 707 c 0
 432 707 512 651 512 540 c 0
 512 460 466 412 371 372 c 1
 500 235 l 1
 544 288 563 342 573 389 c 1
 679 374 l 1
 661 299 622 228 566 155 c 1
 599 117 614 100 661 100 c 0
 668 100 684 101 684 101 c 1
 684 8 l 1
 667 3 651 0 635 0 c 0x6e
 576 0 535 18 489 81 c 1
 412 14 353 -8 271 -8 c 0
 213 -8 153 3 107 38 c 0
 60 75 31 152 31 219 c 0
 31 314 101 351 212 394 c 1xb6
331 635 m 0
 296 635 250 612 250 556 c 0
 250 500 303 466 330 429 c 1
 377 449 426 478 426 540 c 0
 426 601 380 635 331 635 c 0
162 226 m 0xb6
 162 153 217 87 291 87 c 0
 336 87 380 107 431 149 c 1
 270 326 l 1
 204 315 162 279 162 226 c 0xb6
EndSplineSet
Fore
SplineSet
200 409 m 1xec
 174 444 134 492 134 552 c 0xdc
 134 659 228 716 328 716 c 0
 432 716 528 651 528 540 c 0
 528 460 466 412 371 372 c 1
 500 235 l 1
 544 288 563 342 573 389 c 1
 679 374 l 1
 661 299 622 228 566 155 c 1
 599 117 614 95 661 95 c 0
 668 95 684 96 684 96 c 1
 684 3 l 1
 667 -2 651 -5 635 -5 c 0
 576 -5 535 18 489 81 c 1
 412 14 353 -5 271 -5 c 0
 132 -5 31 62 31 219 c 0
 31 314 89 366 200 409 c 1xec
331 616 m 0
 296 616 252 593 252 547 c 0
 252 501 299 467 318 444 c 1
 365 464 410 493 410 531 c 0
 410 582 366 616 331 616 c 0
149 226 m 0xec
 149 153 217 95 291 95 c 0
 336 95 380 107 431 149 c 1
 270 326 l 1
 204 315 149 279 149 226 c 0xec
EndSplineSet
Validated: 1
Layer: 2
SplineSet
200 409 m 1,0,1
 199 410 199 410 191 420.5 c 128,-1,2
 183 431 183 431 181 434.5 c 128,-1,3
 179 438 179 438 171.5 448 c 128,-1,4
 164 458 164 458 161.5 463.5 c 128,-1,5
 159 469 159 469 153.5 479 c 128,-1,6
 148 489 148 489 145.5 496.5 c 128,-1,7
 143 504 143 504 139.5 513.5 c 128,-1,8
 136 523 136 523 135 532.5 c 128,-1,9
 134 542 134 542 134 552 c 0,10,11
 134 628 134 628 191 672 c 128,-1,12
 248 716 248 716 328 716 c 0,13,14
 410 716 410 716 469 668 c 128,-1,15
 528 620 528 620 528 540 c 0,16,17
 528 483 528 483 488 443.5 c 128,-1,18
 448 404 448 404 371 372 c 1,19,-1
 500 235 l 1,20,21
 554 300 554 300 573 389 c 1,22,-1
 679 374 l 1,23,24
 654 270 654 270 566 155 c 0,25,26
 568 153 568 153 575.5 144.5 c 128,-1,27
 583 136 583 136 584.5 134 c 128,-1,28
 586 132 586 132 592 125.5 c 128,-1,29
 598 119 598 119 600 117.5 c 128,-1,30
 602 116 602 116 608 111 c 128,-1,31
 614 106 614 106 617 105 c 128,-1,32
 620 104 620 104 626 101 c 128,-1,33
 632 98 632 98 636.5 97.5 c 128,-1,34
 641 97 641 97 647.5 96 c 128,-1,35
 654 95 654 95 661 95 c 2,36,-1
 684 96 l 1,37,-1
 684 3 l 1,38,39
 657 -5 657 -5 635 -5 c 0,40,41
 590 -5 590 -5 556.5 14.5 c 128,-1,42
 523 34 523 34 489 81 c 1,43,44
 433 32 433 32 384 13.5 c 128,-1,45
 335 -5 335 -5 271 -5 c 0,46,47
 161 -5 161 -5 96 50.5 c 128,-1,48
 31 106 31 106 31 219 c 0,49,50
 31 288 31 288 72 331.5 c 128,-1,51
 113 375 113 375 200 409 c 1,0,1
331 616 m 0,52,53
 301 616 301 616 276.5 597.5 c 128,-1,54
 252 579 252 579 252 547 c 0,55,56
 252 526 252 526 262.5 508 c 128,-1,57
 273 490 273 490 295 467.5 c 128,-1,58
 317 445 317 445 318 444 c 0,59,60
 410 483 410 483 410 531 c 0,61,62
 410 567 410 567 384.5 591.5 c 128,-1,63
 359 616 359 616 331 616 c 0,52,53
149 226 m 0,64,65
 149 172 149 172 192 133.5 c 128,-1,66
 235 95 235 95 291 95 c 0,67,68
 365 95 365 95 431 149 c 1,69,-1
 270 326 l 1,70,71
 218 317 218 317 183.5 290.5 c 128,-1,72
 149 264 149 264 149 226 c 0,64,65
EndSplineSet
EndChar

StartChar: quotesingle
Encoding: 39 39 8
Width: 298
Flags: W
HStem: 489 242<136 162>
VStem: 100 99<588.73 731>
LayerCount: 3
Fore
SplineSet
162 489 m 1
 136 489 l 1
 100 612 l 1
 100 731 l 1
 199 731 l 1
 199 612 l 1
 162 489 l 1
EndSplineSet
Validated: 1
Layer: 2
SplineSet
162 489 m 1,0,-1
 136 489 l 1,1,-1
 100 612 l 1,2,-1
 100 731 l 1,3,-1
 199 731 l 1,4,-1
 199 612 l 1,5,-1
 162 489 l 1,0,-1
EndSplineSet
EndChar

StartChar: parenleft
Encoding: 40 40 9
Width: 378
Flags: W
VStem: 57 107<96.2531 467.633>
LayerCount: 3
Back
SplineSet
157 276 m 0
 157 124 193 -34 259 -167 c 1
 190 -167 l 1
 107 -37 57 120 57 281 c 0
 57 441 104 604 193 731 c 1
 262 731 l 1
 190 592 157 435 157 276 c 0
EndSplineSet
Fore
SplineSet
164 276 m 0
 164 124 200 -34 266 -167 c 1
 190 -167 l 1
 107 -37 57 120 57 281 c 0
 57 441 104 604 193 731 c 1
 269 731 l 1
 197 592 164 435 164 276 c 0
EndSplineSet
Validated: 1
Layer: 2
SplineSet
164 276 m 0,0,1
 164 39 164 39 266 -167 c 1,2,-1
 190 -167 l 1,3,4
 57 41 57 41 57 281 c 0,5,6
 57 402 57 402 92 519.5 c 128,-1,7
 127 637 127 637 193 731 c 1,8,-1
 269 731 l 1,9,10
 164 528 164 528 164 276 c 0,0,1
EndSplineSet
EndChar

StartChar: parenright
Encoding: 41 41 10
Width: 378
Flags: W
VStem: 172 107<99.8758 467.633>
LayerCount: 3
Back
SplineSet
146 -167 m 1
 78 -167 l 1
 144 -34 179 124 179 276 c 0
 179 435 147 592 75 731 c 1
 143 731 l 1
 231 604 279 441 279 281 c 0
 279 120 228 -37 146 -167 c 1
EndSplineSet
Fore
SplineSet
146 -167 m 1
 71 -167 l 1
 137 -34 172 124 172 276 c 0
 172 435 140 592 68 731 c 1
 143 731 l 1
 231 604 279 441 279 281 c 0
 279 120 228 -37 146 -167 c 1
EndSplineSet
Validated: 1
Layer: 2
SplineSet
146 -167 m 1,0,-1
 71 -167 l 1,1,2
 172 37 172 37 172 276 c 0,3,4
 172 530 172 530 68 731 c 1,5,-1
 143 731 l 1,6,7
 209 636 209 636 244 519 c 128,-1,8
 279 402 279 402 279 281 c 0,9,10
 279 44 279 44 146 -167 c 1,0,-1
EndSplineSet
EndChar

StartChar: asterisk
Encoding: 42 42 11
Width: 597
Flags: W
VStem: 261 76<590 752>
LayerCount: 3
Back
SplineSet
325 524 m 1xa0
 422 386 l 1
 388 359 l 1
 299 504 l 1
 210 359 l 1
 176 386 l 1
 276 524 l 1
 121 572 l 1
 135 616 l 1
 284 558 l 1xa0
 277 731 l 1
 320 731 l 1xc0
 314 558 l 1
 463 618 l 1
 477 572 l 1
 325 524 l 1xa0
EndSplineSet
Fore
SplineSet
359 512 m 1
 451 382 l 1
 382 327 l 1
 299 463 l 1
 216 327 l 1
 147 382 l 1
 241 512 l 1
 94 558 l 1
 121 644 l 1
 261 590 l 1
 255 752 l 1
 342 752 l 1
 337 590 l 1
 477 647 l 1
 504 558 l 1
 359 512 l 1
EndSplineSet
Validated: 1
Layer: 2
SplineSet
359 512 m 1,0,-1
 451 382 l 1,1,-1
 382 327 l 1,2,-1
 299 463 l 1,3,-1
 216 327 l 1,4,-1
 147 382 l 1,5,-1
 241 512 l 1,6,-1
 94 558 l 1,7,-1
 121 644 l 1,8,-1
 261 590 l 1,9,-1
 255 752 l 1,10,-1
 342 752 l 1,11,-1
 337 590 l 1,12,-1
 477 647 l 1,13,-1
 504 558 l 1,14,-1
 359 512 l 1,0,-1
EndSplineSet
EndChar

StartChar: plus
Encoding: 43 43 12
Width: 565
Flags: W
HStem: 259 100<66 235 342 510>
VStem: 235 107<64 259 359 553>
LayerCount: 3
Back
SplineSet
330 264 m 1
 330 64 l 1
 247 64 l 1
 247 264 l 1
 66 264 l 1
 66 354 l 1
 247 354 l 1
 247 553 l 1
 330 553 l 1
 330 354 l 1
 510 354 l 1
 510 264 l 1
 330 264 l 1
EndSplineSet
Fore
SplineSet
342 259 m 1
 342 64 l 1
 235 64 l 1
 235 259 l 1
 66 259 l 1
 66 359 l 1
 235 359 l 1
 235 553 l 1
 342 553 l 1
 342 359 l 1
 510 359 l 1
 510 259 l 1
 342 259 l 1
EndSplineSet
Validated: 1
Layer: 2
SplineSet
342 259 m 1,0,-1
 342 64 l 1,1,-1
 235 64 l 1,2,-1
 235 259 l 1,3,-1
 66 259 l 1,4,-1
 66 359 l 1,5,-1
 235 359 l 1,6,-1
 235 553 l 1,7,-1
 342 553 l 1,8,-1
 342 359 l 1,9,-1
 510 359 l 1,10,-1
 510 259 l 1,11,-1
 342 259 l 1,0,-1
EndSplineSet
EndChar

StartChar: comma
Encoding: 44 44 13
Width: 252
Flags: W
HStem: -161 51<52 104.152> 0 159<70.6594 131.842>
VStem: 133 73<-59.0031 0>
LayerCount: 3
Fore
SplineSet
52 -110 m 1
 83 -106 133 -93 133 -23 c 0
 133 -16 132 -9 132 0 c 1
 71 0 47 40 47 79 c 0
 47 119 73 159 120 159 c 0
 186 159 206 96 206 47 c 0
 206 -24 178 -142 52 -161 c 1
 52 -110 l 1
EndSplineSet
Validated: 1
Layer: 2
SplineSet
52 -110 m 1,0,1
 133 -100 133 -100 133 -23 c 0,2,3
 133 -20 133 -20 132.5 -12.5 c 128,-1,4
 132 -5 132 -5 132 0 c 1,5,6
 89 0 89 0 68 23 c 128,-1,7
 47 46 47 46 47 79 c 0,8,9
 47 111 47 111 66.5 135 c 128,-1,10
 86 159 86 159 120 159 c 0,11,12
 165 159 165 159 185.5 125 c 128,-1,13
 206 91 206 91 206 47 c 0,14,15
 206 17 206 17 199 -13.5 c 128,-1,16
 192 -44 192 -44 176.5 -76 c 128,-1,17
 161 -108 161 -108 129 -131 c 128,-1,18
 97 -154 97 -154 52 -161 c 1,19,-1
 52 -110 l 1,0,1
EndSplineSet
EndChar

StartChar: hyphen
Encoding: 45 45 14
AltUni2: 002010.ffffffff.0
Width: 455
Flags: W
HStem: 232 100<40 412>
LayerCount: 3
Back
SplineSet
40 241 m 1
 40 322 l 1
 412 322 l 1
 412 241 l 1
 40 241 l 1
EndSplineSet
Fore
SplineSet
40 232 m 1
 40 332 l 1
 412 332 l 1
 412 232 l 1
 40 232 l 1
EndSplineSet
Validated: 1
Layer: 2
SplineSet
40 232 m 1,0,-1
 40 332 l 1,1,-1
 412 332 l 1,2,-1
 412 232 l 1,3,-1
 40 232 l 1,0,-1
EndSplineSet
EndChar

StartChar: period
Encoding: 46 46 15
Width: 217
Flags: W
HStem: 0 147<70.4958 165.504>
VStem: 51 134<18.2873 129.864>
LayerCount: 3
Fore
SplineSet
185 75 m 0
 185 41 164 0 118 0 c 0
 72 0 51 41 51 75 c 0
 51 109 72 147 118 147 c 0
 164 147 185 109 185 75 c 0
EndSplineSet
Validated: 1
Layer: 2
SplineSet
185 75 m 0,0,1
 185 46 185 46 167.5 23 c 128,-1,2
 150 0 150 0 118 0 c 256,3,4
 86 0 86 0 68.5 23 c 128,-1,5
 51 46 51 46 51 75 c 0,6,7
 51 103 51 103 68.5 125 c 128,-1,8
 86 147 86 147 118 147 c 256,9,10
 150 147 150 147 167.5 125 c 128,-1,11
 185 103 185 103 185 75 c 0,0,1
EndSplineSet
EndChar

StartChar: slash
Encoding: 47 47 16
Width: 597
Flags: W
HStem: 0 21G<32 172.686> 680 20G<433.2 570>
DStem2: 32 0 161 0 0.508149 0.861269<65.5512 812.754>
LayerCount: 3
Fore
SplineSet
445 700 m 1
 570 700 l 1
 161 0 l 1
 32 0 l 1
 445 700 l 1
EndSplineSet
Validated: 1
Layer: 2
SplineSet
445 700 m 1,0,-1
 570 700 l 1,1,-1
 161 0 l 1,2,-1
 32 0 l 1,3,-1
 445 700 l 1,0,-1
EndSplineSet
EndChar

StartChar: zero
Encoding: 48 48 17
Width: 697
Flags: W
HStem: 0 86<292.246 445.754> 614 86<292.246 445.754>
VStem: 81 118<204.753 495.847> 539 118<204.753 495.847>
LayerCount: 3
Back
SplineSet
662 353 m 0
 662 181 613 0 369 0 c 0
 155 0 81 173 81 351 c 0
 81 512 155 700 369 700 c 0
 601 700 662 517 662 353 c 0
374 619 m 0
 242 619 205 468 205 351 c 0
 205 241 236 77 372 77 c 0
 510 77 536 233 536 349 c 0
 536 466 517 619 374 619 c 0
EndSplineSet
Fore
SplineSet
657 351 m 0
 657 173 583 0 369 0 c 0
 155 0 81 173 81 351 c 0
 81 512 155 700 369 700 c 0
 583 700 657 512 657 351 c 0
369 614 m 0
 233 614 199 467 199 351 c 0
 199 231 233 86 369 86 c 0
 505 86 539 231 539 351 c 0
 539 467 505 614 369 614 c 0
EndSplineSet
Validated: 1
Layer: 2
SplineSet
657 351 m 0,0,1
 657 281 657 281 641.5 220.5 c 128,-1,2
 626 160 626 160 593.5 109 c 128,-1,3
 561 58 561 58 503.5 29 c 128,-1,4
 446 0 446 0 369 0 c 256,5,6
 292 0 292 0 234.5 29 c 128,-1,7
 177 58 177 58 144.5 109 c 128,-1,8
 112 160 112 160 96.5 220.5 c 128,-1,9
 81 281 81 281 81 351 c 0,10,11
 81 415 81 415 96.5 474 c 128,-1,12
 112 533 112 533 144 585 c 128,-1,13
 176 637 176 637 234 668.5 c 128,-1,14
 292 700 292 700 369 700 c 256,15,16
 446 700 446 700 504 668.5 c 128,-1,17
 562 637 562 637 594 585 c 128,-1,18
 626 533 626 533 641.5 474 c 128,-1,19
 657 415 657 415 657 351 c 0,0,1
369 614 m 256,20,21
 321 614 321 614 285.5 590 c 128,-1,22
 250 566 250 566 232.5 525.5 c 128,-1,23
 215 485 215 485 207 442 c 128,-1,24
 199 399 199 399 199 351 c 0,25,26
 199 302 199 302 207 258.5 c 128,-1,27
 215 215 215 215 232.5 174.5 c 128,-1,28
 250 134 250 134 285 110 c 128,-1,29
 320 86 320 86 369 86 c 256,30,31
 418 86 418 86 453 110 c 128,-1,32
 488 134 488 134 505.5 174.5 c 128,-1,33
 523 215 523 215 531 258.5 c 128,-1,34
 539 302 539 302 539 351 c 0,35,36
 539 399 539 399 531 442 c 128,-1,37
 523 485 523 485 505.5 525.5 c 128,-1,38
 488 566 488 566 452.5 590 c 128,-1,39
 417 614 417 614 369 614 c 256,20,21
EndSplineSet
EndChar

StartChar: one
Encoding: 49 49 18
Width: 697
Flags: W
HStem: 0 21G<376 494> 680 20G<327 494>
VStem: 376 118<0 622>
LayerCount: 3
Back
SplineSet
376 622 m 1
 339 580 288 528 219 479 c 1
 162 538 l 1
 210 571 308 654 346 700 c 1
 504 700 l 5
 504 0 l 5
 376 0 l 1
 376 622 l 1
EndSplineSet
Fore
SplineSet
376 622 m 1
 339 580 288 528 219 479 c 1
 162 538 l 1
 210 571 308 654 346 700 c 1
 494 700 l 1
 494 0 l 1
 376 0 l 1
 376 622 l 1
EndSplineSet
Validated: 1
Layer: 2
SplineSet
376 622 m 1,0,1
 302 538 302 538 219 479 c 1,2,-1
 162 538 l 1,3,4
 201 565 201 565 260 616 c 128,-1,5
 319 667 319 667 346 700 c 1,6,-1
 494 700 l 1,7,-1
 494 0 l 1,8,-1
 376 0 l 1,9,-1
 376 622 l 1,0,1
EndSplineSet
EndChar

StartChar: two
Encoding: 50 50 19
Width: 697
Flags: W
HStem: 0 86<267 668> 628 86<292.468 477.034>
VStem: 105 118<434.426 566.884> 554 118<461.363 568.109>
LayerCount: 3
Back
SplineSet
394 714 m 0
 580 714 672 602 672 511 c 0
 672 436 612 378 575 354 c 0
 526 322 489 297 452 276 c 0
 395 244 336 205 284 144 c 0
 271 130 267 116 267 98 c 1
 668 98 l 1
 668 0 l 1
 116 0 l 1
 116 83 124 155 182 216 c 0
 250 290 323 328 409 372 c 0
 513 424 552 474 552 517 c 0
 552 580 465 625 382 625 c 0
 290 625 233 572 233 509 c 0
 233 489 239 469 251 445 c 1
 135 400 l 1
 112 434 105 466 105 499 c 0
 105 628 232 714 394 714 c 0
EndSplineSet
Fore
SplineSet
394 714 m 0
 580 714 672 602 672 511 c 0
 672 417 592 356 452 276 c 0
 395 244 336 205 284 144 c 0
 271 130 267 118 267 86 c 1
 668 86 l 1
 668 0 l 1
 116 0 l 1
 116 83 125 154 182 216 c 0
 250 290 323 328 409 372 c 0
 513 424 554 474 554 517 c 0
 554 580 465 628 382 628 c 0
 290 628 223 572 223 509 c 0
 223 489 229 465 241 441 c 1
 135 400 l 1
 112 434 105 466 105 499 c 0
 105 628 232 714 394 714 c 0
EndSplineSet
Validated: 1
Layer: 2
SplineSet
394 714 m 0,0,1
 524 714 524 714 598 651 c 128,-1,2
 672 588 672 588 672 511 c 0,3,4
 672 445 672 445 620 393.5 c 128,-1,5
 568 342 568 342 452 276 c 0,6,7
 346 216 346 216 284 144 c 0,8,9
 267 126 267 126 267 86 c 1,10,-1
 668 86 l 1,11,-1
 668 0 l 1,12,-1
 116 0 l 1,13,14
 116 71 116 71 129.5 122 c 128,-1,15
 143 173 143 173 182 216 c 0,16,17
 214 251 214 251 254.5 281 c 128,-1,18
 295 311 295 311 324.5 327.5 c 128,-1,19
 354 344 354 344 409 372 c 0,20,21
 554 444 554 444 554 517 c 0,22,23
 554 563 554 563 500.5 595.5 c 128,-1,24
 447 628 447 628 382 628 c 0,25,26
 314 628 314 628 268.5 592.5 c 128,-1,27
 223 557 223 557 223 509 c 0,28,29
 223 477 223 477 241 441 c 1,30,-1
 135 400 l 1,31,32
 105 444 105 444 105 499 c 0,33,34
 105 594 105 594 187.5 654 c 128,-1,35
 270 714 270 714 394 714 c 0,0,1
EndSplineSet
EndChar

StartChar: three
Encoding: 51 51 20
Width: 697
Flags: W
HStem: -8 86<288.174 489.635> 326 82<322 478.764> 620 86<308.427 489.94>
VStem: 101 118<137.806 212> 126 118<501 561.064> 538 118<456.009 575.533> 561 118<138.609 270.936>
LayerCount: 3
Back
SplineSet
679 195 m 0xe2
 679 51 535 -8 392 -8 c 0
 241 -8 101 51 101 212 c 1
 227 212 l 1
 227 108 310 76 389 76 c 0
 468 76 547 114 547 205 c 0xf2
 547 314 442 326 354 326 c 2
 322 326 l 1
 322 412 l 1
 343 412 361 408 377 408 c 0
 398 408 539 416 539 510 c 0
 539 551 518 618 396 618 c 0
 292 618 248 552 248 501 c 1
 126 501 l 1
 126 644 263 706 407 706 c 0
 589 706 656 596 656 515 c 0xec
 656 432 584 393 524 377 c 1
 524 368 l 1
 593 358 679 299 679 195 c 0xe2
EndSplineSet
Fore
SplineSet
679 195 m 0xe2
 679 51 535 -8 392 -8 c 0
 241 -8 101 51 101 212 c 1
 219 212 l 1
 219 108 310 78 389 78 c 0
 468 78 561 114 561 205 c 0xf2
 561 314 442 326 354 326 c 2
 322 326 l 1
 322 412 l 1
 343 412 361 408 377 408 c 0
 398 408 538 416 538 510 c 0
 538 551 518 620 396 620 c 0
 292 620 244 552 244 501 c 1
 126 501 l 1
 126 644 263 706 407 706 c 0
 589 706 656 596 656 515 c 0xec
 656 432 584 393 524 377 c 1
 524 368 l 1
 593 358 679 299 679 195 c 0xe2
EndSplineSet
Validated: 1
Layer: 2
SplineSet
679 195 m 0,0,1
 679 143 679 143 654.5 103 c 128,-1,2
 630 63 630 63 588.5 39.5 c 128,-1,3
 547 16 547 16 497.5 4 c 128,-1,4
 448 -8 448 -8 392 -8 c 0,5,6
 312 -8 312 -8 249 12.5 c 128,-1,7
 186 33 186 33 143.5 84 c 128,-1,8
 101 135 101 135 101 212 c 1,9,-1
 219 212 l 1,10,11
 219 141 219 141 269 109.5 c 128,-1,12
 319 78 319 78 389 78 c 0,13,14
 457 78 457 78 509 110 c 128,-1,15
 561 142 561 142 561 205 c 0,16,17
 561 244 561 244 542 269.5 c 128,-1,18
 523 295 523 295 489 306.5 c 128,-1,19
 455 318 455 318 424.5 322 c 128,-1,20
 394 326 394 326 354 326 c 2,21,-1
 322 326 l 1,22,-1
 322 412 l 1,23,24
 333 412 333 412 351.5 410 c 128,-1,25
 370 408 370 408 377 408 c 0,26,27
 387 408 387 408 402 409.5 c 128,-1,28
 417 411 417 411 442.5 417 c 128,-1,29
 468 423 468 423 488 433 c 128,-1,30
 508 443 508 443 523 463.5 c 128,-1,31
 538 484 538 484 538 510 c 0,32,33
 538 552 538 552 507.5 586 c 128,-1,34
 477 620 477 620 396 620 c 0,35,36
 324 620 324 620 284 582.5 c 128,-1,37
 244 545 244 545 244 501 c 1,38,-1
 126 501 l 1,39,40
 126 569 126 569 167 617 c 128,-1,41
 208 665 208 665 270 685.5 c 128,-1,42
 332 706 332 706 407 706 c 0,43,44
 531 706 531 706 593.5 646.5 c 128,-1,45
 656 587 656 587 656 515 c 0,46,47
 656 459 656 459 617.5 425.5 c 128,-1,48
 579 392 579 392 524 377 c 1,49,-1
 524 368 l 1,50,51
 583 359 583 359 631 313 c 128,-1,52
 679 267 679 267 679 195 c 0,0,1
EndSplineSet
EndChar

StartChar: four
Encoding: 52 52 21
Width: 697
Flags: W
HStem: 0 21G<463 581> 175 86<189 462 581 700> 680 20G<406.496 580>
VStem: 462 118<0 175 261 607>
LayerCount: 3
Back
SplineSet
587 178 m 1
 587 0 l 1
 458 0 l 1
 458 178 l 1
 69 178 l 1
 69 271 l 1
 418 700 l 1
 586 700 l 1
 586 261 l 1
 700 261 l 1
 700 178 l 1
 587 178 l 1
457 607 m 1
 189 261 l 1
 457 261 l 1
 457 607 l 1
EndSplineSet
Fore
SplineSet
581 175 m 1
 581 0 l 1
 463 0 l 1
 463 175 l 1
 69 175 l 1
 69 271 l 1
 423 700 l 1
 580 700 l 1
 580 261 l 1
 700 261 l 1
 700 175 l 1
 581 175 l 1
462 607 m 1
 189 261 l 1
 462 261 l 1
 462 607 l 1
EndSplineSet
Validated: 1
Layer: 2
SplineSet
581 175 m 1,0,-1
 581 0 l 1,1,-1
 463 0 l 1,2,-1
 463 175 l 1,3,-1
 69 175 l 1,4,-1
 69 271 l 1,5,-1
 423 700 l 1,6,-1
 580 700 l 1,7,-1
 580 261 l 1,8,-1
 700 261 l 1,9,-1
 700 175 l 1,10,-1
 581 175 l 1,0,-1
462 607 m 1,11,-1
 189 261 l 1,12,-1
 462 261 l 1,13,-1
 462 607 l 1,11,-1
EndSplineSet
EndChar

StartChar: five
Encoding: 53 53 22
Width: 697
Flags: W
HStem: -12 86<298.756 488.157> 404 86<318.549 484.916> 614 86<275 638>
VStem: 118 123<129.328 187> 564 118<149.031 325.432>
DStem2: 121 317 248 432 0.142145 0.989846<131.885 315.875>
LayerCount: 3
Back
SplineSet
441 499 m 0
 614 499 688 379 688 226 c 0
 688 84 604 -12 403 -12 c 0
 150 -12 130 124 118 187 c 1
 247 187 l 1
 259 106 313 77 394 77 c 0
 530 77 564 161 564 243 c 0
 564 344 487 396 403 396 c 0
 343 396 280 370 239 317 c 1
 121 317 l 1
 176 700 l 1
 638 700 l 1
 651 604 l 1
 281 604 l 1
 248 432 l 1
 289 454 329 499 441 499 c 0
EndSplineSet
Fore
SplineSet
441 490 m 0
 608 490 682 379 682 226 c 0
 682 84 598 -12 403 -12 c 0
 150 -12 130 124 118 187 c 1
 241 187 l 1
 253 106 307 74 394 74 c 0
 530 74 564 161 564 243 c 0
 564 344 487 404 403 404 c 0
 343 404 280 370 239 317 c 1
 121 317 l 1
 176 700 l 1
 638 700 l 1
 651 614 l 1
 275 614 l 1
 248 432 l 1
 289 454 329 490 441 490 c 0
EndSplineSet
Validated: 1
Layer: 2
SplineSet
441 490 m 0,0,1
 561 490 561 490 621.5 418 c 128,-1,2
 682 346 682 346 682 226 c 0,3,4
 682 115 682 115 613 51.5 c 128,-1,5
 544 -12 544 -12 403 -12 c 0,6,7
 351 -12 351 -12 308.5 -3.5 c 128,-1,8
 266 5 266 5 238 16 c 128,-1,9
 210 27 210 27 188 47.5 c 128,-1,10
 166 68 166 68 155.5 81.5 c 128,-1,11
 145 95 145 95 135.5 120.5 c 128,-1,12
 126 146 126 146 124 155.5 c 128,-1,13
 122 165 122 165 118 187 c 1,14,-1
 241 187 l 1,15,16
 258 74 258 74 394 74 c 0,17,18
 487 74 487 74 525.5 122 c 128,-1,19
 564 170 564 170 564 243 c 256,20,21
 564 316 564 316 516.5 360 c 128,-1,22
 469 404 469 404 403 404 c 0,23,24
 358 404 358 404 314 380.5 c 128,-1,25
 270 357 270 357 239 317 c 1,26,-1
 121 317 l 1,27,-1
 176 700 l 1,28,-1
 638 700 l 1,29,-1
 651 614 l 1,30,-1
 275 614 l 1,31,-1
 248 432 l 1,32,33
 253 435 253 435 272 446 c 128,-1,34
 291 457 291 457 302.5 462.5 c 128,-1,35
 314 468 314 468 335.5 475.5 c 128,-1,36
 357 483 357 483 383 486.5 c 128,-1,37
 409 490 409 490 441 490 c 0,0,1
EndSplineSet
EndChar

StartChar: six
Encoding: 54 54 23
Width: 697
Flags: W
HStem: -12 86<311.81 486.802> 379 86<316.388 486.148> 627 86<320.847 500.677>
VStem: 110 135<173.354 413.333> 110 118<385 494.666> 556 118<140.758 309.096>
LayerCount: 3
Back
SplineSet
413 -12 m 0
 167 -12 108 157 108 332 c 0
 108 647 292 713 415 713 c 0
 532 713 628 672 664 553 c 1
 550 553 l 1
 522 610 475 631 408 631 c 0
 340 631 239 592 239 385 c 1
 286 427 335 461 424 461 c 0
 584 461 676 367 676 227 c 0
 676 99 595 -12 413 -12 c 0
402 383 m 0
 306 383 245 319 245 230 c 0
 245 142 292 74 399 74 c 0
 507 74 556 142 556 224 c 0
 556 333 480 383 402 383 c 0
EndSplineSet
Fore
SplineSet
413 -12 m 0xec
 167 -12 110 157 110 332 c 0xf4
 110 647 287 713 410 713 c 0
 527 713 628 672 664 553 c 1
 550 553 l 1
 522 610 470 627 403 627 c 0
 335 627 228 592 228 385 c 1
 275 427 335 465 424 465 c 0
 584 465 674 367 674 227 c 0
 674 99 595 -12 413 -12 c 0xec
402 379 m 0
 306 379 245 319 245 230 c 0
 245 142 292 74 399 74 c 0
 507 74 556 142 556 224 c 0
 556 333 480 379 402 379 c 0
EndSplineSet
Validated: 1
Layer: 2
SplineSet
413 -12 m 0,0,1
 110 -12 110 -12 110 332 c 0,2,3
 110 422 110 422 130 492 c 128,-1,4
 150 562 150 562 180 602.5 c 128,-1,5
 210 643 210 643 251.5 669 c 128,-1,6
 293 695 293 695 331 704 c 128,-1,7
 369 713 369 713 410 713 c 0,8,9
 616 713 616 713 664 553 c 1,10,-1
 550 553 l 1,11,12
 514 627 514 627 403 627 c 0,13,14
 380 627 380 627 358.5 622 c 128,-1,15
 337 617 337 617 312.5 601 c 128,-1,16
 288 585 288 585 270 559.5 c 128,-1,17
 252 534 252 534 240 489 c 128,-1,18
 228 444 228 444 228 385 c 1,19,20
 318 465 318 465 424 465 c 0,21,22
 542 465 542 465 608 399.5 c 128,-1,23
 674 334 674 334 674 227 c 0,24,25
 674 124 674 124 608 56 c 128,-1,26
 542 -12 542 -12 413 -12 c 0,0,1
402 379 m 0,27,28
 330 379 330 379 287.5 338 c 128,-1,29
 245 297 245 297 245 230 c 0,30,31
 245 160 245 160 283.5 117 c 128,-1,32
 322 74 322 74 399 74 c 128,-1,33
 476 74 476 74 516 116 c 128,-1,34
 556 158 556 158 556 224 c 0,35,36
 556 301 556 301 511 340 c 128,-1,37
 466 379 466 379 402 379 c 0,27,28
EndSplineSet
EndChar

StartChar: seven
Encoding: 55 55 24
Width: 697
Flags: W
HStem: 0 21G<231 376> 614 86<132 549>
VStem: 231 145<0 136.053>
LayerCount: 3
Back
SplineSet
423 253 m 0
 388 158 376 92.5 376 0 c 1
 231 0 l 1
 231 97.5 273 224 337 339 c 0
 391 435 466 530 552 615 c 1
 132 615 l 1
 132 700 l 1
 661 700 l 1
 661 607 l 1
 559 513 471 376 423 253 c 0
EndSplineSet
Fore
SplineSet
423 253 m 1
 388 158 376 92 376 0 c 1
 231 0 l 1
 231 98 273 224 337 339 c 0
 391 435 463 529 549 614 c 1
 132 614 l 1
 132 700 l 1
 661 700 l 1
 661 607 l 1
 559 513 471 376 423 253 c 1
EndSplineSet
Validated: 1
Layer: 2
SplineSet
423 253 m 1,0,1
 376 125 376 125 376 0 c 1,2,-1
 231 0 l 1,3,4
 231 149 231 149 337 339 c 0,5,6
 420 486 420 486 549 614 c 1,7,-1
 132 614 l 1,8,-1
 132 700 l 1,9,-1
 661 700 l 1,10,-1
 661 607 l 1,11,12
 586 538 586 538 523 443 c 128,-1,13
 460 348 460 348 423 253 c 1,0,1
EndSplineSet
EndChar

StartChar: eight
Encoding: 56 56 25
Width: 697
Flags: W
HStem: -6 86<300.913 477.25> 349 86<305.087 473.087> 619 86<305.543 472.457>
VStem: 110 118<144.915 289.731> 142 118<475.348 579.202> 518 118<475.348 579.202> 551 118<144.915 286.215>
LayerCount: 3
Back
SplineSet
389 705 m 0xe8
 515 705 636 665 636 544 c 0xec
 636 465 584 421 510 408 c 1
 512 385 l 1
 552 377 665 344 665 212 c 0
 665 90 580 -6 397 -6 c 0
 164 -6 110 128 110 217 c 0xf2
 110 348 244 380 277 385 c 1
 277 408 l 1
 202 417 142 463 142 543 c 0
 142 673 291 705 389 705 c 0xe8
547 207 m 0xf2
 547 265 516 348 388 348 c 0
 258 348 228 263 228 211 c 0
 228 140 288 67 394 67 c 0
 495 67 547 137 547 207 c 0xf2
518 537 m 0xec
 518 619 453 639 389 639 c 0
 333 639 260 618 260 536 c 0
 260 478 309 435 386 435 c 0
 478 435 518 476 518 537 c 0xec
EndSplineSet
Fore
SplineSet
389 705 m 0xe8
 493 705 636 664 636 543 c 0xec
 636 464 576 417 501 392 c 1
 534 382 669 348 669 217 c 0
 669 128 614 -6 389 -6 c 0
 164 -6 110 128 110 217 c 0xf2
 110 348 244 382 277 392 c 1
 202 417 142 464 142 543 c 0
 142 664 285 705 389 705 c 0xe8
551 217 m 0xf2
 551 269 519 349 389 349 c 0
 259 349 228 269 228 217 c 0
 228 146 283 80 389 80 c 0
 495 80 551 146 551 217 c 0xf2
518 527 m 0xec
 518 578 466 619 389 619 c 0
 312 619 260 578 260 527 c 0
 260 476 312 435 389 435 c 0
 466 435 518 476 518 527 c 0xec
EndSplineSet
Validated: 1
Layer: 2
SplineSet
389 705 m 256,0,1
 447 705 447 705 500 690.5 c 128,-1,2
 553 676 553 676 594.5 638 c 128,-1,3
 636 600 636 600 636 543 c 0,4,5
 636 437 636 437 501 392 c 1,6,7
 589.835403192 365.080180851 589.835403192 365.080180851 628.704300595 322.95470442 c 0,8,9
 669 279.282883273 669 279.282883273 669 217 c 0,10,11
 669 188 669 188 662 159.5 c 128,-1,12
 655 131 655 131 635 100.5 c 128,-1,13
 615 70 615 70 585 47 c 128,-1,14
 555 24 555 24 504.5 9 c 128,-1,15
 454 -6 454 -6 389 -6 c 256,16,17
 324 -6 324 -6 273.5 9 c 128,-1,18
 223 24 223 24 193 47 c 128,-1,19
 163 70 163 70 143.5 100.5 c 128,-1,20
 124 131 124 131 117 159.5 c 128,-1,21
 110 188 110 188 110 217 c 0,22,23
 110 244 110 244 118.5 267.5 c 128,-1,24
 127 291 127 291 136.5 307 c 128,-1,25
 146 323 146 323 166.5 338 c 128,-1,26
 187 353 187 353 196.5 360 c 128,-1,27
 206 367 206 367 230.5 376 c 128,-1,28
 255 385 255 385 256.5 385.5 c 128,-1,29
 258 386 258 386 277 392 c 1,30,31
 142 437 142 437 142 543 c 0,32,33
 142 600 142 600 183.5 638 c 128,-1,34
 225 676 225 676 278 690.5 c 128,-1,35
 331 705 331 705 389 705 c 256,0,1
551 217 m 0,36,37
 551 267 551 267 513.5 308 c 128,-1,38
 476 349 476 349 389 349 c 256,39,40
 302 349 302 349 265 308 c 128,-1,41
 228 267 228 267 228 217 c 0,42,43
 228 160 228 160 270.5 120 c 128,-1,44
 313 80 313 80 389 80 c 256,45,46
 465 80 465 80 508 120 c 128,-1,47
 551 160 551 160 551 217 c 0,36,37
518 527 m 256,48,49
 518 566 518 566 482 592.5 c 128,-1,50
 446 619 446 619 389 619 c 256,51,52
 332 619 332 619 296 592.5 c 128,-1,53
 260 566 260 566 260 527 c 256,54,55
 260 488 260 488 296 461.5 c 128,-1,56
 332 435 332 435 389 435 c 256,57,58
 446 435 446 435 482 461.5 c 128,-1,59
 518 488 518 488 518 527 c 256,48,49
EndSplineSet
EndChar

StartChar: nine
Encoding: 57 57 26
Width: 697
Flags: W
HStem: -8 86<283.813 452.609> 246 86<300.932 470.531> 624 86<298.418 473.744>
VStem: 113 118<396.492 559.493> 538 135<303.026 536.768> 555 118<222.051 337>
LayerCount: 3
Back
SplineSet
673 384 m 0xf8
 673 205 605 -8 371 -8 c 0
 179 -8 139 103 126 144 c 1
 233 144 l 1
 260 87 309 66 375 66 c 0
 486 66 558 185 558 337 c 1xf4
 541 315 495 248 366 248 c 0
 208 248 113 336 113 475 c 0
 113 600 193 710 370 710 c 0
 612 710 673 558 673 384 c 0xf8
540 473 m 0xf8
 540 538 510 628 388 628 c 0
 277 628 230 559 230 478 c 0
 230 377 307 328 384 328 c 0
 462 328 540 378 540 473 c 0xf8
EndSplineSet
Fore
SplineSet
673 384 m 0xf8
 673 205 605 -8 371 -8 c 0
 179 -8 139 115 126 156 c 1
 233 156 l 1
 260 99 309 78 375 78 c 0
 486 78 555 185 555 337 c 1xf4
 538 315 495 246 366 246 c 0
 208 246 113 336 113 475 c 0
 113 600 193 710 370 710 c 0
 612 710 673 558 673 384 c 0xf8
538 473 m 0xf8
 538 538 510 624 388 624 c 0
 277 624 231 559 231 478 c 0
 231 377 307 332 384 332 c 0
 462 332 538 378 538 473 c 0xf8
EndSplineSet
Validated: 1
Layer: 2
SplineSet
673 384 m 0,0,1
 673 327 673 327 664.5 274 c 128,-1,2
 656 221 656 221 634 169 c 128,-1,3
 612 117 612 117 578.5 78.5 c 128,-1,4
 545 40 545 40 492 16 c 128,-1,5
 439 -8 439 -8 371 -8 c 0,6,7
 178 -8 178 -8 126 156 c 1,8,-1
 233 156 l 1,9,10
 270 78 270 78 375 78 c 0,11,12
 457 78 457 78 506 150 c 128,-1,13
 555 222 555 222 555 337 c 1,14,15
 525.447697077 298.755843276 525.447697077 298.755843276 501.108435614 282.299755646 c 0,16,17
 447.419535581 246 447.419535581 246 366 246 c 0,18,19
 248 246 248 246 180.5 308 c 128,-1,20
 113 370 113 370 113 475 c 0,21,22
 113 576 113 576 178.5 643 c 128,-1,23
 244 710 244 710 370 710 c 0,24,25
 673 710 673 710 673 384 c 0,0,1
538 473 m 0,26,27
 538 534 538 534 504 579 c 128,-1,28
 470 624 470 624 388 624 c 0,29,30
 309 624 309 624 270 583.5 c 128,-1,31
 231 543 231 543 231 478 c 0,32,33
 231 407 231 407 276 369.5 c 128,-1,34
 321 332 321 332 384 332 c 256,35,36
 447 332 447 332 492.5 369 c 128,-1,37
 538 406 538 406 538 473 c 0,26,27
EndSplineSet
EndChar

StartChar: colon
Encoding: 58 58 27
Width: 294
Flags: W
HStem: 2 145<93.9268 190.714> 383 146<93.9268 190.714>
VStem: 75 133<20.71 128.697 401.626 509.883>
LayerCount: 3
Fore
SplineSet
208 455 m 0
 208 422 189 383 143 383 c 0
 97 383 75 422 75 455 c 0
 75 489 97 529 143 529 c 0
 189 529 208 489 208 455 c 0
208 75 m 0
 208 41 189 2 143 2 c 0
 97 2 75 41 75 75 c 0
 75 109 97 147 143 147 c 0
 189 147 208 109 208 75 c 0
EndSplineSet
Validated: 1
Layer: 2
SplineSet
208 455 m 0,0,1
 208 427 208 427 191.5 405 c 128,-1,2
 175 383 175 383 143 383 c 256,3,4
 111 383 111 383 93 405 c 128,-1,5
 75 427 75 427 75 455 c 0,6,7
 75 484 75 484 93 506.5 c 128,-1,8
 111 529 111 529 143 529 c 256,9,10
 175 529 175 529 191.5 506.5 c 128,-1,11
 208 484 208 484 208 455 c 0,0,1
208 75 m 256,12,13
 208 46 208 46 191.5 24 c 128,-1,14
 175 2 175 2 143 2 c 256,15,16
 111 2 111 2 93 24.5 c 128,-1,17
 75 47 75 47 75 75 c 256,18,19
 75 103 75 103 93 125 c 128,-1,20
 111 147 111 147 143 147 c 256,21,22
 175 147 175 147 191.5 125.5 c 128,-1,23
 208 104 208 104 208 75 c 256,12,13
EndSplineSet
EndChar

StartChar: semicolon
Encoding: 59 59 28
Width: 320
Flags: W
HStem: -161 51<79 131.152> 0 159<97.6594 158.842> 379 145<98.38 196.073>
VStem: 80 135<397.303 504.967> 160 73<-59.0031 0>
LayerCount: 3
Fore
SplineSet
79 -110 m 1xe8
 110 -106 160 -93 160 -23 c 0
 160 -16 159 -9 159 0 c 1
 98 0 74 40 74 79 c 0
 74 119 100 159 147 159 c 0
 213 159 233 96 233 47 c 0
 233 -24 205 -142 79 -161 c 1
 79 -110 l 1xe8
215 451 m 0xf0
 215 417 193 379 147 379 c 0
 101 379 80 417 80 451 c 0
 80 484 101 524 147 524 c 0
 193 524 215 484 215 451 c 0xf0
EndSplineSet
Validated: 1
Layer: 2
SplineSet
79 -110 m 1,0,1
 160 -100 160 -100 160 -23 c 0,2,3
 160 -20 160 -20 159.5 -12.5 c 128,-1,4
 159 -5 159 -5 159 0 c 1,5,6
 116 0 116 0 95 23 c 128,-1,7
 74 46 74 46 74 79 c 0,8,9
 74 111 74 111 93.5 135 c 128,-1,10
 113 159 113 159 147 159 c 0,11,12
 192 159 192 159 212.5 125 c 128,-1,13
 233 91 233 91 233 47 c 0,14,15
 233 17 233 17 226 -13.5 c 128,-1,16
 219 -44 219 -44 203.5 -76 c 128,-1,17
 188 -108 188 -108 156 -131 c 128,-1,18
 124 -154 124 -154 79 -161 c 1,19,-1
 79 -110 l 1,0,1
215 451 m 256,20,21
 215 423 215 423 197 401 c 128,-1,22
 179 379 179 379 147 379 c 256,23,24
 115 379 115 379 97.5 401 c 128,-1,25
 80 423 80 423 80 451 c 256,26,27
 80 479 80 479 97.5 501.5 c 128,-1,28
 115 524 115 524 147 524 c 256,29,30
 179 524 179 524 197 501.5 c 128,-1,31
 215 479 215 479 215 451 c 256,20,21
EndSplineSet
EndChar

StartChar: less
Encoding: 60 60 29
Width: 597
Flags: W
DStem2: 74 351 173 299 0.927049 0.37494<72.281 448.667> 173 299 74 247 0.925612 -0.378473<0 377.119>
LayerCount: 3
Fore
SplineSet
74 247 m 1
 74 351 l 1
 524 533 l 1
 524 435 l 1
 173 299 l 1
 524 161 l 1
 524 63 l 1
 74 247 l 1
EndSplineSet
Validated: 1
Layer: 2
SplineSet
74 247 m 1,0,-1
 74 351 l 1,1,-1
 524 533 l 1,2,-1
 524 435 l 1,3,-1
 173 299 l 1,4,-1
 524 161 l 1,5,-1
 524 63 l 1,6,-1
 74 247 l 1,0,-1
EndSplineSet
EndChar

StartChar: equal
Encoding: 61 61 30
Width: 544
Flags: W
HStem: 138 92<66 497> 402 90<66 497>
LayerCount: 3
Fore
SplineSet
66 402 m 1
 66 492 l 1
 497 492 l 1
 497 402 l 1
 66 402 l 1
66 138 m 1
 66 230 l 1
 497 230 l 1
 497 138 l 1
 66 138 l 1
EndSplineSet
Validated: 1
Layer: 2
SplineSet
66 402 m 1,0,-1
 66 492 l 1,1,-1
 497 492 l 1,2,-1
 497 402 l 1,3,-1
 66 402 l 1,0,-1
66 138 m 1,4,-1
 66 230 l 1,5,-1
 497 230 l 1,6,-1
 497 138 l 1,7,-1
 66 138 l 1,4,-1
EndSplineSet
EndChar

StartChar: greater
Encoding: 62 62 31
Width: 597
Flags: W
DStem2: 74 533 74 435 0.927049 -0.37494<36.7441 411.276> 74 161 74 63 0.925612 0.378473<0 375.268>
LayerCount: 3
Fore
SplineSet
74 63 m 1
 74 161 l 1
 423 299 l 1
 74 435 l 1
 74 533 l 1
 524 351 l 1
 524 247 l 1
 74 63 l 1
EndSplineSet
Validated: 1
Layer: 2
SplineSet
74 63 m 1,0,-1
 74 161 l 1,1,-1
 423 299 l 1,2,-1
 74 435 l 1,3,-1
 74 533 l 1,4,-1
 524 351 l 1,5,-1
 524 247 l 1,6,-1
 74 63 l 1,0,-1
EndSplineSet
EndChar

StartChar: question
Encoding: 63 63 32
Width: 538
Flags: W
HStem: -2 115<222.703 313.867> 369 147<147.935 235.095> 626 81<185.334 318.786>
VStem: 62 81<501.843 583.151> 211 115<9.54661 101.513> 222 81<141 240.166> 365 118<430.747 578.38>
LayerCount: 3
Back
SplineSet
271 707 m 0xf6
 344 707 481 668 481 512 c 0
 481 449 456 381 403 325 c 0
 359 279 305 244 305 173 c 0
 305 167 303 162 303 141 c 1
 222 141 l 1
 222 226 228 234 261 305 c 0
 295 379 368 418 368 511 c 0
 368 585 310 626 252 626 c 0
 182 626 143 570 143 522 c 0
 143 515 144 507 147 500 c 1
 167 511 184 516 199 516 c 0
 239 516 260 481 260 446 c 0
 260 393 213 369 178 369 c 0
 132 369 62 408 62 508 c 0
 62 632 158 707 271 707 c 0xf6
268 113 m 0
 306 113 326 84 326 56 c 0
 326 27 306 -2 268 -2 c 0
 230 -2 211 27 211 56 c 0xfa
 211 84 230 113 268 113 c 0
EndSplineSet
Fore
SplineSet
271 707 m 0xf6
 344 707 483 668 483 512 c 0
 483 449 456 381 403 325 c 0
 359 279 305 244 305 173 c 0
 305 167 303 162 303 141 c 1
 222 141 l 1
 222 226 228 234 261 305 c 0
 295 379 365 418 365 511 c 0
 365 585 310 626 252 626 c 0
 182 626 143 570 143 522 c 0
 143 515 144 507 147 500 c 1
 167 511 184 516 199 516 c 0
 239 516 260 481 260 446 c 0
 260 393 213 369 178 369 c 0
 132 369 62 408 62 508 c 0
 62 632 158 707 271 707 c 0xf6
268 113 m 0
 306 113 326 84 326 56 c 0
 326 27 306 -2 268 -2 c 0
 230 -2 211 27 211 56 c 0xfa
 211 84 230 113 268 113 c 0
EndSplineSet
Validated: 1
Layer: 2
SplineSet
271 707 m 0,0,1
 302 707 302 707 335.5 698 c 128,-1,2
 369 689 369 689 404 668.5 c 128,-1,3
 439 648 439 648 461 607.5 c 128,-1,4
 483 567 483 567 483 512 c 0,5,6
 483 410 483 410 403 325 c 0,7,8
 397 319 397 319 371 293.5 c 128,-1,9
 345 268 345 268 336 257 c 128,-1,10
 327 246 327 246 316 222 c 128,-1,11
 305 198 305 198 305 173 c 0,12,13
 305 172 305 172 304 162.5 c 128,-1,14
 303 153 303 153 303 141 c 1,15,-1
 222 141 l 1,16,17
 222 201 222 201 228 224 c 128,-1,18
 234 247 234 247 261 305 c 0,19,20
 273 331 273 331 301.5 367 c 128,-1,21
 330 403 330 403 347.5 436.5 c 128,-1,22
 365 470 365 470 365 511 c 0,23,24
 365 564 365 564 331.5 595 c 128,-1,25
 298 626 298 626 252 626 c 0,26,27
 203 626 203 626 173 593.5 c 128,-1,28
 143 561 143 561 143 522 c 0,29,30
 143 509 143 509 147 500 c 1,31,32
 176 516 176 516 199 516 c 0,33,34
 227 516 227 516 243.5 495 c 128,-1,35
 260 474 260 474 260 446 c 0,36,37
 260 409 260 409 234 389 c 128,-1,38
 208 369 208 369 178 369 c 0,39,40
 136 369 136 369 99 404.5 c 128,-1,41
 62 440 62 440 62 508 c 0,42,43
 62 598 62 598 122.5 652.5 c 128,-1,44
 183 707 183 707 271 707 c 0,0,1
268 113 m 256,45,46
 295 113 295 113 310.5 96 c 128,-1,47
 326 79 326 79 326 56 c 128,-1,48
 326 33 326 33 310.5 15.5 c 128,-1,49
 295 -2 295 -2 268 -2 c 256,50,51
 241 -2 241 -2 226 15 c 128,-1,52
 211 32 211 32 211 56 c 0,53,54
 211 79 211 79 226 96 c 128,-1,55
 241 113 241 113 268 113 c 256,45,46
EndSplineSet
EndChar

StartChar: at
Encoding: 64 64 33
Width: 784
Flags: W
HStem: -26 80<310.616 523.002> 135 64<487 592.014> 138 95<323.457 403.312> 440 96<338.549 442.307> 644 79<302.632 512.018>
VStem: 56 84<228.793 467.808> 195 104<258.243 396.638> 466 72<274.66 377.656> 644 84<274.924 504.341>
LayerCount: 3
Back
SplineSet
512 135 m 0xdf80
 480 135 451 153 451 195 c 1
 411 152 383 138 356 138 c 0xbf80
 274 138 204 215 204 310 c 0
 204 428 276 536 388 536 c 0
 429 536 461 523 501 472 c 1
 510 530 l 1
 590 530 l 1
 562 323 547 245 547 216 c 0
 547 199 552 199 563 199 c 0
 602 199 653 277 653 388 c 0
 653 556 546 644 406 644 c 0
 251 644 149 520 149 349 c 0
 149 167 265 54 422 54 c 0
 487 54 546 80 595 121 c 1
 679 121 l 1
 607 32 535 -26 414 -26 c 0
 198 -26 57 130 57 346 c 0
 57 558 205 723 408 723 c 0
 586 723 728 590 728 420 c 0
 728 340 720 282 677 222 c 0
 630 156 599 135 512 135 c 0xdf80
308 326 m 0
 308 276 334 233 380 233 c 0
 438 233 475 288 475 351 c 0
 475 403 446 440 400 440 c 0
 346 440 308 383 308 326 c 0
EndSplineSet
Fore
SplineSet
503 135 m 0xdf80
 471 135 442 153 442 195 c 1
 402 152 374 138 347 138 c 0xbf80
 265 138 195 215 195 310 c 0
 195 428 267 536 379 536 c 0
 420 536 452 523 492 472 c 1
 501 530 l 1
 581 530 l 1
 553 323 538 245 538 216 c 0
 538 199 543 199 554 199 c 0
 593 199 644 277 644 388 c 0
 644 556 546 644 406 644 c 0
 251 644 140 520 140 349 c 0
 140 167 265 54 422 54 c 0
 487 54 546 80 595 121 c 1
 679 121 l 1
 607 32 535 -26 414 -26 c 0
 198 -26 56 130 56 346 c 0
 56 558 205 723 408 723 c 0
 586 723 728 590 728 420 c 0
 728 240 656 135 503 135 c 0xdf80
299 326 m 0
 299 276 325 233 371 233 c 0
 429 233 466 288 466 351 c 0
 466 403 437 440 391 440 c 0
 337 440 299 383 299 326 c 0
EndSplineSet
Validated: 1
Layer: 2
SplineSet
503 135 m 0,0,1
 477 135 477 135 459.5 150 c 128,-1,2
 442 165 442 165 442 195 c 1,3,4
 389 138 389 138 347 138 c 0,5,6
 285 138 285 138 240 188.5 c 128,-1,7
 195 239 195 239 195 310 c 0,8,9
 195 402 195 402 246.5 469 c 128,-1,10
 298 536 298 536 379 536 c 0,11,12
 412 536 412 536 437.5 522.5 c 128,-1,13
 463 509 463 509 492 472 c 1,14,-1
 501 530 l 1,15,-1
 581 530 l 1,16,17
 570 448 570 448 558 368.5 c 128,-1,18
 546 289 546 289 542 259 c 128,-1,19
 538 229 538 229 538 216 c 0,20,21
 538 204 538 204 541 201.5 c 128,-1,22
 544 199 544 199 554 199 c 0,23,24
 586 199 586 199 615 254 c 128,-1,25
 644 309 644 309 644 388 c 0,26,27
 644 511 644 511 579 577.5 c 128,-1,28
 514 644 514 644 406 644 c 0,29,30
 290 644 290 644 215 560.5 c 128,-1,31
 140 477 140 477 140 349 c 0,32,33
 140 216 140 216 220.5 135 c 128,-1,34
 301 54 301 54 422 54 c 0,35,36
 515 54 515 54 595 121 c 1,37,-1
 679 121 l 1,38,39
 619 47 619 47 559 10.5 c 128,-1,40
 499 -26 499 -26 414 -26 c 0,41,42
 253 -26 253 -26 154.5 78 c 128,-1,43
 56 182 56 182 56 346 c 0,44,45
 56 506 56 506 156.5 614.5 c 128,-1,46
 257 723 257 723 408 723 c 0,47,48
 542 723 542 723 635 635 c 128,-1,49
 728 547 728 547 728 420 c 0,50,51
 728 282 728 282 672 208.5 c 128,-1,52
 616 135 616 135 503 135 c 0,0,1
299 326 m 0,53,54
 299 287 299 287 318.5 260 c 128,-1,55
 338 233 338 233 371 233 c 0,56,57
 413 233 413 233 439.5 267.5 c 128,-1,58
 466 302 466 302 466 351 c 0,59,60
 466 390 466 390 445.5 415 c 128,-1,61
 425 440 425 440 391 440 c 0,62,63
 352 440 352 440 325.5 405.5 c 128,-1,64
 299 371 299 371 299 326 c 0,53,54
EndSplineSet
EndChar

StartChar: A
Encoding: 65 65 34
Width: 628
Flags: W
HStem: 0 21G<25 146.733 454.667 584> 150 100<210 392> 680 20G<212.486 396.514>
DStem2: 25 0 141 0 0.265797 0.964029<30.8324 186.866 290.18 644.597> 391 700 303 592 0.265797 -0.964029<80.725 434.079 537.924 693.16>
LayerCount: 3
Back
SplineSet
460 0 m 1
 418 152 l 1
 184 152 l 1
 141 0 l 1
 25 0 l 1
 230 700 l 1
 391 700 l 1
 590 0 l 1
 460 0 l 1
303 592 m 1
 210 248 l 1
 392 248 l 1
 303 592 l 1
EndSplineSet
Fore
SplineSet
460 0 m 1
 420 150 l 1
 184 150 l 1
 141 0 l 1
 25 0 l 1
 218 700 l 1
 391 700 l 1
 584 0 l 1
 460 0 l 1
303 592 m 1
 210 250 l 1
 392 250 l 1
 303 592 l 1
EndSplineSet
Validated: 1
Layer: 2
SplineSet
460 0 m 1,0,-1
 420 150 l 1,1,-1
 184 150 l 1,2,-1
 141 0 l 1,3,-1
 25 0 l 1,4,-1
 218 700 l 1,5,-1
 391 700 l 1,6,-1
 584 0 l 1,7,-1
 460 0 l 1,0,-1
303 592 m 1,8,-1
 210 250 l 1,9,-1
 392 250 l 1,10,-1
 303 592 l 1,8,-1
EndSplineSet
EndChar

StartChar: B
Encoding: 66 66 35
Width: 646
Flags: W
HStem: 0 100<201 429.219> 311 100<201 420.328> 600 100<201 425.011>
VStem: 83 118<100 311 411 600> 458 118<447.079 569.616> 472 118<139.477 271.142>
LayerCount: 3
Back
SplineSet
527 37 m 0xf4
 483 2 425 0 365 0 c 2
 83 0 l 1
 83 700 l 1
 365 700 l 2
 414 700 466 701 510 670 c 0
 558 637 582 589 582 526 c 0xf8
 582 454 535 389 457 366 c 1
 455 357 l 1
 544 337 601 265 601 179 c 0
 601 123 570 72 527 37 c 0xf4
415 595 m 0
 388 612 346 608 316 608 c 2
 202 608 l 1
 202 406 l 1
 328 406 l 2
 360 406 394 405 422 428 c 0
 446 448 458 480 458 512 c 0
 458 544 445 577 415 595 c 0
425 299 m 0
 400 316 365 316 337 316 c 2
 202 316 l 1
 202 97 l 1
 330 97 l 2
 363 97 400 97 429 117 c 0
 457 136 472 173 472 210 c 0xf4
 472 245 454 281 425 299 c 0
EndSplineSet
Fore
SplineSet
365 0 m 2xf4
 83 0 l 1
 83 700 l 1
 365 700 l 2
 525 700 576 621 576 526 c 0xf8
 576 454 535 389 457 366 c 1
 455 357 l 1
 544 337 590 265 590 179 c 0
 590 107 555 0 365 0 c 2xf4
316 600 m 2
 201 600 l 1
 201 411 l 1
 328 411 l 2
 423 411 458 451 458 511 c 0
 458 570 423 600 316 600 c 2
337 311 m 2
 201 311 l 1
 201 100 l 1
 330 100 l 2
 426 100 472 134 472 209 c 0xf4
 472 291 412 311 337 311 c 2
EndSplineSet
Validated: 1
Layer: 2
SplineSet
365 0 m 2,0,-1
 83 0 l 1,1,-1
 83 700 l 1,2,-1
 365 700 l 2,3,4
 477 700 477 700 526.5 652.5 c 128,-1,5
 576 605 576 605 576 526 c 0,6,7
 576 470 576 470 545 426.5 c 128,-1,8
 514 383 514 383 457 366 c 1,9,-1
 455 357 l 1,10,11
 520 342 520 342 555 294 c 128,-1,12
 590 246 590 246 590 179 c 0,13,14
 590 148 590 148 581 120 c 128,-1,15
 572 92 572 92 549.5 63 c 128,-1,16
 527 34 527 34 479.5 17 c 128,-1,17
 432 0 432 0 365 0 c 2,0,-1
316 600 m 2,18,-1
 201 600 l 1,19,-1
 201 411 l 1,20,-1
 328 411 l 2,21,22
 458 411 458 411 458 511 c 0,23,24
 458 557 458 557 426 578.5 c 128,-1,25
 394 600 394 600 316 600 c 2,18,-1
337 311 m 2,26,-1
 201 311 l 1,27,-1
 201 100 l 1,28,-1
 330 100 l 2,29,30
 472 100 472 100 472 209 c 0,31,32
 472 266 472 266 436 288.5 c 128,-1,33
 400 311 400 311 337 311 c 2,26,-1
EndSplineSet
EndChar

StartChar: C
Encoding: 67 67 36
Width: 646
Flags: W
HStem: -5 100<268.436 404.472> 616 100<265.313 400.614>
VStem: 51 118<225.467 478.218> 478 117<174.826 227.479>
LayerCount: 3
Back
SplineSet
339 -3 m 0
 152 -3 51 161 51 357 c 0
 51 555 155 716 343 716 c 0
 495 716 573 627 595 471 c 1
 469 461 l 1
 464 538 432 615 339 615 c 0
 225 615 189 446 189 349 c 0
 189 238 232 97 346 97 c 0
 428 97 466 167 478 235 c 1
 595 227 l 1
 573 80 478 -3 339 -3 c 0
EndSplineSet
Fore
SplineSet
329 -5 m 0
 142 -5 51 161 51 357 c 0
 51 555 145 716 333 716 c 0
 485 716 573 627 595 471 c 1
 469 461 l 1
 464 538 422 616 329 616 c 0
 215 616 169 446 169 349 c 0
 169 238 222 95 336 95 c 0
 418 95 466 167 478 235 c 1
 595 227 l 1
 573 80 468 -5 329 -5 c 0
EndSplineSet
Validated: 1
Layer: 2
SplineSet
329 -5 m 0,0,1
 195 -5 195 -5 123 98 c 128,-1,2
 51 201 51 201 51 357 c 256,3,4
 51 513 51 513 124.5 614.5 c 128,-1,5
 198 716 198 716 333 716 c 0,6,7
 446 716 446 716 512 652.5 c 128,-1,8
 578 589 578 589 595 471 c 1,9,-1
 469 461 l 1,10,11
 465 525 465 525 429.5 570.5 c 128,-1,12
 394 616 394 616 329 616 c 0,13,14
 276 616 276 616 237.5 568 c 128,-1,15
 199 520 199 520 184 461.5 c 128,-1,16
 169 403 169 403 169 349 c 0,17,18
 169 290 169 290 186 234 c 128,-1,19
 203 178 203 178 242.5 136.5 c 128,-1,20
 282 95 282 95 336 95 c 0,21,22
 393 95 393 95 430.5 136.5 c 128,-1,23
 468 178 468 178 478 235 c 1,24,-1
 595 227 l 1,25,26
 579 118 579 118 507 56.5 c 128,-1,27
 435 -5 435 -5 329 -5 c 0,0,1
EndSplineSet
EndChar

StartChar: D
Encoding: 68 68 37
Width: 646
Flags: W
HStem: 0 100<173 361.863> 600 100<173 369.043>
VStem: 55 118<100 600> 475 118<226.181 483.571>
LayerCount: 3
Back
SplineSet
510 97 m 0
 449 22 351 0 259 0 c 2
 55 0 l 1
 55 700 l 1
 233 700 l 2
 330 700 429 692 497 621 c 0
 564 551 593 455 593 353 c 0
 593 258 567 166 510 97 c 0
415 536 m 0
 374 595 305 592 248 592 c 2
 176 592 l 1
 176 106 l 1
 247 106 l 2
 316 106 388 115 428 187 c 0
 457 239 469 299 469 357 c 0
 469 420 452 485 415 536 c 0
EndSplineSet
Fore
SplineSet
259 0 m 2
 55 0 l 1
 55 700 l 1
 233 700 l 2
 447 700 593 615 593 353 c 0
 593 105 453 0 259 0 c 2
248 600 m 2
 173 600 l 1
 173 100 l 1
 247 100 l 2
 355 100 475 136 475 358 c 0
 475 569 360 600 248 600 c 2
EndSplineSet
Validated: 1
Layer: 2
SplineSet
259 0 m 2,0,-1
 55 0 l 1,1,-1
 55 700 l 1,2,-1
 233 700 l 2,3,4
 405 700 405 700 499 620 c 128,-1,5
 593 540 593 540 593 353 c 0,6,7
 593 175 593 175 502.5 87.5 c 128,-1,8
 412 0 412 0 259 0 c 2,0,-1
248 600 m 2,9,-1
 173 600 l 1,10,-1
 173 100 l 1,11,-1
 247 100 l 2,12,13
 293 100 293 100 329 109.5 c 128,-1,14
 365 119 365 119 400.5 145 c 128,-1,15
 436 171 436 171 455.5 225 c 128,-1,16
 475 279 475 279 475 358 c 0,17,18
 475 419 475 419 461.5 464 c 128,-1,19
 448 509 448 509 427.5 534.5 c 128,-1,20
 407 560 407 560 376 575.5 c 128,-1,21
 345 591 345 591 315.5 595.5 c 128,-1,22
 286 600 286 600 248 600 c 2,9,-1
EndSplineSet
EndChar

StartChar: E
Encoding: 69 69 38
Width: 568
Flags: W
HStem: 0 100<198 523> 293 100<198 454> 600 100<198 523>
VStem: 80 118<100 293 393 600>
LayerCount: 3
Back
SplineSet
80 0 m 1
 80 700 l 1
 523 700 l 1
 523 599 l 1
 199 599 l 1
 199 392 l 1
 454 392 l 1
 454 294 l 1
 199 294 l 1
 199 93 l 1
 523 93 l 1
 523 0 l 1
 80 0 l 1
EndSplineSet
Fore
SplineSet
80 0 m 1
 80 700 l 1
 523 700 l 1
 523 600 l 1
 198 600 l 1
 198 393 l 1
 454 393 l 1
 454 293 l 1
 198 293 l 1
 198 100 l 1
 523 100 l 1
 523 0 l 1
 80 0 l 1
EndSplineSet
Validated: 1
Layer: 2
SplineSet
80 0 m 1,0,-1
 80 700 l 1,1,-1
 523 700 l 1,2,-1
 523 600 l 1,3,-1
 198 600 l 1,4,-1
 198 393 l 1,5,-1
 454 393 l 1,6,-1
 454 293 l 1,7,-1
 198 293 l 1,8,-1
 198 100 l 1,9,-1
 523 100 l 1,10,-1
 523 0 l 1,11,-1
 80 0 l 1,0,-1
EndSplineSet
EndChar

StartChar: F
Encoding: 70 70 39
Width: 530
Flags: W
HStem: 0 21G<80 198> 293 100<198 454> 600 100<198 520>
VStem: 80 118<0 293 393 600>
LayerCount: 3
Back
SplineSet
198 595 m 1
 198 392 l 1
 454 392 l 1
 454 288 l 1
 198 288 l 1
 198 0 l 1
 78 0 l 1
 78 700 l 1
 520 700 l 1
 520 595 l 1
 198 595 l 1
EndSplineSet
Fore
SplineSet
198 600 m 1
 198 393 l 1
 454 393 l 1
 454 293 l 1
 198 293 l 1
 198 0 l 1
 80 0 l 1
 80 700 l 1
 520 700 l 1
 520 600 l 1
 198 600 l 1
EndSplineSet
Validated: 1
Layer: 2
SplineSet
198 600 m 1,0,-1
 198 393 l 1,1,-1
 454 393 l 1,2,-1
 454 293 l 1,3,-1
 198 293 l 1,4,-1
 198 0 l 1,5,-1
 80 0 l 1,6,-1
 80 700 l 1,7,-1
 520 700 l 1,8,-1
 520 600 l 1,9,-1
 198 600 l 1,0,-1
EndSplineSet
EndChar

StartChar: G
Encoding: 71 71 40
Width: 646
Flags: W
HStem: -5 100<276.499 426.525> 261 100<356 481> 616 100<273.87 414.415>
VStem: 37 118<240.736 461.835> 481 118<0 55 156.062 261 495.938 550.836>
LayerCount: 3
Back
SplineSet
495 0 m 1xf4
 495 75 l 1xf4
 469 5 406 -6 334 -6 c 0
 152 -6 31 155 31 346 c 0
 31 541 135 711 349 711 c 0
 480 711 575 632 599 497 c 1
 487 480 l 1
 475 552 423 615 345 615 c 0
 213 615 155 445 155 342 c 0
 155 250 222 92 353 92 c 0
 434 92 481 149 481 261 c 1xf8
 356 261 l 1
 356 357 l 1
 595 357 l 1
 595 0 l 1
 495 0 l 1xf4
EndSplineSet
Fore
SplineSet
481 0 m 1
 481 55 l 1
 448 5 406 -5 334 -5 c 0
 152 -5 37 155 37 346 c 0
 37 541 135 716 349 716 c 0
 480 716 575 632 599 497 c 1
 487 480 l 1
 475 552 423 616 345 616 c 0
 213 616 155 445 155 342 c 0
 155 250 222 95 353 95 c 0
 434 95 481 149 481 261 c 1
 356 261 l 1
 356 361 l 1
 599 361 l 1
 599 0 l 1
 481 0 l 1
EndSplineSet
Validated: 1
Layer: 2
SplineSet
481 0 m 1,0,-1
 481 55 l 1,1,2
 457 19 457 19 424.5 7 c 128,-1,3
 392 -5 392 -5 334 -5 c 0,4,5
 201 -5 201 -5 119 96.5 c 128,-1,6
 37 198 37 198 37 346 c 0,7,8
 37 421 37 421 56 486.5 c 128,-1,9
 75 552 75 552 112 604 c 128,-1,10
 149 656 149 656 210 686 c 128,-1,11
 271 716 271 716 349 716 c 0,12,13
 447 716 447 716 514 657 c 128,-1,14
 581 598 581 598 599 497 c 1,15,-1
 487 480 l 1,16,17
 477 537 477 537 439 576.5 c 128,-1,18
 401 616 401 616 345 616 c 0,19,20
 298 616 298 616 260 588 c 128,-1,21
 222 560 222 560 200 517 c 128,-1,22
 178 474 178 474 166.5 428.5 c 128,-1,23
 155 383 155 383 155 342 c 0,24,25
 155 292 155 292 176 237 c 128,-1,26
 197 182 197 182 244.5 138.5 c 128,-1,27
 292 95 292 95 353 95 c 0,28,29
 481 95 481 95 481 261 c 1,30,-1
 356 261 l 1,31,-1
 356 361 l 1,32,-1
 599 361 l 1,33,-1
 599 0 l 1,34,-1
 481 0 l 1,0,-1
EndSplineSet
EndChar

StartChar: H
Encoding: 72 72 41
Width: 657
Flags: W
HStem: 0 21G<60 178 487 605> 305 100<178 487> 680 20G<60 178 487 605>
VStem: 60 118<0 305 405 700> 487 118<0 305 405 700>
LayerCount: 3
Back
SplineSet
480 0 m 1
 480 305 l 1
 181 305 l 5
 181 0 l 5
 60 0 l 1
 60 700 l 1
 181 700 l 5
 181 412 l 5
 480 412 l 1
 480 700 l 1
 605 700 l 1
 605 0 l 1
 480 0 l 1
EndSplineSet
Fore
SplineSet
487 0 m 1
 487 305 l 1
 178 305 l 1
 178 0 l 1
 60 0 l 1
 60 700 l 1
 178 700 l 1
 178 405 l 1
 487 405 l 1
 487 700 l 1
 605 700 l 1
 605 0 l 1
 487 0 l 1
EndSplineSet
Validated: 1
Layer: 2
SplineSet
487 0 m 1,0,-1
 487 305 l 1,1,-1
 178 305 l 1,2,-1
 178 0 l 1,3,-1
 60 0 l 1,4,-1
 60 700 l 1,5,-1
 178 700 l 1,6,-1
 178 405 l 1,7,-1
 487 405 l 1,8,-1
 487 700 l 1,9,-1
 605 700 l 1,10,-1
 605 0 l 1,11,-1
 487 0 l 1,0,-1
EndSplineSet
EndChar

StartChar: I
Encoding: 73 73 42
Width: 294
Flags: W
HStem: 0 21G<84 202> 680 20G<84 202>
VStem: 84 118<0 700>
LayerCount: 3
Back
SplineSet
83 0 m 1
 83 700 l 1
 202 700 l 1
 202 0 l 1
 83 0 l 1
EndSplineSet
Fore
SplineSet
84 0 m 1
 84 700 l 1
 202 700 l 1
 202 0 l 1
 84 0 l 1
EndSplineSet
Validated: 1
Layer: 2
SplineSet
84 0 m 1,0,-1
 84 700 l 1,1,-1
 202 700 l 1,2,-1
 202 0 l 1,3,-1
 84 0 l 1,0,-1
EndSplineSet
EndChar

StartChar: J
Encoding: 74 74 43
Width: 482
Flags: W
HStem: -5 100<177.466 288.655> 680 20G<327 445>
VStem: 29 118<128.567 274> 327 118<136.706 700>
LayerCount: 3
Back
SplineSet
445 210 m 2
 445 124 387 -3 237 -3 c 0
 82 -3 29 110 29 187 c 2
 29 274 l 1
 146 274 l 1
 146 190 l 2
 146 136 187 106 230 106 c 0
 287 106 326 150 326 231 c 2
 326 700 l 1
 445 700 l 1
 445 210 l 2
EndSplineSet
Fore
SplineSet
445 210 m 2
 445 124 387 -5 237 -5 c 0
 82 -5 29 110 29 187 c 2
 29 274 l 1
 147 274 l 1
 147 187 l 2
 147 133 188 95 231 95 c 0
 288 95 327 141 327 222 c 2
 327 700 l 1
 445 700 l 1
 445 210 l 2
EndSplineSet
Validated: 1
Layer: 2
SplineSet
445 210 m 2,0,1
 445 176 445 176 433 140 c 128,-1,2
 421 104 421 104 397.5 70.5 c 128,-1,3
 374 37 374 37 332 16 c 128,-1,4
 290 -5 290 -5 237 -5 c 0,5,6
 182 -5 182 -5 139.5 14 c 128,-1,7
 97 33 97 33 74 62.5 c 128,-1,8
 51 92 51 92 40 124 c 128,-1,9
 29 156 29 156 29 187 c 2,10,-1
 29 274 l 1,11,-1
 147 274 l 1,12,-1
 147 187 l 2,13,14
 147 148 147 148 172.5 121.5 c 128,-1,15
 198 95 198 95 231 95 c 0,16,17
 275 95 275 95 301 128.5 c 128,-1,18
 327 162 327 162 327 222 c 2,19,-1
 327 700 l 1,20,-1
 445 700 l 1,21,-1
 445 210 l 2,0,1
EndSplineSet
EndChar

StartChar: K
Encoding: 75 75 44
Width: 628
Flags: W
HStem: 0 21G<80 198 449.534 593> 680 20G<80 198 421.676 561>
VStem: 80 118<0 130 317 700>
DStem2: 198 317 320 326 0.537163 0.843479<0 73.1252 213.791 449.823> 406 438 320 326 0.392652 -0.919687<69.2369 423.241>
LayerCount: 3
Back
SplineSet
458 0 m 1
 320 326 l 1
 198 130 l 1
 198 0 l 1
 83 0 l 5
 83 700 l 5
 198 700 l 1
 198 317 l 1
 434 700 l 1
 434 700 541 700 561 700 c 1
 406 438 l 1
 593 0 l 1
 458 0 l 1
EndSplineSet
Fore
SplineSet
458 0 m 1
 320 326 l 1
 198 130 l 1
 198 0 l 1
 80 0 l 1
 80 700 l 1
 198 700 l 1
 198 317 l 1
 434 700 l 1
 561 700 l 1
 406 438 l 1
 593 0 l 1
 458 0 l 1
EndSplineSet
Validated: 1
Layer: 2
SplineSet
458 0 m 1,0,-1
 320 326 l 1,1,-1
 198 130 l 1,2,-1
 198 0 l 1,3,-1
 80 0 l 1,4,-1
 80 700 l 1,5,-1
 198 700 l 1,6,-1
 198 317 l 1,7,-1
 434 700 l 1,8,-1
 561 700 l 1,9,-1
 406 438 l 1,10,-1
 593 0 l 1,11,-1
 458 0 l 1,0,-1
EndSplineSet
EndChar

StartChar: L
Encoding: 76 76 45
Width: 490
Flags: W
HStem: 0 100<193 466> 680 20G<75 193>
VStem: 75 118<100 700>
LayerCount: 3
Back
SplineSet
75 0 m 1
 75 700 l 1
 196 700 l 5
 196 107 l 5
 466 107 l 1
 466 0 l 1
 75 0 l 1
EndSplineSet
Fore
SplineSet
75 0 m 1
 75 700 l 1
 193 700 l 1
 193 100 l 1
 466 100 l 1
 466 0 l 1
 75 0 l 1
EndSplineSet
Validated: 1
Layer: 2
SplineSet
75 0 m 1,0,-1
 75 700 l 1,1,-1
 193 700 l 1,2,-1
 193 100 l 1,3,-1
 466 100 l 1,4,-1
 466 0 l 1,5,-1
 75 0 l 1,0,-1
EndSplineSet
EndChar

StartChar: M
Encoding: 77 77 46
Width: 862
Flags: W
HStem: 0 21G<80 198 380.533 470.567 659 777> 600 100<198 222 632 659>
VStem: 80 118<0 600> 659 118<0 600>
DStem2: 294 700 222 600 0.263662 -0.964615<77.4779 512.288> 426 205 465 0 0.268141 0.96338<0 435.772>
LayerCount: 3
Back
SplineSet
658 0 m 1
 658 603 l 1
 621 603 l 1
 454 0 l 1
 374 0 l 1
 210 603 l 1
 176 603 l 1
 176 0 l 1
 80 0 l 1
 80 700 l 1
 294 700 l 1
 426 205 l 1
 563 700 l 1
 777 700 l 1
 777 0 l 1
 658 0 l 1
EndSplineSet
Fore
SplineSet
659 0 m 1
 659 600 l 1
 632 600 l 1
 465 0 l 1
 386 0 l 1
 222 600 l 1
 198 600 l 1
 198 0 l 1
 80 0 l 1
 80 700 l 1
 294 700 l 1
 426 205 l 1
 563 700 l 1
 777 700 l 1
 777 0 l 1
 659 0 l 1
EndSplineSet
Validated: 1
Layer: 2
SplineSet
659 0 m 1,0,-1
 659 600 l 1,1,-1
 632 600 l 1,2,-1
 465 0 l 1,3,-1
 386 0 l 1,4,-1
 222 600 l 1,5,-1
 198 600 l 1,6,-1
 198 0 l 1,7,-1
 80 0 l 1,8,-1
 80 700 l 1,9,-1
 294 700 l 1,10,-1
 426 205 l 1,11,-1
 563 700 l 1,12,-1
 777 700 l 1,13,-1
 777 0 l 1,14,-1
 659 0 l 1,0,-1
EndSplineSet
EndChar

StartChar: N
Encoding: 78 78 47
Width: 646
Flags: W
HStem: 0 21G<80 198 445.21 561> 680 20G<80 228.593 443 561>
VStem: 80 118<0 525> 443 118<233 700>
DStem2: 219 700 198 525 0.43967 -0.898159<147.945 517.927>
LayerCount: 3
Back
SplineSet
455 0 m 1
 198 525 l 1
 164 525 l 1
 164 0 l 1
 80 0 l 1
 80 700 l 1
 219 700 l 1
 445 233 l 1
 475 233 l 1
 475 700 l 1
 561 700 l 1
 561 0 l 1
 455 0 l 1
EndSplineSet
Fore
SplineSet
455 0 m 1
 198 525 l 1
 198 0 l 1
 80 0 l 1
 80 700 l 1
 219 700 l 1
 443 233 l 1
 443 700 l 1
 561 700 l 1
 561 0 l 1
 455 0 l 1
EndSplineSet
Validated: 1
Layer: 2
SplineSet
455 0 m 1,0,-1
 198 525 l 1,1,-1
 198 0 l 1,2,-1
 80 0 l 1,3,-1
 80 700 l 1,4,-1
 219 700 l 1,5,-1
 443 233 l 1,6,-1
 443 700 l 1,7,-1
 561 700 l 1,8,-1
 561 0 l 1,9,-1
 455 0 l 1,0,-1
EndSplineSet
EndChar

StartChar: O
Encoding: 79 79 48
Width: 646
Flags: W
HStem: -5 100<250.597 385.403> 616 100<248.599 387.401>
VStem: 38 118<226.494 498.39> 480 118<226.494 498.39>
LayerCount: 3
Back
SplineSet
320 -3 m 0
 122 -3 32 175 32 365 c 0
 32 536 125 716 329 716 c 0
 550 716 599 526 599 359 c 0
 599 175 515 -3 320 -3 c 0
325 616 m 0
 210 616 161 470 161 357 c 0
 161 254 204 101 326 101 c 0
 438 101 480 236 480 357 c 0
 480 479 451 616 325 616 c 0
EndSplineSet
Fore
SplineSet
318 -5 m 0
 120 -5 38 175 38 365 c 0
 38 536 120 716 318 716 c 0
 516 716 598 536 598 365 c 0
 598 175 516 -5 318 -5 c 0
318 616 m 0
 203 616 156 485 156 365 c 0
 156 243 203 95 318 95 c 0
 433 95 480 243 480 365 c 0
 480 485 433 616 318 616 c 0
EndSplineSet
Validated: 1
Layer: 2
SplineSet
318 -5 m 256,0,1
 246 -5 246 -5 191 25.5 c 128,-1,2
 136 56 136 56 103.5 109 c 128,-1,3
 71 162 71 162 54.5 226.5 c 128,-1,4
 38 291 38 291 38 365 c 0,5,6
 38 432 38 432 54.5 492.5 c 128,-1,7
 71 553 71 553 103.5 604 c 128,-1,8
 136 655 136 655 191.5 685.5 c 128,-1,9
 247 716 247 716 318 716 c 256,10,11
 389 716 389 716 444.5 685.5 c 128,-1,12
 500 655 500 655 532.5 604 c 128,-1,13
 565 553 565 553 581.5 492.5 c 128,-1,14
 598 432 598 432 598 365 c 0,15,16
 598 291 598 291 581.5 226.5 c 128,-1,17
 565 162 565 162 532.5 109 c 128,-1,18
 500 56 500 56 445 25.5 c 128,-1,19
 390 -5 390 -5 318 -5 c 256,0,1
318 616 m 256,20,21
 238 616 238 616 197 541 c 128,-1,22
 156 466 156 466 156 365 c 0,23,24
 156 299 156 299 171.5 240 c 128,-1,25
 187 181 187 181 225.5 138 c 128,-1,26
 264 95 264 95 318 95 c 256,27,28
 372 95 372 95 410.5 138 c 128,-1,29
 449 181 449 181 464.5 240 c 128,-1,30
 480 299 480 299 480 365 c 0,31,32
 480 466 480 466 439 541 c 128,-1,33
 398 616 398 616 318 616 c 256,20,21
EndSplineSet
EndChar

StartChar: P
Encoding: 80 80 49
Width: 625
Flags: W
HStem: 0 21G<63 181> 272 100<181 397.38> 600 100<181 394.293>
VStem: 63 118<0 272 372 600> 448 118<420.26 554.219>
LayerCount: 3
Back
SplineSet
570 494 m 0
 570 384 515 293 423 280 c 0
 392 273 359 275 325 275 c 2
 182 275 l 1
 182 0 l 1
 63 0 l 1
 63 700 l 1
 320 700 l 2
 380 700 438 699 490 661 c 0
 543 621 570 563 570 494 c 0
408 580 m 0
 379 604 345 604 311 604 c 2
 182 604 l 1
 182 368 l 1
 313 368 l 2
 324 368 384 362 420 407 c 0
 440 430 448 459 448 486 c 0
 448 520 435 557 408 580 c 0
EndSplineSet
Fore
SplineSet
566 493 m 0
 566 338 498 272 325 272 c 2
 181 272 l 1
 181 0 l 1
 63 0 l 1
 63 700 l 1
 320 700 l 2
 516 700 566 593 566 493 c 0
311 600 m 2
 181 600 l 1
 181 372 l 1
 313 372 l 2
 390 372 448 412 448 486 c 0
 448 560 396 600 311 600 c 2
EndSplineSet
Validated: 1
Layer: 2
SplineSet
566 493 m 0,0,1
 566 376 566 376 510 324 c 128,-1,2
 454 272 454 272 325 272 c 2,3,-1
 181 272 l 1,4,-1
 181 0 l 1,5,-1
 63 0 l 1,6,-1
 63 700 l 1,7,-1
 320 700 l 2,8,9
 454 700 454 700 510 640.5 c 128,-1,10
 566 581 566 581 566 493 c 0,0,1
311 600 m 2,11,-1
 181 600 l 1,12,-1
 181 372 l 1,13,-1
 313 372 l 2,14,15
 373 372 373 372 410.5 402 c 128,-1,16
 448 432 448 432 448 486 c 0,17,18
 448 541 448 541 411.5 570.5 c 128,-1,19
 375 600 375 600 311 600 c 2,11,-1
EndSplineSet
EndChar

StartChar: Q
Encoding: 81 81 50
Width: 646
Flags: W
HStem: -153 100<473.439 573> -5 100<250.597 383.971> 616 100<248.599 387.401>
VStem: 38 118<226.494 498.39> 480 118<226.686 498.39>
LayerCount: 3
Back
SplineSet
304 -9 m 0
 150 -9 46 161 46 353 c 0
 46 544 141 711 326 711 c 0
 543 711 604 519 604 353 c 0
 604 221 555 94 455 28 c 1
 455 -40 487 -60 526 -60 c 2
 573 -57 l 1
 573 -150 l 1
 561 -152 547 -153 536 -153 c 0
 443 -153 400 -124 386 -2 c 1
 386 -2 324 -9 304 -9 c 0
326 612 m 0
 200 612 175 480 175 353 c 0
 175 250 210 95 333 95 c 0
 461 95 477 248 477 353 c 0
 477 446 450 612 326 612 c 0
EndSplineSet
Fore
SplineSet
318 616 m 0
 203 616 156 485 156 365 c 0
 156 243 203 95 318 95 c 0
 433 95 480 243 480 365 c 0
 480 485 433 616 318 616 c 0
536 -153 m 0
 462 -153 396 -137 385 5 c 1
 364 0 342 -5 318 -5 c 0
 120 -5 38 175 38 365 c 0
 38 536 120 716 318 716 c 0
 516 716 598 536 598 365 c 0
 598 227 555 95 455 33 c 1
 455 -13 469 -53 526 -53 c 1
 573 -50 l 1
 573 -150 l 1
 561 -152 547 -153 536 -153 c 0
EndSplineSet
Validated: 1
Layer: 2
SplineSet
318 616 m 256,0,1
 238 616 238 616 197 541 c 128,-1,2
 156 466 156 466 156 365 c 0,3,4
 156 299 156 299 171.5 240 c 128,-1,5
 187 181 187 181 225.5 138 c 128,-1,6
 264 95 264 95 318 95 c 256,7,8
 372 95 372 95 410.5 138 c 128,-1,9
 449 181 449 181 464.5 240 c 128,-1,10
 480 299 480 299 480 365 c 0,11,12
 480 466 480 466 439 541 c 128,-1,13
 398 616 398 616 318 616 c 256,0,1
536 -153 m 0,14,15
 504 -153 504 -153 482 -148 c 128,-1,16
 460 -143 460 -143 437.5 -127.5 c 128,-1,17
 415 -112 415 -112 402 -79 c 128,-1,18
 389 -46 389 -46 385 5 c 1,19,20
 343 -5 343 -5 318 -5 c 0,21,22
 246 -5 246 -5 191 25.5 c 128,-1,23
 136 56 136 56 103.5 109 c 128,-1,24
 71 162 71 162 54.5 226.5 c 128,-1,25
 38 291 38 291 38 365 c 0,26,27
 38 432 38 432 54.5 492.5 c 128,-1,28
 71 553 71 553 103.5 604 c 128,-1,29
 136 655 136 655 191.5 685.5 c 128,-1,30
 247 716 247 716 318 716 c 256,31,32
 389 716 389 716 444.5 685.5 c 128,-1,33
 500 655 500 655 532.5 604 c 128,-1,34
 565 553 565 553 581.5 492.5 c 128,-1,35
 598 432 598 432 598 365 c 0,36,37
 598 255 598 255 562.5 166 c 128,-1,38
 527 77 527 77 455 33 c 1,39,40
 455 -53 455 -53 526 -53 c 1,41,-1
 573 -50 l 1,42,-1
 573 -150 l 1,43,44
 555 -153 555 -153 536 -153 c 0,14,15
EndSplineSet
EndChar

StartChar: R
Encoding: 82 82 51
Width: 659
Flags: W
HStem: 0 21G<54 172 492.5 630> 291 100<172 449.454> 600 100<172 452.393>
VStem: 54 118<0 291 391 600> 476 118<52.1816 264.316> 487 118<414.812 567.249> 504 126<0 61.5627>
LayerCount: 3
Back
SplineSet
374 700 m 2xf8
 499 700 605 664 605 488 c 0xf4
 605 415 577 393 518 345 c 1
 584 299 594 245 594 195 c 2
 594 130 l 2
 594 95 598 63 630 37 c 1
 630 0 l 1
 506 0 l 1
 483 59 478 80 478 134 c 2
 478 177 l 2
 478 238 468 283 380 283 c 2
 170 283 l 1
 170 0 l 1
 54 0 l 1
 54 700 l 1
 374 700 l 2xf8
398 397 m 2
 447 397 486 406 486 498 c 0
 486 583 427 584 376 584 c 2
 170 584 l 1
 170 397 l 1
 398 397 l 2
EndSplineSet
Fore
SplineSet
374 700 m 2xf8
 499 700 605 664 605 488 c 0xf4
 605 415 577 393 518 345 c 1
 584 299 594 245 594 195 c 2
 594 130 l 2xf8
 594 95 598 63 630 37 c 1
 630 0 l 1
 504 0 l 1xf2
 481 59 476 80 476 134 c 2
 476 177 l 2
 476 238 466 291 378 291 c 2
 172 291 l 1
 172 0 l 1
 54 0 l 1
 54 700 l 1
 374 700 l 2xf8
398 391 m 2
 447 391 487 406 487 498 c 0
 487 583 427 600 376 600 c 2
 172 600 l 1
 172 391 l 1
 398 391 l 2
EndSplineSet
Validated: 1
Layer: 2
SplineSet
374 700 m 2,0,1
 482 700 482 700 543.5 654.5 c 128,-1,2
 605 609 605 609 605 488 c 0,3,4
 605 438 605 438 587.5 412.5 c 128,-1,5
 570 387 570 387 518 345 c 1,6,7
 594 292 594 292 594 195 c 2,8,-1
 594 130 l 2,9,10
 594 66 594 66 630 37 c 1,11,-1
 630 0 l 1,12,-1
 504 0 l 1,13,14
 486 45 486 45 481 69.5 c 128,-1,15
 476 94 476 94 476 134 c 2,16,-1
 476 177 l 2,17,18
 476 232 476 232 457 261.5 c 128,-1,19
 438 291 438 291 378 291 c 2,20,-1
 172 291 l 1,21,-1
 172 0 l 1,22,-1
 54 0 l 1,23,-1
 54 700 l 1,24,-1
 374 700 l 2,0,1
398 391 m 2,25,26
 441 391 441 391 464 413 c 128,-1,27
 487 435 487 435 487 498 c 0,28,29
 487 600 487 600 376 600 c 2,30,-1
 172 600 l 1,31,-1
 172 391 l 1,32,-1
 398 391 l 2,25,26
EndSplineSet
EndChar

StartChar: S
Encoding: 83 83 52
Width: 588
Flags: W
HStem: -5 100<205.892 355.376> 616 100<204.567 349.798>
VStem: 54 118<462.706 584.415> 406 118<138.655 252.927>
LayerCount: 3
Back
SplineSet
54 501 m 0
 54 627 136 713 279 713 c 0
 386 713 471 676 510 572 c 1
 403 535 l 1
 385 579 363 607 288 607 c 0
 236 607 185 588 185 526 c 0
 185 470 204 453 287 435 c 0
 331 425 535 392 535 219 c 0
 535 56 412 -6 274 -6 c 0
 159 -6 60 44 26 162 c 1
 26 162 139 198 147 198 c 1
 172 123 219 104 288 104 c 0
 320 104 406 122 406 189 c 0
 406 270 334 281 279 293 c 0
 158 320 54 357 54 501 c 0
EndSplineSet
Fore
SplineSet
54 502 m 0
 54 628 136 716 279 716 c 0
 386 716 471 677 510 573 c 1
 391 533 l 1
 373 577 350 616 275 616 c 0
 223 616 172 589 172 524 c 0
 172 471 193 442 276 424 c 0
 320 414 524 393 524 220 c 0
 524 57 412 -5 274 -5 c 0
 159 -5 60 45 26 163 c 1
 26 163 139 199 147 199 c 1
 172 124 219 95 288 95 c 0
 320 95 406 123 406 191 c 0
 406 271 334 294 279 306 c 0
 158 333 54 358 54 502 c 0
EndSplineSet
Validated: 1
Layer: 2
SplineSet
54 502 m 0,0,1
 54 598 54 598 114 657 c 128,-1,2
 174 716 174 716 279 716 c 0,3,4
 456 716 456 716 510 573 c 1,5,-1
 391 533 l 1,6,7
 374 573 374 573 350 594.5 c 128,-1,8
 326 616 326 616 275 616 c 0,9,10
 232 616 232 616 202 593 c 128,-1,11
 172 570 172 570 172 524 c 0,12,13
 172 482 172 482 194 459.5 c 128,-1,14
 216 437 216 437 276 424 c 0,15,16
 279 423 279 423 299 419.5 c 128,-1,17
 319 416 319 416 333.5 412.5 c 128,-1,18
 348 409 348 409 373.5 400.5 c 128,-1,19
 399 392 399 392 417 383 c 128,-1,20
 435 374 435 374 456.5 358 c 128,-1,21
 478 342 478 342 491.5 323.5 c 128,-1,22
 505 305 505 305 514.5 278 c 128,-1,23
 524 251 524 251 524 220 c 0,24,25
 524 104 524 104 455 49.5 c 128,-1,26
 386 -5 386 -5 274 -5 c 0,27,28
 183 -5 183 -5 116.5 36.5 c 128,-1,29
 50 78 50 78 26 163 c 1,30,31
 139 199 139 199 147 199 c 1,32,33
 182 95 182 95 288 95 c 0,34,35
 322 95 322 95 364 120.5 c 128,-1,36
 406 146 406 146 406 191 c 0,37,38
 406 244 406 244 370 269 c 128,-1,39
 334 294 334 294 279 306 c 0,40,41
 240 315 240 315 219.5 320.5 c 128,-1,42
 199 326 199 326 168 336.5 c 128,-1,43
 137 347 137 347 120.5 360 c 128,-1,44
 104 373 104 373 86.5 392.5 c 128,-1,45
 69 412 69 412 61.5 439.5 c 128,-1,46
 54 467 54 467 54 502 c 0,0,1
EndSplineSet
EndChar

StartChar: T
Encoding: 84 84 53
Width: 530
Flags: W
HStem: 0 21G<203 321> 600 100<31 203 321 490>
VStem: 203 118<0 600>
LayerCount: 3
Back
SplineSet
322 593 m 1
 322 0 l 1
 202 0 l 1
 202 593 l 1
 31 593 l 1
 31 700 l 1
 490 700 l 1
 490 593 l 1
 322 593 l 1
EndSplineSet
Fore
SplineSet
321 600 m 1
 321 0 l 1
 203 0 l 1
 203 600 l 1
 31 600 l 1
 31 700 l 1
 490 700 l 1
 490 600 l 1
 321 600 l 1
EndSplineSet
Validated: 1
Layer: 2
SplineSet
321 600 m 1,0,-1
 321 0 l 1,1,-1
 203 0 l 1,2,-1
 203 600 l 1,3,-1
 31 600 l 1,4,-1
 31 700 l 1,5,-1
 490 700 l 1,6,-1
 490 600 l 1,7,-1
 321 600 l 1,0,-1
EndSplineSet
EndChar

StartChar: U
Encoding: 85 85 54
Width: 646
Flags: W
HStem: -5 100<236.532 417.725> 680 20G<69 187 468 586>
VStem: 69 118<146.258 700> 468 118<148.593 700>
LayerCount: 3
Back
SplineSet
326 -6 m 0
 159.91 -6 69 60.0596 69 232 c 2
 69 700 l 1
 204 700 l 1
 204 244 l 2
 204 126 254 98 337 98 c 0
 420 98 460 126 460 244 c 2
 460 700 l 1
 586 700 l 1
 586 232 l 2
 586 82 481.18 -6 326 -6 c 0
EndSplineSet
Fore
SplineSet
327 -5 m 0
 167 -5 69 60 69 232 c 2
 69 700 l 1
 187 700 l 1
 187 240 l 2
 187 122 244 95 327 95 c 0
 410 95 468 122 468 240 c 2
 468 700 l 1
 586 700 l 1
 586 232 l 2
 586 82 487 -5 327 -5 c 0
EndSplineSet
Validated: 1
Layer: 2
SplineSet
327 -5 m 0,0,1
 69 -5 69 -5 69 232 c 2,2,-1
 69 700 l 1,3,-1
 187 700 l 1,4,-1
 187 240 l 2,5,6
 187 157 187 157 222.5 126 c 128,-1,7
 258 95 258 95 327 95 c 256,8,9
 396 95 396 95 432 126 c 128,-1,10
 468 157 468 157 468 240 c 2,11,-1
 468 700 l 1,12,-1
 586 700 l 1,13,-1
 586 232 l 2,14,15
 586 120 586 120 517 57.5 c 128,-1,16
 448 -5 448 -5 327 -5 c 0,0,1
EndSplineSet
EndChar

StartChar: V
Encoding: 86 86 55
Width: 588
Flags: W
HStem: 0 21G<216.743 379.257> 680 20G<38 160.948 435.052 558>
DStem2: 156 700 38 700 0.254221 -0.967146<0 591.241> 298 126 374 0 0.254221 0.967146<0 591.241>
LayerCount: 3
Back
SplineSet
374 0 m 1
 222 0 l 1
 31 700 l 1
 161 700 l 1
 303 126 l 1
 445 700 l 1
 558 700 l 1
 374 0 l 1
EndSplineSet
Fore
SplineSet
374 0 m 1
 222 0 l 1
 38 700 l 1
 156 700 l 1
 298 126 l 1
 440 700 l 1
 558 700 l 1
 374 0 l 1
EndSplineSet
Validated: 1
Layer: 2
SplineSet
374 0 m 1,0,-1
 222 0 l 1,1,-1
 38 700 l 1,2,-1
 156 700 l 1,3,-1
 298 126 l 1,4,-1
 440 700 l 1,5,-1
 558 700 l 1,6,-1
 374 0 l 1,0,-1
EndSplineSet
EndChar

StartChar: W
Encoding: 87 87 56
Width: 882
Flags: W
HStem: 0 21G<185.314 329.471 556.529 700.686> 680 20G<26 148.418 378.301 507.699 737.582 860>
DStem2: 144 700 26 700 0.228109 -0.973636<0 509.963> 266 202 325 0 0.218168 0.975911<0 329.104> 503 700 449 501 0.218168 -0.975911<182.425 511.529> 632 202 696 0 0.228109 0.973636<0 509.963>
LayerCount: 3
Back
SplineSet
691 0 m 1
 561 0 l 1
 449 501 l 1
 437 501 l 1
 316 0 l 1
 190 0 l 1
 26 700 l 1
 149 700 l 1
 253 202 l 1
 253 202 259 201 268 201 c 1
 383 700 l 1
 503 700 l 1
 619 208 l 1
 632 202 l 1
 745 700 l 1
 852 700 l 1
 691 0 l 1
EndSplineSet
Fore
SplineSet
696 0 m 1
 561 0 l 1
 449 501 l 1
 437 501 l 1
 325 0 l 1
 190 0 l 1
 26 700 l 1
 144 700 l 1
 254 202 l 1
 266 202 l 1
 383 700 l 1
 503 700 l 1
 620 202 l 1
 632 202 l 1
 742 700 l 1
 860 700 l 1
 696 0 l 1
EndSplineSet
Validated: 1
Layer: 2
SplineSet
696 0 m 1,0,-1
 561 0 l 1,1,-1
 449 501 l 1,2,-1
 437 501 l 1,3,-1
 325 0 l 1,4,-1
 190 0 l 1,5,-1
 26 700 l 1,6,-1
 144 700 l 1,7,-1
 254 202 l 1,8,-1
 266 202 l 1,9,-1
 383 700 l 1,10,-1
 503 700 l 1,11,-1
 620 202 l 1,12,-1
 632 202 l 1,13,-1
 742 700 l 1,14,-1
 860 700 l 1,15,-1
 696 0 l 1,0,-1
EndSplineSet
EndChar

StartChar: X
Encoding: 88 88 57
Width: 628
Flags: W
HStem: 0 21G<46 181.129 429.355 579> 680 20G<66 215.711 423.91 559>
DStem2: 46 0 170 0 0.485749 0.874098<60.2329 344.043 559.558 800.825> 205 700 66 700 0.471242 -0.882004<0 239.353 447.204 728.145>
LayerCount: 3
Back
SplineSet
66 700 m 5
 205 700 l 5
 579 0 l 5
 440 0 l 5
 66 700 l 5
559 700 m 5
 170 0 l 5
 46 0 l 5
 435 700 l 5
 559 700 l 5
440 0 m 1xc4
 308 268 l 1
 170 0 l 1
 41 0 l 1xe4
 245 363 l 1
 66 700 l 1
 205 700 l 1
 319 471 l 1
 435 700 l 1
 559 700 l 1xd8
 388 372 l 1
 579 0 l 1
 440 0 l 1xc4
EndSplineSet
Fore
SplineSet
66 700 m 1
 205 700 l 1
 318 489 l 1
 435 700 l 1
 559 700 l 1
 379 375 l 1
 579 0 l 1
 440 0 l 1
 308 248 l 1
 170 0 l 1
 46 0 l 1
 247 361 l 1
 66 700 l 1
EndSplineSet
Validated: 1
Layer: 2
SplineSet
66 700 m 1,0,-1
 205 700 l 1,1,-1
 318 489 l 1,2,-1
 435 700 l 1,3,-1
 559 700 l 1,4,-1
 379 375 l 1,5,-1
 579 0 l 1,6,-1
 440 0 l 1,7,-1
 308 248 l 1,8,-1
 170 0 l 1,9,-1
 46 0 l 1,10,-1
 247 361 l 1,11,-1
 66 700 l 1,0,-1
EndSplineSet
EndChar

StartChar: Y
Encoding: 89 89 58
Width: 588
Flags: W
HStem: 0 21G<236 354> 680 20G<35 185.149 427.638 556>
VStem: 236 118<0 282>
DStem2: 176 700 35 700 0.444558 -0.89575<0 309.949> 305 418 354 282 0.43511 0.900377<0 311.341>
LayerCount: 3
Back
SplineSet
354 282 m 1
 354 0 l 1
 235 0 l 1
 235 297 l 1
 35 700 l 1
 176 700 l 1
 305 418 l 1
 437 700 l 1
 556 700 l 1
 354 282 l 1
EndSplineSet
Fore
SplineSet
354 282 m 1
 354 0 l 1
 236 0 l 1
 236 295 l 1
 35 700 l 1
 176 700 l 1
 305 418 l 1
 437 700 l 1
 556 700 l 1
 354 282 l 1
EndSplineSet
Validated: 1
Layer: 2
SplineSet
354 282 m 1,0,-1
 354 0 l 1,1,-1
 236 0 l 1,2,-1
 236 295 l 1,3,-1
 35 700 l 1,4,-1
 176 700 l 1,5,-1
 305 418 l 1,6,-1
 437 700 l 1,7,-1
 556 700 l 1,8,-1
 354 282 l 1,0,-1
EndSplineSet
EndChar

StartChar: Z
Encoding: 90 90 59
Width: 646
Flags: W
HStem: 0 100<220 593> 600 100<110 446>
DStem2: 86 100 220 100 0.586437 0.809995<78.5825 616.115>
LayerCount: 3
Back
SplineSet
86 0 m 1
 86 100 l 1
 446 600 l 1
 110 600 l 1
 110 700 l 1
 582 700 l 1
 582 600 l 1
 222 102 l 1
 593 102 l 1
 593 0 l 1
 86 0 l 1
EndSplineSet
Fore
SplineSet
86 0 m 1
 86 100 l 1
 446 600 l 1
 110 600 l 1
 110 700 l 1
 582 700 l 1
 582 600 l 1
 220 100 l 1
 593 100 l 1
 593 0 l 1
 86 0 l 1
EndSplineSet
Validated: 1
Layer: 2
SplineSet
86 0 m 1,0,-1
 86 100 l 1,1,-1
 446 600 l 1,2,-1
 110 600 l 1,3,-1
 110 700 l 1,4,-1
 582 700 l 1,5,-1
 582 600 l 1,6,-1
 220 100 l 1,7,-1
 593 100 l 1,8,-1
 593 0 l 1,9,-1
 86 0 l 1,0,-1
EndSplineSet
EndChar

StartChar: bracketleft
Encoding: 91 91 60
Width: 387
Flags: W
HStem: -190 86<205 289> 614 86<205 289>
VStem: 98 191<-190 -104 614 700> 98 107<-104 614>
LayerCount: 3
Back
SplineSet
98 -190 m 1xe0
 98 700 l 1
 274 700 l 1
 274 639 l 1xe0
 176 639 l 1
 176 -130 l 1xd0
 274 -130 l 1
 274 -190 l 1
 98 -190 l 1xe0
EndSplineSet
Fore
SplineSet
98 -190 m 1xe0
 98 700 l 1
 289 700 l 1
 289 614 l 1xe0
 205 614 l 1
 205 -104 l 1xd0
 289 -104 l 1
 289 -190 l 1
 98 -190 l 1xe0
EndSplineSet
Validated: 1
Layer: 2
SplineSet
98 -190 m 1,0,-1
 98 700 l 1,1,-1
 289 700 l 1,2,-1
 289 614 l 1,3,-1
 205 614 l 1,4,-1
 205 -104 l 1,5,-1
 289 -104 l 1,6,-1
 289 -190 l 1,7,-1
 98 -190 l 1,0,-1
EndSplineSet
EndChar

StartChar: backslash
Encoding: 92 92 61
Width: 415
Flags: W
HStem: 0 21G<242.057 360> 680 20G<40 157.943>
VStem: 40 320
DStem2: 152 700 40 700 0.284834 -0.958577<0 698.348>
LayerCount: 3
Back
SplineSet
248 0 m 1
 40 700 l 1
 139 700 l 1
 360 0 l 1
 248 0 l 1
EndSplineSet
Fore
SplineSet
248 0 m 1
 40 700 l 1
 152 700 l 1
 360 0 l 1
 248 0 l 1
EndSplineSet
Validated: 1
Layer: 2
SplineSet
248 0 m 1,0,-1
 40 700 l 1,1,-1
 152 700 l 1,2,-1
 360 0 l 1,3,-1
 248 0 l 1,0,-1
EndSplineSet
EndChar

StartChar: bracketright
Encoding: 93 93 62
Width: 387
Flags: W
HStem: -201 86<98 182> 614 86<98 182>
VStem: 98 191<-201 -115 614 700> 182 107<-115 614>
LayerCount: 3
Back
SplineSet
98 -201 m 1xe0
 98 -133 l 1xe0
 196 -133 l 1
 196 633 l 1xd0
 98 633 l 1
 98 700 l 1
 274 700 l 1
 274 -201 l 1
 98 -201 l 1xe0
EndSplineSet
Fore
SplineSet
98 -201 m 1xe0
 98 -115 l 1xe0
 182 -115 l 1
 182 614 l 1xd0
 98 614 l 1
 98 700 l 1
 289 700 l 1
 289 -201 l 1
 98 -201 l 1xe0
EndSplineSet
Validated: 1
Layer: 2
SplineSet
98 -201 m 1,0,-1
 98 -115 l 1,1,-1
 182 -115 l 1,2,-1
 182 614 l 1,3,-1
 98 614 l 1,4,-1
 98 700 l 1,5,-1
 289 700 l 1,6,-1
 289 -201 l 1,7,-1
 98 -201 l 1,0,-1
EndSplineSet
EndChar

StartChar: asciicircum
Encoding: 94 94 63
Width: 588
Flags: W
HStem: 696 20G<219.086 366.053>
DStem2: 77 285 184 285 0.326734 0.945116<34.9605 360.725> 359 716 293 592 0.332591 -0.943071<94.9898 421.43>
LayerCount: 3
Back
SplineSet
422 285 m 1
 293 642 l 1
 166 285 l 1
 95 285 l 1
 244 704 l 1
 340 704 l 1
 492 285 l 1
 422 285 l 1
EndSplineSet
Fore
SplineSet
293 592 m 1
 184 285 l 1
 77 285 l 1
 226 716 l 1
 359 716 l 1
 511 285 l 1
 404 285 l 1
 293 592 l 1
EndSplineSet
Validated: 1
Layer: 2
SplineSet
293 592 m 1,0,-1
 184 285 l 1,1,-1
 77 285 l 1,2,-1
 226 716 l 1,3,-1
 359 716 l 1,4,-1
 511 285 l 1,5,-1
 404 285 l 1,6,-1
 293 592 l 1,0,-1
EndSplineSet
EndChar

StartChar: underscore
Encoding: 95 95 64
Width: 556
VWidth: 2048
Flags: W
HStem: -199 64<-15 569>
LayerCount: 3
Fore
SplineSet
-15 -199 m 1
 -15 -135 l 1
 569 -135 l 1
 569 -199 l 1
 -15 -199 l 1
EndSplineSet
Validated: 1
Layer: 2
SplineSet
-15 -199 m 1,0,-1
 -15 -135 l 1,1,-1
 569 -135 l 1,2,-1
 569 -199 l 1,3,-1
 -15 -199 l 1,0,-1
EndSplineSet
EndChar

StartChar: grave
Encoding: 96 96 65
Width: 372
Flags: W
HStem: 592 206
VStem: 64 246
LayerCount: 3
Back
SplineSet
274 619 m 1
 87 691 l 1
 104 768 l 1
 287 671 l 1
 274 619 l 1
EndSplineSet
Fore
SplineSet
288 592 m 1
 64 679 l 1
 90 798 l 1
 310 681 l 1
 288 592 l 1
EndSplineSet
Validated: 1
Layer: 2
SplineSet
288 592 m 1,0,-1
 64 679 l 1,1,-1
 90 798 l 1,2,-1
 310 681 l 1,3,-1
 288 592 l 1,0,-1
EndSplineSet
EndChar

StartChar: a
Encoding: 97 97 66
Width: 536
Flags: W
HStem: -5 86<175.509 312.39 477.408 523> 238 86<221.144 357> 440 86<194.473 331.547>
VStem: 48 107<101.615 191.678> 66 98<368 408.955> 357 107<128.352 238 321.166 414.559>
LayerCount: 3
Back
SplineSet
48 130 m 0xba
 48 315 280 311 357 319 c 1
 357 340 l 2
 357 371 357 395 339 420 c 0
 322 445 291 452 267 452 c 0
 221 452 175 434 164 380 c 1
 66 380 l 1
 81 487 172 526 282 526 c 0
 359 526 392 510 428 478 c 0
 461 449 464 412 464 369 c 2
 464 124 l 2
 464 63 520 61 523 61 c 1
 523 0 l 1
 505 0 l 2x76
 478 0 428 3 411 26 c 0
 389 54 385 69 385 69 c 1
 350 1 286 -5 227 -5 c 2
 187 -5 l 2
 104 -5 48 40 48 130 c 0xba
357 250 m 1
 274 241 164 236 164 147 c 0
 164 92 192 69 244 69 c 0xba
 281 69 316 92 336 126 c 0
 357 164 357 182 357 225 c 2
 357 250 l 1
EndSplineSet
Fore
SplineSet
48 130 m 0xf4
 48 315 280 311 357 324 c 1
 357 345 l 2
 357 408 330 440 267 440 c 0
 221 440 175 422 164 368 c 1
 66 368 l 1xec
 81 487 172 526 282 526 c 0
 423 526 464 463 464 369 c 2
 464 144 l 2
 464 83 520 81 523 81 c 1
 523 -5 l 1
 505 -5 l 2
 424 -5 405 23 385 69 c 1
 350 1 286 -5 227 -5 c 2
 187 -5 l 2
 104 -5 48 40 48 130 c 0xf4
357 238 m 1
 274 229 155 224 155 147 c 0xf4
 155 104 192 81 244 81 c 0
 304 81 357 120 357 213 c 2
 357 238 l 1
EndSplineSet
Validated: 1
Layer: 2
SplineSet
48 130 m 0,0,1
 48 174 48 174 66.5 207.5 c 128,-1,2
 85 241 85 241 110 259.5 c 128,-1,3
 135 278 135 278 174.5 291.5 c 128,-1,4
 214 305 214 305 241.5 309 c 128,-1,5
 269 313 269 313 308.5 317.5 c 128,-1,6
 348 322 348 322 357 324 c 1,7,-1
 357 345 l 2,8,9
 357 440 357 440 267 440 c 0,10,11
 179 440 179 440 164 368 c 1,12,-1
 66 368 l 1,13,14
 86 526 86 526 282 526 c 0,15,16
 382 526 382 526 423 485.5 c 128,-1,17
 464 445 464 445 464 369 c 2,18,-1
 464 144 l 2,19,20
 464 117 464 117 479.5 101 c 128,-1,21
 495 85 495 85 505.5 83 c 128,-1,22
 516 81 516 81 523 81 c 1,23,-1
 523 -5 l 1,24,-1
 505 -5 l 2,25,26
 449 -5 449 -5 425.5 12 c 128,-1,27
 402 29 402 29 385 69 c 1,28,29
 361 23 361 23 322 9 c 128,-1,30
 283 -5 283 -5 227 -5 c 2,31,-1
 187 -5 l 2,32,33
 123 -5 123 -5 85.5 29.5 c 128,-1,34
 48 64 48 64 48 130 c 0,0,1
357 238 m 1,35,36
 250.130507432 226.41174177 250.130507432 226.41174177 218.994471519 216.154175333 c 0,37,38
 155 195.071608979 155 195.071608979 155 147 c 0,39,40
 155 116 155 116 179.5 98.5 c 128,-1,41
 204 81 204 81 244 81 c 0,42,43
 293 81 293 81 325 114 c 128,-1,44
 357 147 357 147 357 213 c 2,45,-1
 357 238 l 1,35,36
EndSplineSet
EndChar

StartChar: b
Encoding: 98 98 67
Width: 541
Flags: W
HStem: -5 86<204.162 329.299> 440 86<209.947 331.119> 680 20G<63 170>
VStem: 63 107<0 39 118.051 395.463 466 700> 399 107<164.418 356.914>
LayerCount: 3
Back
SplineSet
310 -3 m 0xf4
 245 -3 182 6 162 49 c 1
 162 0 l 1
 63 0 l 1xec
 63 700 l 1
 170 700 l 1
 170 468 l 1
 176 466 l 1
 198 515 252 525 303 525 c 0
 452 525 512 392 512 256 c 0
 512 113 443 -3 310 -3 c 0xf4
271 435 m 0
 190 435 172 359 172 290 c 2
 172 212 l 2
 172 125 197.56 66 268 66 c 0
 360 66 399 187 399 256 c 0
 399 325 362 435 271 435 c 0
EndSplineSet
Fore
SplineSet
310 -5 m 0
 245 -5 190 6 170 39 c 1
 170 0 l 1
 63 0 l 1
 63 700 l 1
 170 700 l 1
 170 622 170 544 170 466 c 1
 192 515 252 526 303 526 c 0
 452 526 506 392 506 256 c 0
 506 113 443 -5 310 -5 c 0
271 440 m 0
 190 440 170 363 170 294 c 2
 170 216 l 2
 170 129 198 81 268 81 c 0
 360 81 399 191 399 260 c 0
 399 329 362 440 271 440 c 0
EndSplineSet
Validated: 1
Layer: 2
SplineSet
310 -5 m 0,0,1
 197 -5 197 -5 170 39 c 1,2,-1
 170 0 l 1,3,-1
 63 0 l 1,4,-1
 63 700 l 1,5,-1
 170 700 l 1,6,7
 170 466 l 1,8,9
 197 526 197 526 303 526 c 0,10,11
 346 526 346 526 381 511 c 128,-1,12
 416 496 416 496 439 470.5 c 128,-1,13
 462 445 462 445 477.5 410 c 128,-1,14
 493 375 493 375 499.5 336.5 c 128,-1,15
 506 298 506 298 506 256 c 0,16,17
 506 142 506 142 455.5 68.5 c 128,-1,18
 405 -5 405 -5 310 -5 c 0,0,1
271 440 m 0,19,20
 216 440 216 440 193 398 c 128,-1,21
 170 356 170 356 170 294 c 2,22,-1
 170 216 l 2,23,24
 170 81 170 81 268 81 c 0,25,26
 311 81 311 81 342 112.5 c 128,-1,27
 373 144 373 144 386 183 c 128,-1,28
 399 222 399 222 399 260 c 256,29,30
 399 298 399 298 386.5 337.5 c 128,-1,31
 374 377 374 377 343.5 408.5 c 128,-1,32
 313 440 313 440 271 440 c 0,19,20
EndSplineSet
EndChar

StartChar: c
Encoding: 99 99 68
Width: 530
Flags: W
HStem: -5 86<216.611 336.081> 440 86<213.568 344.313>
VStem: 46 107<155.904 369.299> 383 104<129.285 178 349 399.664>
LayerCount: 3
Back
SplineSet
279 -4 m 0
 136.5 -4 46 102 46 254 c 0
 46 413 143 526 287 526 c 0
 408 526 468 453 484 349 c 1
 382 349 l 1
 376 396 349 437 291 437 c 0
 199 437 173 350 173 269 c 0
 173 191 192 86 287 86 c 0
 343 86 374 131 383 180 c 1
 487 178 l 1
 469 68 408 -4 279 -4 c 0
EndSplineSet
Fore
SplineSet
269 -5 m 0
 127 -5 46 102 46 254 c 0
 46 413 133 526 277 526 c 0
 398 526 468 453 484 349 c 1
 382 349 l 1
 376 396 339 440 281 440 c 0
 189 440 153 350 153 269 c 0
 153 191 182 81 277 81 c 0
 333 81 374 131 383 180 c 1
 487 178 l 1
 469 68 398 -5 269 -5 c 0
EndSplineSet
Validated: 1
Layer: 2
SplineSet
269 -5 m 0,0,1
 164 -5 164 -5 105 66.5 c 128,-1,2
 46 138 46 138 46 254 c 0,3,4
 46 375 46 375 108.5 450.5 c 128,-1,5
 171 526 171 526 277 526 c 0,6,7
 365 526 365 526 418.5 478 c 128,-1,8
 472 430 472 430 484 349 c 1,9,-1
 382 349 l 1,10,11
 377 386 377 386 350 413 c 128,-1,12
 323 440 323 440 281 440 c 0,13,14
 217 440 217 440 185 389 c 128,-1,15
 153 338 153 338 153 269 c 0,16,17
 153 237 153 237 159.5 206 c 128,-1,18
 166 175 166 175 179 146 c 128,-1,19
 192 117 192 117 217.5 99 c 128,-1,20
 243 81 243 81 277 81 c 0,21,22
 317 81 317 81 346.5 111 c 128,-1,23
 376 141 376 141 383 180 c 1,24,-1
 487 178 l 1,25,26
 473 93 473 93 418 44 c 128,-1,27
 363 -5 363 -5 269 -5 c 0,0,1
EndSplineSet
EndChar

StartChar: d
Encoding: 100 100 69
Width: 530
Flags: W
HStem: -5 86<219.89 330.386> 440 86<221.561 330.893> 680 20G<377 484>
VStem: 48 107<163.319 360.45> 377 107<0 46 134.291 382.266 461 700>
LayerCount: 3
Back
SplineSet
383 0 m 1
 383 48 l 1
 374 46 l 1
 353 -1 323 -6 230 -6 c 0
 114 -6 48 115 48 251 c 0
 48 383 109 525 233 525 c 0
 306 525 336 516 377 461 c 1
 377 704 l 1
 484 704 l 1
 484 0 l 1
 383 0 l 1
284 72 m 0
 367 72 377 184 377 213 c 2
 377 284 l 2
 377 290 368 422 291 422 c 0
 198 422 162 320 162 247 c 0
 162 178 202 72 284 72 c 0
EndSplineSet
Fore
SplineSet
377 0 m 1
 377 46 l 1
 348 0 309 -5 230 -5 c 0
 114 -5 48 115 48 251 c 0
 48 383 109 526 233 526 c 0
 306 526 336 516 377 461 c 1
 377 700 l 1
 484 700 l 1
 484 0 l 1
 377 0 l 1
277 81 m 0
 360 81 377 192 377 221 c 2
 377 301 l 2
 377 307 361 440 284 440 c 0
 191 440 155 332 155 259 c 0
 155 190 195 81 277 81 c 0
EndSplineSet
Validated: 1
Layer: 2
SplineSet
377 0 m 1,0,-1
 377 46 l 1,1,2
 357 14 357 14 326 4.5 c 128,-1,3
 295 -5 295 -5 230 -5 c 0,4,5
 146 -5 146 -5 97 69.5 c 128,-1,6
 48 144 48 144 48 251 c 0,7,8
 48 360 48 360 97 443 c 128,-1,9
 146 526 146 526 233 526 c 0,10,11
 289 526 289 526 318 513.5 c 128,-1,12
 347 501 347 501 377 461 c 1,13,-1
 377 700 l 1,14,-1
 484 700 l 1,15,-1
 484 0 l 1,16,-1
 377 0 l 1,0,-1
277 81 m 0,17,18
 315 81 315 81 339.5 111.5 c 128,-1,19
 364 142 364 142 370.5 171 c 128,-1,20
 377 200 377 200 377 221 c 2,21,-1
 377 301 l 2,22,23
 377 307 377 307 373 326 c 128,-1,24
 369 345 369 345 360 372.5 c 128,-1,25
 351 400 351 400 331 420 c 128,-1,26
 311 440 311 440 284 440 c 0,27,28
 221 440 221 440 188 382.5 c 128,-1,29
 155 325 155 325 155 259 c 0,30,31
 155 198 155 198 188 139.5 c 128,-1,32
 221 81 221 81 277 81 c 0,17,18
EndSplineSet
EndChar

StartChar: e
Encoding: 101 101 70
Width: 530
Flags: W
HStem: -5 86<209.707 342.315> 249 86<166 371> 440 86<200.762 338.015>
VStem: 374 103<112.281 157>
LayerCount: 3
Back
SplineSet
159 259 m 1
 161 214 l 2
 164 139 204 84 279 84 c 0
 325 84 363 106 374 159 c 1
 477 159 l 1
 461 113 425 -3 271 -3 c 4
 132 -3 43 114 43 268 c 0
 43 421 113 526 256 526 c 0
 362 526 423 489 449 434 c 0
 478 368 478 324 478 259 c 1
 159 259 l 1
276 440 m 0
 222 440 173 426 166 337 c 1
 376 337 l 1
 371 418 333 440 276 440 c 0
EndSplineSet
Fore
SplineSet
159 249 m 1
 161 212 l 2
 165 137 204 81 279 81 c 0
 325 81 363 104 374 157 c 1
 477 157 l 1
 461 111 425 -5 271 -5 c 0
 132 -5 43 114 43 268 c 0
 43 421 113 526 256 526 c 0
 476 526 478 369 478 249 c 1
 159 249 l 1
276 440 m 0
 222 440 173 424 166 335 c 1
 371 335 l 1
 366 416 328 440 276 440 c 0
EndSplineSet
Validated: 1
Layer: 2
SplineSet
159 249 m 1,0,-1
 161 212 l 2,1,2
 164 153 164 153 194.5 117 c 128,-1,3
 225 81 225 81 279 81 c 0,4,5
 358 81 358 81 374 157 c 1,6,-1
 477 157 l 1,7,8
 470 137 470 137 466.5 128 c 128,-1,9
 463 119 463 119 451.5 95.5 c 128,-1,10
 440 72 440 72 425.5 58 c 128,-1,11
 411 44 411 44 390 27.5 c 128,-1,12
 369 11 369 11 338.5 3 c 128,-1,13
 308 -5 308 -5 271 -5 c 0,14,15
 169 -5 169 -5 106 72.5 c 128,-1,16
 43 150 43 150 43 268 c 0,17,18
 43 387 43 387 97.5 456.5 c 128,-1,19
 152 526 152 526 256 526 c 0,20,21
 302 526 302 526 337.5 516.5 c 128,-1,22
 373 507 373 507 396 493 c 128,-1,23
 419 479 419 479 435.5 454 c 128,-1,24
 452 429 452 429 460 409 c 128,-1,25
 468 389 468 389 472.5 356 c 128,-1,26
 477 323 477 323 477.5 303 c 128,-1,27
 478 283 478 283 478 249 c 1,28,-1
 159 249 l 1,0,-1
276 440 m 0,29,30
 229 440 229 440 200 418 c 128,-1,31
 171 396 171 396 166 335 c 1,32,-1
 371 335 l 1,33,34
 365 440 365 440 276 440 c 0,29,30
EndSplineSet
EndChar

StartChar: f
Encoding: 102 102 71
Width: 294
Flags: W
HStem: 0 21G<86 193> 435 86<28 86 193 282> 628 86<208.166 294>
VStem: 86 107<0 435 521 614.564>
LayerCount: 3
Back
SplineSet
255 628 m 0
 197 628 193 586 193 529 c 2
 193 498 l 1
 282 498 l 1
 282 415 l 1
 193 415 l 1
 193 0 l 1
 86 0 l 1
 86 415 l 1
 28 415 l 1
 28 498 l 1
 86 498 l 1
 86 543 l 2
 86 586 88 625 106 651 c 4
 132 695 182 714 231 714 c 0
 242 714 294 710 294 710 c 1
 294 627 l 1
 294 627 265 628 255 628 c 0
EndSplineSet
Fore
SplineSet
255 628 m 0
 197 628 193 586 193 552 c 2
 193 521 l 1
 282 521 l 1
 282 435 l 1
 193 435 l 1
 193 0 l 1
 86 0 l 1
 86 435 l 1
 28 435 l 1
 28 521 l 1
 86 521 l 1
 86 566 l 2
 86 660 129 714 231 714 c 0
 242 714 294 710 294 710 c 1
 294 627 l 1
 294 627 265 628 255 628 c 0
EndSplineSet
Validated: 1
Layer: 2
SplineSet
255 628 m 0,0,1
 216 628 216 628 204.5 607 c 128,-1,2
 193 586 193 586 193 552 c 2,3,-1
 193 521 l 1,4,-1
 282 521 l 1,5,-1
 282 435 l 1,6,-1
 193 435 l 1,7,-1
 193 0 l 1,8,-1
 86 0 l 1,9,-1
 86 435 l 1,10,-1
 28 435 l 1,11,-1
 28 521 l 1,12,-1
 86 521 l 1,13,-1
 86 566 l 2,14,15
 86 714 86 714 231 714 c 1,16,-1
 294 710 l 1,17,-1
 294 627 l 1,18,19
 265 628 265 628 255 628 c 0,0,1
EndSplineSet
EndChar

StartChar: g
Encoding: 103 103 72
Width: 525
Flags: W
HStem: -215 86<168.78 319.627> -5 86<184.826 314.383> 440 86<184.696 305.379>
VStem: 20 107<-86.5885 -34 148.744 371.737> 362 107<-78.4903 49 135.625 370.351 460 521>
LayerCount: 3
Back
SplineSet
376 460 m 1xf4
 376 524 l 1
 469 524 l 1
 469 103 l 2
 469 -76 449 -231 246 -231 c 0
 142 -231 37 -177 34 -55 c 1
 132 -55 l 1xec
 134 -122 188 -150 256 -150 c 0
 331 -150 376 -96 376 -31 c 2
 376 49 l 1
 339 19 296 -2 234 -2 c 0
 91 -2 20 118 20 248 c 0
 20 398 102 523 232 523 c 0
 285 523 335 507 376 460 c 1xf4
246 431 m 0
 156 431 116 339 116 252 c 0xf4
 116 151 169 81 251 81 c 0
 341 81 374 165 374 250 c 0
 374 348 325 431 246 431 c 0
EndSplineSet
Fore
SplineSet
362 460 m 1
 362 521 l 1
 469 521 l 1
 469 119 l 2
 469 -60 449 -215 242 -215 c 0
 138 -215 28 -156 25 -34 c 1
 132 -34 l 1
 134 -101 182 -129 250 -129 c 0
 325 -129 362 -80 362 -15 c 2
 362 49 l 1
 325 19 296 -5 234 -5 c 0
 91 -5 20 118 20 248 c 0
 20 398 102 526 232 526 c 0
 285 526 321 507 362 460 c 1
246 440 m 0
 156 440 127 343 127 256 c 0
 127 155 169 81 251 81 c 0
 341 81 362 169 362 254 c 0
 362 352 325 440 246 440 c 0
EndSplineSet
Validated: 1
Layer: 2
SplineSet
362 460 m 1,0,-1
 362 521 l 1,1,-1
 469 521 l 1,2,-1
 469 119 l 2,3,4
 469 57 469 57 465.5 14.5 c 128,-1,5
 462 -28 462 -28 448.5 -75 c 128,-1,6
 435 -122 435 -122 411.5 -150 c 128,-1,7
 388 -178 388 -178 345 -196.5 c 128,-1,8
 302 -215 302 -215 242 -215 c 0,9,10
 157 -215 157 -215 92 -167.5 c 128,-1,11
 27 -120 27 -120 25 -34 c 1,12,-1
 132 -34 l 1,13,14
 135 -129 135 -129 250 -129 c 0,15,16
 304 -129 304 -129 333 -97.5 c 128,-1,17
 362 -66 362 -66 362 -15 c 2,18,-1
 362 49 l 1,19,20
 338 29 338 29 325 20.5 c 128,-1,21
 312 12 312 12 287.5 3.5 c 128,-1,22
 263 -5 263 -5 234 -5 c 0,23,24
 132 -5 132 -5 76 69 c 128,-1,25
 20 143 20 143 20 248 c 0,26,27
 20 364 20 364 78.5 445 c 128,-1,28
 137 526 137 526 232 526 c 0,29,30
 271 526 271 526 301 511 c 128,-1,31
 331 496 331 496 362 460 c 1,0,-1
246 440 m 0,32,33
 184 440 184 440 155.5 386 c 128,-1,34
 127 332 127 332 127 256 c 0,35,36
 127 178 127 178 159 129.5 c 128,-1,37
 191 81 191 81 251 81 c 0,38,39
 362 81 362 81 362 254 c 0,40,41
 362 333 362 333 332 386.5 c 128,-1,42
 302 440 302 440 246 440 c 0,32,33
EndSplineSet
EndChar

StartChar: h
Encoding: 104 104 73
Width: 530
Flags: W
HStem: 0 21G<64 171 365 472> 440 86<243.714 351.755> 680 20G<64 171>
VStem: 64 107<0 369.212 442 700> 365 107<0 427.989>
LayerCount: 3
Back
SplineSet
365 0 m 1
 365 313 l 2
 365 381.01 361 418 308 418 c 0
 261 418 204 383 189 347 c 0
 173 314 172 275 172 243 c 2
 172 0 l 1
 64 0 l 1
 64 700 l 1
 172 700 l 1
 172 442 l 1
 175 438 l 1
 201 505 293 525 346 525 c 0
 439 525 472 450 472 361 c 2
 472 0 l 1
 365 0 l 1
EndSplineSet
Fore
SplineSet
365 0 m 1
 365 335 l 2
 365 403 361 440 308 440 c 0
 228 440 171 384 171 265 c 2
 171 0 l 1
 64 0 l 1
 64 700 l 1
 171 700 l 1
 171 442 l 1
 174 438 l 1
 200 505 293 526 346 526 c 0
 439 526 472 450 472 361 c 2
 472 0 l 1
 365 0 l 1
EndSplineSet
Validated: 1
Layer: 2
SplineSet
365 0 m 1,0,-1
 365 335 l 2,1,2
 365 393 365 393 355 416.5 c 128,-1,3
 345 440 345 440 308 440 c 0,4,5
 246 440 246 440 208.5 395.5 c 128,-1,6
 171 351 171 351 171 265 c 2,7,-1
 171 0 l 1,8,-1
 64 0 l 1,9,-1
 64 700 l 1,10,-1
 171 700 l 1,11,-1
 171 442 l 1,12,-1
 174 438 l 1,13,14
 192 483 192 483 244 504.5 c 128,-1,15
 296 526 296 526 346 526 c 0,16,17
 411 526 411 526 441.5 480 c 128,-1,18
 472 434 472 434 472 361 c 2,19,-1
 472 0 l 1,20,-1
 365 0 l 1,0,-1
EndSplineSet
EndChar

StartChar: i
Encoding: 105 105 74
Width: 254
Flags: W
HStem: 0 21G<72 179> 501 20G<72 179> 595 105<72 179>
VStem: 72 107<0 521 595 700>
LayerCount: 3
Fore
SplineSet
72 595 m 1
 72 700 l 1
 179 700 l 1
 179 595 l 1
 72 595 l 1
72 0 m 1
 72 521 l 1
 179 521 l 1
 179 0 l 1
 72 0 l 1
EndSplineSet
Validated: 1
Layer: 2
SplineSet
72 595 m 1,0,-1
 72 700 l 1,1,-1
 179 700 l 1,2,-1
 179 595 l 1,3,-1
 72 595 l 1,0,-1
72 0 m 1,4,-1
 72 521 l 1,5,-1
 179 521 l 1,6,-1
 179 0 l 1,7,-1
 72 0 l 1,4,-1
EndSplineSet
EndChar

StartChar: j
Encoding: 106 106 75
Width: 254
Flags: W
HStem: -215 86<-23 54.1435> 501 20G<72 179> 595 105<72 179>
VStem: 72 107<-111.799 521 595 700>
LayerCount: 3
Back
SplineSet
72 595 m 1
 72 700 l 1
 179 700 l 1
 179 595 l 1
 72 595 l 1
-6 -231 m 0
 -12 -231 -23 -229 -23 -229 c 1
 -23 -143 l 1
 -23 -143 -5 -145 4 -145 c 0
 52 -145 72 -124 72 -16 c 2
 72 521 l 1
 179 521 l 1
 179 -16 l 2
 179 -189 156 -231 -6 -231 c 0
72 594 m 1
 72 700 l 1
 179 700 l 1
 179 594 l 1
 72 594 l 1
-6 -207 m 0
 -12 -207 -23 -205 -23 -205 c 1
 -23 -118 l 1
 -23 -118 -5 -120 4 -120 c 0
 78 -120 72 -56 72 8 c 2
 72 525 l 1
 179 525 l 1
 179 8 l 2
 179 -165 156 -207 -6 -207 c 0
EndSplineSet
Fore
SplineSet
72 595 m 1
 72 700 l 1
 179 700 l 1
 179 595 l 1
 72 595 l 1
-6 -215 m 0
 -12 -215 -23 -213 -23 -213 c 1
 -23 -127 l 1
 -23 -127 -5 -129 4 -129 c 0
 52 -129 72 -108 72 0 c 2
 72 521 l 1
 179 521 l 1
 179 0 l 2
 179 -173 156 -215 -6 -215 c 0
EndSplineSet
Validated: 1
Layer: 2
SplineSet
72 595 m 1,0,-1
 72 700 l 1,1,-1
 179 700 l 1,2,-1
 179 595 l 1,3,-1
 72 595 l 1,0,-1
-6 -215 m 1,4,5
 -23 -213 l 1,6,-1
 -23 -127 l 1,7,8
 -5 -129 -5 -129 4 -129 c 0,9,10
 42 -129 42 -129 57 -103.5 c 128,-1,11
 72 -78 72 -78 72 0 c 2,12,-1
 72 521 l 1,13,-1
 179 521 l 1,14,-1
 179 0 l 2,15,16
 179 -70 179 -70 173 -107.5 c 128,-1,17
 167 -145 167 -145 147 -171.5 c 128,-1,18
 127 -198 127 -198 91.5 -206.5 c 128,-1,19
 56 -215 56 -215 -6 -215 c 1,4,5
EndSplineSet
EndChar

StartChar: k
Encoding: 107 107 76
Width: 548
Flags: W
HStem: 0 21G<74 181 388.274 517> 501 20G<371.891 503> 680 20G<74 181>
VStem: 74 107<0 121 264 700>
DStem2: 181 264 284 259 0.627279 0.778795<0 60.7157 186.138 329.997> 366 354 284 259 0.392351 -0.919816<55.2097 337.778>
LayerCount: 3
Fore
SplineSet
397 0 m 1
 284 259 l 1
 181 121 l 1
 181 0 l 1
 74 0 l 1
 74 700 l 1
 181 700 l 1
 181 264 l 1
 388 521 l 1
 503 521 l 1
 366 354 l 1
 517 0 l 1
 397 0 l 1
EndSplineSet
Validated: 1
Layer: 2
SplineSet
397 0 m 1,0,-1
 284 259 l 1,1,-1
 181 121 l 1,2,-1
 181 0 l 1,3,-1
 74 0 l 1,4,-1
 74 700 l 1,5,-1
 181 700 l 1,6,-1
 181 264 l 1,7,-1
 388 521 l 1,8,-1
 503 521 l 1,9,-1
 366 354 l 1,10,-1
 517 0 l 1,11,-1
 397 0 l 1,0,-1
EndSplineSet
EndChar

StartChar: l
Encoding: 108 108 77
Width: 254
Flags: W
HStem: 0 21G<72 179> 680 20G<72 179>
VStem: 72 107<0 700>
LayerCount: 3
Fore
SplineSet
72 0 m 1
 72 700 l 1
 179 700 l 1
 179 0 l 1
 72 0 l 1
EndSplineSet
Validated: 1
Layer: 2
SplineSet
72 0 m 1,0,-1
 72 700 l 1,1,-1
 179 700 l 1,2,-1
 179 0 l 1,3,-1
 72 0 l 1,0,-1
EndSplineSet
EndChar

StartChar: m
Encoding: 109 109 78
Width: 804
Flags: W
HStem: 0 21G<66 173 348 455 630 737> 440 86<220.776 328.245 501.461 611.237>
VStem: 66 107<0 378.004 446 521> 348 107<0 386.37> 630 107<0 419.723>
CounterMasks: 1 38
LayerCount: 3
Back
SplineSet
630 0 m 1
 630 354 l 2
 630 410 605 435 549 435 c 0
 504 435 455 374 455 304 c 2
 455 0 l 1
 348 0 l 1
 348 304 l 2
 348 388 341 437 273 437 c 0
 227 437 195 385 182 349 c 0
 173 319 173 282 173 250 c 2
 173 0 l 1
 66 0 l 1
 66 521 l 1
 167 521 l 1
 167 457 l 1
 169 449 l 1
 207 518 254 526 313 526 c 0
 360 526 411 475 422 435 c 1
 466 518 525 526 577 526 c 0
 706 526 737 444 737 372 c 2
 737 0 l 1
 630 0 l 1
EndSplineSet
Fore
SplineSet
630 0 m 1
 630 359 l 2
 630 415 605 440 549 440 c 0
 504 440 455 379 455 309 c 2
 455 0 l 1
 348 0 l 1
 348 309 l 2
 348 393 341 440 273 440 c 0
 212 440 173 370 173 255 c 2
 173 0 l 1
 66 0 l 1
 66 521 l 1
 167 521 l 1
 167 446 l 1
 205 518 254 526 313 526 c 0
 360 526 411 475 422 435 c 1
 466 518 525 526 577 526 c 0
 706 526 737 444 737 372 c 2
 737 0 l 1
 630 0 l 1
EndSplineSet
Validated: 1
Layer: 2
SplineSet
630 0 m 1,0,-1
 630 359 l 2,1,2
 630 401 630 401 610.5 420.5 c 128,-1,3
 591 440 591 440 549 440 c 0,4,5
 514 440 514 440 484.5 400 c 128,-1,6
 455 360 455 360 455 309 c 2,7,-1
 455 0 l 1,8,-1
 348 0 l 1,9,-1
 348 309 l 2,10,11
 348 380 348 380 334 410 c 128,-1,12
 320 440 320 440 273 440 c 0,13,14
 227 440 227 440 200 390.5 c 128,-1,15
 173 341 173 341 173 255 c 2,16,-1
 173 0 l 1,17,-1
 66 0 l 1,18,-1
 66 521 l 1,19,-1
 167 521 l 1,20,-1
 167 446 l 1,21,22
 193 495 193 495 227 510.5 c 128,-1,23
 261 526 261 526 313 526 c 0,24,25
 347 526 347 526 380 496.5 c 128,-1,26
 413 467 413 467 422 435 c 1,27,28
 452 491 452 491 490 508.5 c 128,-1,29
 528 526 528 526 577 526 c 0,30,31
 665 526 665 526 701 481.5 c 128,-1,32
 737 437 737 437 737 372 c 2,33,-1
 737 0 l 1,34,-1
 630 0 l 1,0,-1
EndSplineSet
EndChar

StartChar: n
Encoding: 110 110 79
Width: 530
Flags: W
HStem: 0 21G<67 174 356 463> 440 86<229.06 333.455>
VStem: 67 107<0 380.43 443 521> 356 107<0 415.508>
LayerCount: 3
Back
SplineSet
356 0 m 1
 356 298 l 2
 356 374 348 430 282 430 c 0
 234 430 174 385 174 267 c 2
 174 0 l 1
 67 0 l 1
 67 521 l 1
 172 521 l 1
 172 443 l 1
 212 504 252 526 301 526 c 0
 420 526 463 485 463 339 c 2
 463 0 l 1
 356 0 l 1
EndSplineSet
Fore
SplineSet
356 0 m 1
 356 308 l 2
 356 384 348 440 282 440 c 0
 234 440 174 395 174 277 c 2
 174 0 l 1
 67 0 l 1
 67 521 l 1
 172 521 l 1
 172 443 l 1
 212 504 252 526 301 526 c 0
 420 526 463 485 463 339 c 2
 463 0 l 1
 356 0 l 1
EndSplineSet
Validated: 1
Layer: 2
SplineSet
356 0 m 1,0,-1
 356 308 l 2,1,2
 356 374 356 374 341.5 407 c 128,-1,3
 327 440 327 440 282 440 c 0,4,5
 240 440 240 440 207 399 c 128,-1,6
 174 358 174 358 174 277 c 2,7,-1
 174 0 l 1,8,-1
 67 0 l 1,9,-1
 67 521 l 1,10,-1
 172 521 l 1,11,-1
 172 443 l 1,12,13
 226 526 226 526 301 526 c 0,14,15
 392 526 392 526 427.5 486.5 c 128,-1,16
 463 447 463 447 463 339 c 2,17,-1
 463 0 l 1,18,-1
 356 0 l 1,0,-1
EndSplineSet
EndChar

StartChar: o
Encoding: 111 111 80
Width: 536
Flags: W
HStem: -5 86<206.471 330.722> 440 86<210.243 331.462>
VStem: 40 107<155.651 364.908> 389 107<154.431 370.77>
LayerCount: 3
Back
SplineSet
264 -3 m 0
 123 -3 40 110 40 261 c 0
 40 412 123 526 264 526 c 0
 406 526 495 409 495 256 c 0
 495 109 399 -3 264 -3 c 0
264 443 m 0
 172 443 158 347 158 277 c 0
 158 207 176 75 268 75 c 0
 360 75 377 184 377 254 c 0
 377 324 356 443 264 443 c 0
EndSplineSet
Fore
SplineSet
268 -5 m 0
 127 -5 40 110 40 261 c 0
 40 412 127 526 268 526 c 0
 409 526 496 412 496 261 c 0
 496 110 409 -5 268 -5 c 0
268 440 m 0
 179 440 147 333 147 261 c 0
 147 192 175 81 268 81 c 0
 360 81 389 186 389 261 c 0
 389 321 370 440 268 440 c 0
EndSplineSet
Validated: 1
Layer: 2
SplineSet
268 -5 m 256,0,1
 164 -5 164 -5 102 70 c 128,-1,2
 40 145 40 145 40 261 c 256,3,4
 40 377 40 377 102 451.5 c 128,-1,5
 164 526 164 526 268 526 c 256,6,7
 372 526 372 526 434 451.5 c 128,-1,8
 496 377 496 377 496 261 c 256,9,10
 496 145 496 145 434 70 c 128,-1,11
 372 -5 372 -5 268 -5 c 256,0,1
268 440 m 0,12,13
 208 440 208 440 177.5 383.5 c 128,-1,14
 147 327 147 327 147 261 c 0,15,16
 147 221 147 221 157 183 c 128,-1,17
 167 145 167 145 196 113 c 128,-1,18
 225 81 225 81 268 81 c 0,19,20
 330 81 330 81 359.5 136.5 c 128,-1,21
 389 192 389 192 389 261 c 0,22,23
 389 288 389 288 384 315 c 128,-1,24
 379 342 379 342 367 372 c 128,-1,25
 355 402 355 402 329.5 421 c 128,-1,26
 304 440 304 440 268 440 c 0,12,13
EndSplineSet
EndChar

StartChar: p
Encoding: 112 112 81
Width: 536
Flags: W
HStem: -199 21G<54 161> -5 86<208.551 319.418> 440 86<217.451 324.507>
VStem: 54 107<-199 38 132.625 388.512 448 521> 388 107<167.448 358.409>
LayerCount: 3
Back
SplineSet
297 -5 m 0xd8
 268 -5 198 -12 175 40 c 1
 161 38 l 1
 161 -179 l 1
 54 -179 l 1xe8
 54 521 l 1
 152 521 l 1
 152 438 l 1
 187 508 250 526 313 526 c 0
 442 526 495 382 495 258 c 0
 495 124 426 -5 297 -5 c 0xd8
264 432 m 0
 212 432 161 387 161 291 c 2
 161 219 l 2
 161 125 208 75 261 75 c 0
 346 75 380 193 380 256 c 0
 380 322 346 432 264 432 c 0
EndSplineSet
Fore
SplineSet
268 -5 m 0
 234 -5 188 -1 161 38 c 1
 161 -199 l 1
 54 -199 l 1
 54 521 l 1
 161 521 l 1
 161 448 l 1
 196 508 250 526 313 526 c 0
 442 526 495 382 495 258 c 0
 495 143 451 -5 268 -5 c 0
268 440 m 0
 216 440 161 395 161 299 c 2
 161 225 l 2
 161 131 212 81 265 81 c 0
 350 81 388 200 388 263 c 0
 388 329 350 440 268 440 c 0
EndSplineSet
Validated: 1
Layer: 2
SplineSet
268 -5 m 0,0,1
 191 -5 191 -5 161 38 c 1,2,-1
 161 -199 l 1,3,-1
 54 -199 l 1,4,-1
 54 521 l 1,5,-1
 161 521 l 1,6,-1
 161 448 l 1,7,8
 206 526 206 526 313 526 c 0,9,10
 374 526 374 526 417 483.5 c 128,-1,11
 460 441 460 441 477.5 382.5 c 128,-1,12
 495 324 495 324 495 258 c 0,13,14
 495 221 495 221 489 186.5 c 128,-1,15
 483 152 483 152 467.5 116 c 128,-1,16
 452 80 452 80 427.5 54 c 128,-1,17
 403 28 403 28 362 11.5 c 128,-1,18
 321 -5 321 -5 268 -5 c 0,0,1
268 440 m 0,19,20
 225 440 225 440 193 403 c 128,-1,21
 161 366 161 366 161 299 c 2,22,-1
 161 225 l 2,23,24
 161 158 161 158 191.5 119.5 c 128,-1,25
 222 81 222 81 265 81 c 0,26,27
 322 81 322 81 355 142.5 c 128,-1,28
 388 204 388 204 388 263 c 0,29,30
 388 299 388 299 376 338 c 128,-1,31
 364 377 364 377 335 408.5 c 128,-1,32
 306 440 306 440 268 440 c 0,19,20
EndSplineSet
EndChar

StartChar: q
Encoding: 113 113 82
Width: 530
Flags: W
HStem: -199 21G<374 481> -5 86<193.859 317.951> 440 86<208.568 329.33>
VStem: 34 107<142.103 360.274> 374 107<-199 46 143.934 391.836 464 521>
LayerCount: 3
Back
SplineSet
481 521 m 1
 481 -179 l 1
 374 -179 l 1
 374 46 l 1
 336 -8 288 -5 242 -5 c 0
 109 -5 34 120 34 259 c 0
 34 399 103 523 239 523 c 0
 302 523 353 515 382 454 c 1
 382 521 l 1
 481 521 l 1
377 307 m 2
 377 362 347 435 276 435 c 0
 182 435 149 331 149 259 c 0
 149 159 173 80 264 80 c 0
 335 80 377 163 377 224 c 2
 377 307 l 2
EndSplineSet
Fore
SplineSet
481 521 m 1
 481 -199 l 1
 374 -199 l 1
 374 46 l 1
 340 -3 298 -5 256 -5 c 0
 79 -5 34 155 34 259 c 0
 34 399 103 526 239 526 c 0
 302 526 345 515 374 464 c 1
 374 521 l 1
 481 521 l 1
374 312 m 2
 374 367 343 440 272 440 c 0
 178 440 141 334 141 262 c 0
 141 162 169 81 260 81 c 0
 331 81 374 164 374 225 c 2
 374 312 l 2
EndSplineSet
Validated: 1
Layer: 2
SplineSet
481 521 m 1,0,-1
 481 -199 l 1,1,-1
 374 -199 l 1,2,-1
 374 46 l 1,3,4
 351 13 351 13 323.5 4 c 128,-1,5
 296 -5 296 -5 256 -5 c 0,6,7
 193 -5 193 -5 147 21 c 128,-1,8
 101 47 101 47 78 89 c 128,-1,9
 55 131 55 131 44.5 173 c 128,-1,10
 34 215 34 215 34 259 c 0,11,12
 34 371 34 371 88 448.5 c 128,-1,13
 142 526 142 526 239 526 c 0,14,15
 290 526 290 526 321.5 513 c 128,-1,16
 353 500 353 500 374 464 c 1,17,-1
 374 521 l 1,18,-1
 481 521 l 1,0,-1
374 312 m 2,19,20
 374 360 374 360 347.5 400 c 128,-1,21
 321 440 321 440 272 440 c 0,22,23
 208 440 208 440 174.5 383.5 c 128,-1,24
 141 327 141 327 141 262 c 0,25,26
 141 81 141 81 260 81 c 0,27,28
 310 81 310 81 342 127.5 c 128,-1,29
 374 174 374 174 374 225 c 2,30,-1
 374 312 l 2,19,20
EndSplineSet
EndChar

StartChar: r
Encoding: 114 114 83
Width: 346
Flags: W
HStem: 0 21G<49 156> 426 100<213.854 319>
VStem: 49 107<0 367.102 455 521>
LayerCount: 3
Back
SplineSet
155 455 m 1
 185 498 230 526 264 526 c 2
 319 526 l 1
 319 419 l 1
 291 419 258 416 231 407 c 0
 179 383 155 339 155 254 c 2
 155 0 l 1
 49 0 l 1
 49 521 l 1
 155 521 l 1
 155 455 l 1
EndSplineSet
Fore
SplineSet
156 455 m 1
 186 498 230 526 264 526 c 2
 319 526 l 1
 319 426 l 1
 291 426 257 426 231 414 c 0
 179 390 156 346 156 261 c 2
 156 0 l 1
 49 0 l 1
 49 521 l 1
 156 521 l 1
 156 455 l 1
EndSplineSet
Validated: 1
Layer: 2
SplineSet
156 455 m 1,0,1
 178 487 178 487 208 506.5 c 128,-1,2
 238 526 238 526 264 526 c 2,3,-1
 319 526 l 1,4,-1
 319 426 l 1,5,6
 257 426 257 426 231 414 c 0,7,8
 192 396 192 396 174 360 c 128,-1,9
 156 324 156 324 156 261 c 2,10,-1
 156 0 l 1,11,-1
 49 0 l 1,12,-1
 49 521 l 1,13,-1
 156 521 l 1,14,-1
 156 455 l 1,0,1
EndSplineSet
EndChar

StartChar: s
Encoding: 115 115 84
Width: 482
Flags: W
HStem: -5 86<171.419 331.97> 440 86<169.039 302.177>
VStem: 32 107<112.543 185> 46 107<352.015 421.421> 327 107<349 413.99> 349 107<97.7864 184.06>
LayerCount: 3
Back
SplineSet
456 159 m 0xd4
 456 113 424.5 -6 265 -6 c 0
 129 -6 35 20 32 184 c 1
 127 184 l 1
 135 94 193 80 268 80 c 0
 309 80 356 94 356 147 c 0xe4
 356 170 348.753 188.176 314 199 c 0
 253 217.999 197.987 238.983 139 265 c 0
 97.5432 283.285 46 300 46 379 c 0
 46 484 136 526 238 526 c 0
 374 526 429 468 434 349 c 1
 336 349 l 1xd8
 334 414 307 435 230 435 c 0
 182 435 152 411 152 385 c 0
 152 298 456 333 456 159 c 0xd4
EndSplineSet
Fore
SplineSet
292 206 m 0xe4
 206 243 46 263 46 379 c 0
 46 484 136 526 238 526 c 0
 374 526 429 468 434 349 c 1
 327 349 l 1
 325 414 298 440 230 440 c 0
 182 440 153 411 153 385 c 0xd8
 153 361 176 346 209 334 c 0
 303 301 456 283 456 160 c 0
 456 114 425 -5 265 -5 c 0
 129 -5 35 21 32 185 c 1
 139 185 l 1
 139 95 193 81 268 81 c 0
 309 81 349 95 349 148 c 0
 349 174 326 191 292 206 c 0xe4
EndSplineSet
Validated: 1
Layer: 2
SplineSet
292 206 m 0,0,1
 274 214 274 214 234.5 226.5 c 128,-1,2
 195 239 195 239 167 250 c 128,-1,3
 139 261 139 261 109 278 c 128,-1,4
 79 295 79 295 62.5 320.5 c 128,-1,5
 46 346 46 346 46 379 c 0,6,7
 46 453 46 453 100.5 489.5 c 128,-1,8
 155 526 155 526 238 526 c 0,9,10
 338 526 338 526 384 483 c 128,-1,11
 430 440 430 440 434 349 c 1,12,-1
 327 349 l 1,13,14
 325 398 325 398 303 419 c 128,-1,15
 281 440 281 440 230 440 c 0,16,17
 196 440 196 440 174.5 423 c 128,-1,18
 153 406 153 406 153 385 c 0,19,20
 153 354 153 354 209 334 c 0,21,22
 226 328 226 328 259.5 318 c 128,-1,23
 293 308 293 308 315.5 301 c 128,-1,24
 338 294 338 294 367 280.5 c 128,-1,25
 396 267 396 267 413.5 252 c 128,-1,26
 431 237 431 237 443.5 213 c 128,-1,27
 456 189 456 189 456 160 c 0,28,29
 456 139 456 139 448 114.5 c 128,-1,30
 440 90 440 90 421 61 c 128,-1,31
 402 32 402 32 361.5 13.5 c 128,-1,32
 321 -5 321 -5 265 -5 c 256,33,34
 209 -5 209 -5 171 2 c 128,-1,35
 133 9 133 9 99.5 28.5 c 128,-1,36
 66 48 66 48 49.5 86.5 c 128,-1,37
 33 125 33 125 32 185 c 1,38,-1
 139 185 l 1,39,40
 139 123 139 123 171.5 102 c 128,-1,41
 204 81 204 81 268 81 c 0,42,43
 349 81 349 81 349 148 c 0,44,45
 349 181 349 181 292 206 c 0,0,1
EndSplineSet
EndChar

StartChar: t
Encoding: 116 116 85
Width: 372
Flags: W
HStem: -5 86<228.917 324.838> 435 86<23 105 212 322> 680 20G<105 212>
VStem: 105 107<97.2339 435 521 700>
LayerCount: 3
Back
SplineSet
326 1 m 1
 300 -1 281 -6 254 -6 c 0
 118 -6 105 54 105 158 c 2
 105 435 l 1
 23 435 l 1
 23 521 l 1
 109 521 l 1
 109 700 l 1
 212 700 l 1
 212 523 l 1
 322 523 l 1
 322 435 l 1
 212 435 l 1
 212 189 l 2
 212 127 213 80 286 80 c 0
 298 80 302 81 326 83 c 1
 326 1 l 1
EndSplineSet
Fore
SplineSet
326 2 m 1
 300 0 281 -5 254 -5 c 0
 118 -5 105 55 105 159 c 2
 105 435 l 1
 23 435 l 1
 23 521 l 1
 105 521 l 1
 105 700 l 1
 212 700 l 1
 212 521 l 1
 322 521 l 1
 322 435 l 1
 212 435 l 1
 212 190 l 2
 212 128 213 81 286 81 c 0
 298 81 302 82 326 84 c 1
 326 2 l 1
EndSplineSet
Validated: 1
Layer: 2
SplineSet
326 2 m 1,0,1
 318 1 318 1 294 -2 c 128,-1,2
 270 -5 270 -5 254 -5 c 0,3,4
 204 -5 204 -5 173.5 5 c 128,-1,5
 143 15 143 15 128.5 39 c 128,-1,6
 114 63 114 63 109.5 89 c 128,-1,7
 105 115 105 115 105 159 c 2,8,-1
 105 435 l 1,9,-1
 23 435 l 1,10,-1
 23 521 l 1,11,-1
 105 521 l 1,12,-1
 105 700 l 1,13,-1
 212 700 l 1,14,-1
 212 521 l 1,15,-1
 322 521 l 1,16,-1
 322 435 l 1,17,-1
 212 435 l 1,18,-1
 212 190 l 2,19,20
 212 161 212 161 213.5 146 c 128,-1,21
 215 131 215 131 221.5 113.5 c 128,-1,22
 228 96 228 96 244 88.5 c 128,-1,23
 260 81 260 81 286 81 c 0,24,25
 290 81 290 81 326 84 c 1,26,-1
 326 2 l 1,0,1
EndSplineSet
EndChar

StartChar: u
Encoding: 117 117 86
Width: 530
Flags: W
HStem: -5 86<197.441 299.991> 501 20G<72 179 351 458>
VStem: 72 107<99.9119 521> 351 107<0 69 134.861 521>
LayerCount: 3
Back
SplineSet
362 0 m 1x68
 362 69 l 1x68
 340 69 l 1
 299 6 259 -6 199 -6 c 0
 75 -6 72 98 72 190 c 2
 72 521 l 1
 179 521 l 1
 179 190 l 2
 179 135 189 94 253 94 c 0
 317 94 351 164 351 204 c 2
 351 521 l 1
 458 521 l 1x70
 458 0 l 1
 362 0 l 1x68
EndSplineSet
Fore
SplineSet
351 0 m 1
 351 69 l 1
 310 6 270 -5 210 -5 c 0
 75 -5 72 98 72 190 c 2
 72 521 l 1
 179 521 l 1
 179 190 l 2
 179 135 189 81 240 81 c 0
 317 81 351 164 351 204 c 2
 351 521 l 1
 458 521 l 1
 458 0 l 1
 351 0 l 1
EndSplineSet
Validated: 1
Layer: 2
SplineSet
351 0 m 1,0,-1
 351 69 l 1,1,2
 322 25 322 25 290.5 10 c 128,-1,3
 259 -5 259 -5 210 -5 c 0,4,5
 171 -5 171 -5 144 7.5 c 128,-1,6
 117 20 117 20 103 36.5 c 128,-1,7
 89 53 89 53 82 82.5 c 128,-1,8
 75 112 75 112 73.5 133 c 128,-1,9
 72 154 72 154 72 190 c 2,10,-1
 72 521 l 1,11,-1
 179 521 l 1,12,-1
 179 190 l 2,13,14
 179 81 179 81 240 81 c 0,15,16
 292 81 292 81 321.5 123 c 128,-1,17
 351 165 351 165 351 204 c 2,18,-1
 351 521 l 1,19,-1
 458 521 l 1,20,-1
 458 0 l 1,21,-1
 351 0 l 1,0,-1
EndSplineSet
EndChar

StartChar: v
Encoding: 118 118 87
Width: 469
Flags: W
HStem: 0 21G<178.973 302.065> 501 20G<28 148.983 337.587 454>
DStem2: 143 521 28 521 0.288528 -0.957471<0 366.368> 248 170 296 0 0.290211 0.956963<0 363.464>
LayerCount: 3
Fore
SplineSet
296 0 m 1
 185 0 l 1
 28 521 l 1
 143 521 l 1
 248 170 l 1
 343 521 l 1
 454 521 l 1
 296 0 l 1
EndSplineSet
Validated: 1
Layer: 2
SplineSet
296 0 m 1,0,-1
 185 0 l 1,1,-1
 28 521 l 1,2,-1
 143 521 l 1,3,-1
 248 170 l 1,4,-1
 343 521 l 1,5,-1
 454 521 l 1,6,-1
 296 0 l 1,0,-1
EndSplineSet
EndChar

StartChar: w
Encoding: 119 119 88
Width: 726
Flags: W
HStem: 0 21G<161.587 280.652 453.348 564.374> 501 20G<26 145.68 308.406 427.874 596.209 699>
DStem2: 141 521 26 521 0.261236 -0.965275<0 368.478> 231 164 276 0 0.226571 0.973995<0 234.446> 423 521 371 374 0.226571 -0.973995<131.396 367.428> 515 162 559 0 0.259508 0.965741<0 369.019>
LayerCount: 3
Fore
SplineSet
559 0 m 1
 458 0 l 1
 371 374 l 1
 363 374 l 1
 276 0 l 1
 167 0 l 1
 26 521 l 1
 141 521 l 1
 225 162 l 1
 231 164 l 1
 313 521 l 1
 423 521 l 1
 510 164 l 1
 515 162 l 1
 601 521 l 1
 699 521 l 1
 559 0 l 1
EndSplineSet
Validated: 1
Layer: 2
SplineSet
559 0 m 1,0,-1
 458 0 l 1,1,-1
 371 374 l 1,2,-1
 363 374 l 1,3,-1
 276 0 l 1,4,-1
 167 0 l 1,5,-1
 26 521 l 1,6,-1
 141 521 l 1,7,-1
 225 162 l 1,8,-1
 231 164 l 1,9,-1
 313 521 l 1,10,-1
 423 521 l 1,11,-1
 510 164 l 1,12,-1
 515 162 l 1,13,-1
 601 521 l 1,14,-1
 699 521 l 1,15,-1
 559 0 l 1,0,-1
EndSplineSet
EndChar

StartChar: x
Encoding: 120 120 89
Width: 530
Flags: W
HStem: 0 21G<49 173.412 341.941 477> 501 20G<65 200.064 336.511 461>
DStem2: 49 0 162 0 0.497752 0.86732<56.2459 251.972 438.091 600.701> 189 521 65 521 0.483788 -0.875185<0 161.137 341.055 535.313>
LayerCount: 3
Back
SplineSet
353 0 m 1
 65 521 l 1
 189 521 l 1
 477 0 l 1
 353 0 l 1
162 0 m 1
 49 0 l 1
 348 521 l 1
 461 521 l 1
 162 0 l 1
353 0 m 1
 259 184 l 1
 162 0 l 1
 49 0 l 1
 204 270 l 1
 64 521 l 1
 189 521 l 1
 267 360 l 1
 346 521 l 1
 454 521 l 1
 320 281 l 1
 477 0 l 1
 353 0 l 1
EndSplineSet
Fore
SplineSet
162 0 m 1
 49 0 l 1
 204 270 l 1
 65 521 l 1
 189 521 l 1
 267 380 l 1
 348 521 l 1
 461 521 l 1
 322 280 l 1
 477 0 l 1
 353 0 l 1
 259 170 l 1
 162 0 l 1
EndSplineSet
Validated: 1
Layer: 2
SplineSet
162 0 m 1,0,-1
 49 0 l 1,1,-1
 204 270 l 1,2,-1
 65 521 l 1,3,-1
 189 521 l 1,4,-1
 267 380 l 1,5,-1
 348 521 l 1,6,-1
 461 521 l 1,7,-1
 322 280 l 1,8,-1
 477 0 l 1,9,-1
 353 0 l 1,10,-1
 259 170 l 1,11,-1
 162 0 l 1,0,-1
EndSplineSet
EndChar

StartChar: y
Encoding: 121 121 90
Width: 470
Flags: W
HStem: -215 21G<43.1961 109> 501 20G<38 159.077 348.218 449>
DStem2: 153 521 38 521 0.295245 -0.955421<0 354.298> 256 182 279 -66 0.278177 0.96053<0 352.881>
LayerCount: 3
Back
SplineSet
279 -52 m 2
 254 -135 201 -185 109 -192 c 1
 43 -196 l 1
 44 -94 l 1
 57 -95 68 -96 79 -96 c 0
 140 -96 179 -75 199 14 c 1
 38 521 l 1
 153 521 l 1
 253 150 l 1
 354 521 l 1
 449 521 l 1
 279 -52 l 2
EndSplineSet
Fore
SplineSet
279 -66 m 2
 254 -149 201 -205 109 -211 c 2
 43 -215 l 1
 44 -113 l 1
 57 -114 68 -115 79 -115 c 0
 140 -115 179 -89 199 0 c 1
 38 521 l 1
 153 521 l 1
 256 182 l 1
 354 521 l 1
 449 521 l 1
 279 -66 l 2
EndSplineSet
Validated: 1
Layer: 2
SplineSet
279 -66 m 1,0,1
 238 -203 238 -203 109 -211 c 2,2,-1
 43 -215 l 1,3,-1
 44 -113 l 1,4,5
 70 -115 70 -115 79 -115 c 0,6,7
 127 -115 127 -115 156 -89.5 c 128,-1,8
 185 -64 185 -64 199 0 c 1,9,-1
 38 521 l 1,10,-1
 153 521 l 1,11,-1
 256 182 l 1,12,-1
 354 521 l 1,13,-1
 449 521 l 1,14,-1
 279 -66 l 1,0,1
EndSplineSet
EndChar

StartChar: z
Encoding: 122 122 91
Width: 412
Flags: W
HStem: 0 86<130 379> 435 86<41 261>
DStem2: 23 78 130 86 0.5547 0.83205<66.0093 429.061>
LayerCount: 3
Back
SplineSet
23 0 m 1
 23 103 l 1
 261 436 l 1
 41 436 l 1
 41 521 l 1
 368 521 l 1
 368 443 l 1
 129 87 l 1
 379 87 l 1
 379 0 l 1
 23 0 l 1
EndSplineSet
Fore
SplineSet
23 0 m 1
 23 78 l 1
 261 435 l 1
 41 435 l 1
 41 521 l 1
 368 521 l 1
 368 443 l 1
 130 86 l 1
 379 86 l 1
 379 0 l 1
 23 0 l 1
EndSplineSet
Validated: 1
Layer: 2
SplineSet
23 0 m 1,0,-1
 23 78 l 1,1,-1
 261 435 l 1,2,-1
 41 435 l 1,3,-1
 41 521 l 1,4,-1
 368 521 l 1,5,-1
 368 443 l 1,6,-1
 130 86 l 1,7,-1
 379 86 l 1,8,-1
 379 0 l 1,9,-1
 23 0 l 1,0,-1
EndSplineSet
EndChar

StartChar: braceleft
Encoding: 123 123 92
Width: 402
Flags: W
HStem: -182 86<264.874 335> 222 86<67 126.485> 616 86<264.874 335>
VStem: 147 107<-84.7316 201.492 326.458 604.532>
LayerCount: 3
Back
SplineSet
241 -182 m 2
 213 -182 147 -146 147 -67 c 2
 147 161 l 2
 147 224 100 238 67 239 c 1
 67 291 l 1
 100 293 147 305 147 359 c 2
 147 587 l 2
 147 665 213 702 241 702 c 2
 305 702 l 1
 305 645 l 1
 288 645 l 2
 225 645 224 601 224 573 c 2
 224 362 l 2
 224 302 176 277 130 273 c 1
 130 254 l 1
 176 251 224 236 224 159 c 2
 224 -54 l 2
 224 -81 225 -126 288 -126 c 2
 305 -126 l 1
 305 -182 l 1
 241 -182 l 2
EndSplineSet
Fore
SplineSet
241 -182 m 2
 213 -182 147 -146 147 -67 c 2
 147 144 l 2
 147 207 100 222 67 222 c 1
 67 308 l 1
 100 308 147 322 147 376 c 2
 147 587 l 2
 147 665 213 702 241 702 c 2
 335 702 l 1
 335 616 l 1
 318 616 l 2
 255 616 254 572 254 544 c 2
 254 379 l 2
 254 319 206 277 160 273 c 1
 160 254 l 1
 206 251 254 219 254 142 c 2
 254 -24 l 2
 254 -51 255 -96 318 -96 c 2
 335 -96 l 1
 335 -182 l 1
 241 -182 l 2
EndSplineSet
Validated: 1
Layer: 2
SplineSet
241 -182 m 2,0,1
 213 -182 213 -182 180 -151 c 128,-1,2
 147 -120 147 -120 147 -67 c 2,3,-1
 147 144 l 2,4,5
 147 186 147 186 122.5 204 c 128,-1,6
 98 222 98 222 67 222 c 1,7,-1
 67 308 l 1,8,9
 98 308 98 308 122.5 324 c 128,-1,10
 147 340 147 340 147 376 c 2,11,-1
 147 587 l 2,12,13
 147 639 147 639 180 670.5 c 128,-1,14
 213 702 213 702 241 702 c 2,15,-1
 335 702 l 1,16,-1
 335 616 l 1,17,-1
 318 616 l 2,18,19
 289 616 289 616 273.5 602.5 c 128,-1,20
 258 589 258 589 256 576.5 c 128,-1,21
 254 564 254 564 254 544 c 2,22,-1
 254 379 l 2,23,24
 254 336 254 336 225.5 306 c 128,-1,25
 197 276 197 276 160 273 c 1,26,-1
 160 254 l 1,27,28
 199 251 199 251 226.5 223.5 c 128,-1,29
 254 196 254 196 254 142 c 2,30,-1
 254 -24 l 2,31,32
 254 -38 254 -38 255.5 -47 c 128,-1,33
 257 -56 257 -56 262.5 -69 c 128,-1,34
 268 -82 268 -82 282 -89 c 128,-1,35
 296 -96 296 -96 318 -96 c 2,36,-1
 335 -96 l 1,37,-1
 335 -182 l 1,38,-1
 241 -182 l 2,0,1
EndSplineSet
EndChar

StartChar: bar
Encoding: 124 124 93
Width: 294
Flags: W
HStem: 694 20G<104 190>
VStem: 104 86<-196 714>
LayerCount: 3
Back
SplineSet
107 0 m 1
 107 700 l 1
 187 700 l 1
 187 0 l 1
 107 0 l 1
EndSplineSet
Fore
SplineSet
104 -196 m 1
 104 714 l 1
 190 714 l 1
 190 -196 l 1
 104 -196 l 1
EndSplineSet
Validated: 1
Layer: 2
SplineSet
104 -196 m 1,0,-1
 104 714 l 1,1,-1
 190 714 l 1,2,-1
 190 -196 l 1,3,-1
 104 -196 l 1,0,-1
EndSplineSet
EndChar

StartChar: braceright
Encoding: 125 125 94
Width: 402
Flags: W
HStem: -185 86<67 136.55> 219 86<275.823 335> 613 86<67 136.55>
VStem: 148 107<-88.5151 197.583 324.738 601.532>
LayerCount: 3
Back
SplineSet
225 158 m 2
 225 -71 l 2
 225 -149 159 -185 132 -185 c 2
 67 -185 l 1
 67 -129 l 1
 86 -129 l 2
 147 -129 149 -83 149 -57 c 2
 149 156 l 2
 149 233 192 247 239 250 c 1
 239 271 l 1
 192 276 149 299 149 359 c 2
 149 570 l 2
 149 596 147 642 86 642 c 2
 67 642 l 1
 67 699 l 1
 132 699 l 2
 159 699 225 662 225 584 c 2
 225 356 l 2
 225 302 273 290 305 288 c 1
 305 236 l 1
 273 235 225 221 225 158 c 2
EndSplineSet
Fore
SplineSet
255 141 m 2
 255 -71 l 2
 255 -149 189 -185 162 -185 c 2
 67 -185 l 1
 67 -99 l 1
 86 -99 l 2
 147 -99 148 -53 148 -27 c 2
 148 156 l 2
 148 233 195 247 242 250 c 1
 242 271 l 1
 195 276 148 299 148 359 c 2
 148 541 l 2
 148 567 147 613 86 613 c 2
 67 613 l 1
 67 699 l 1
 162 699 l 2
 189 699 255 662 255 584 c 2
 255 373 l 2
 255 319 303 305 335 305 c 1
 335 219 l 1
 303 219 255 204 255 141 c 2
EndSplineSet
Validated: 1
Layer: 2
SplineSet
255 141 m 2,0,-1
 255 -71 l 2,1,2
 255 -123 255 -123 222 -154 c 128,-1,3
 189 -185 189 -185 162 -185 c 2,4,-1
 67 -185 l 1,5,-1
 67 -99 l 1,6,-1
 86 -99 l 2,7,8
 114 -99 114 -99 129 -85 c 128,-1,9
 144 -71 144 -71 146 -58.5 c 128,-1,10
 148 -46 148 -46 148 -27 c 2,11,-1
 148 156 l 2,12,13
 148 208 148 208 173.5 227.5 c 128,-1,14
 199 247 199 247 242 250 c 1,15,-1
 242 271 l 1,16,17
 202 275 202 275 175 296.5 c 128,-1,18
 148 318 148 318 148 359 c 2,19,-1
 148 541 l 2,20,21
 148 560 148 560 146 572.5 c 128,-1,22
 144 585 144 585 129 599 c 128,-1,23
 114 613 114 613 86 613 c 2,24,-1
 67 613 l 1,25,-1
 67 699 l 1,26,-1
 162 699 l 2,27,28
 189 699 189 699 222 667.5 c 128,-1,29
 255 636 255 636 255 584 c 2,30,-1
 255 373 l 2,31,32
 255 337 255 337 279.5 321 c 128,-1,33
 304 305 304 305 335 305 c 1,34,-1
 335 219 l 1,35,36
 304 219 304 219 279.5 201 c 128,-1,37
 255 183 255 183 255 141 c 2,0,-1
EndSplineSet
EndChar

StartChar: asciitilde
Encoding: 126 126 95
Width: 588
Flags: W
HStem: 220 86<361.707 444.438> 339 86<143.468 231.985>
VStem: 28 107<253 334.206> 455 107<313.189 391>
LayerCount: 3
Back
SplineSet
541 391 m 1
 536 313 517 220 423 220 c 0
 336 220 240 330 173 330 c 0
 138 330 135 294 135 253 c 1
 46 253 l 1
 55 392 113 425 158 425 c 0
 254 425 360 305 418 305 c 0
 449 305 453 342 455 391 c 1
 541 391 l 1
EndSplineSet
Fore
SplineSet
562 391 m 1
 557 313 537 220 433 220 c 0
 336 220 240 339 173 339 c 0
 138 339 135 294 135 253 c 1
 28 253 l 1
 37 392 95 425 149 425 c 0
 254 425 360 306 418 306 c 0
 449 306 453 342 455 391 c 1
 562 391 l 1
EndSplineSet
Validated: 1
Layer: 2
SplineSet
562 391 m 1,0,1
 560 357 560 357 554 330.5 c 128,-1,2
 548 304 548 304 535 277 c 128,-1,3
 522 250 522 250 496 235 c 128,-1,4
 470 220 470 220 433 220 c 0,5,6
 392 220 392 220 341 250 c 128,-1,7
 290 280 290 280 245 309.5 c 128,-1,8
 200 339 200 339 173 339 c 0,9,10
 135 339 135 339 135 253 c 1,11,-1
 28 253 l 1,12,13
 39 425 39 425 149 425 c 0,14,15
 184 425 184 425 227 406.5 c 128,-1,16
 270 388 270 388 301.5 365.5 c 128,-1,17
 333 343 333 343 366 324.5 c 128,-1,18
 399 306 399 306 418 306 c 0,19,20
 439 306 439 306 446 326.5 c 128,-1,21
 453 347 453 347 455 391 c 1,22,-1
 562 391 l 1,0,1
EndSplineSet
EndChar

StartChar: uni0E10.descless
Encoding: 63232 63232 96
Width: 613
Flags: W
HStem: -5 78<314.348 398.981> 163 68<150.225 189.723> 306 68<150.66 219.761> 441 50<195 214.948> 494 78<366.626 561.082> 526 78<207.334 406.784>
VStem: 77 70<234.945 301.687> 190 118<77.4541 163> 224 84<234.25 301.75> 405 118<79.665 347.205>
LayerCount: 3
Back
SplineSet
484 572 m 0xfb
 543 572 555 598 555 598 c 1
 590 532 l 1
 587 530 558 497 489 497 c 0xfb
 403 497 362 534 287 534 c 0
 214 534 201 502 195 495 c 1
 199 495 270 495 363 466 c 0
 458 435 503 402 524 353 c 0
 534 332 536 317 536 302 c 0
 536 292 535 283 535 273 c 2
 526 133 l 2
 519 17 428 -3 360 -3 c 0
 286.5 -3 217.059 19.4059 208 110 c 2
 202 170 l 1
 195 169 187 168 180 168 c 0
 128 168 77 203 77 266 c 0
 77 325 118 373 185 373 c 0
 285 373 306 303 310 247 c 2
 317 115 l 2
 319 89 325 72 363 72 c 0
 397 72 411 78 412 104 c 2
 422 268 l 2
 423 274 423 280 423 286 c 0
 423 309 417 329 399 351 c 0
 371 382 300 409 218 423 c 0
 132 438 67 445 66 445 c 1
 66 476 110 604 278 604 c 0xf7
 368 604 422 572 484 572 c 0xfb
181 305 m 0
 157 305 145 287 145 269 c 0
 145 251 157 233 181 233 c 0
 206 233 218 251 218 269 c 0
 218 287 206 305 181 305 c 0
EndSplineSet
Fore
SplineSet
195 491 m 1xf740
 301 491 415 450 452 425 c 0
 488 400 523 351 523 302 c 2
 523 139 l 2
 523 15 458 -5 357 -5 c 0
 223 -5 190 67 190 141 c 2
 190 163 l 1
 102 163 77 226 77 267 c 0
 77 331 127 374 190 374 c 0xf740
 262 374 308 321 308 267 c 2xf6c0
 308 144 l 2
 308 91 308 73 363 73 c 0
 395 73 405 89 405 126 c 2
 405 286 l 2
 405 309 399 329 381 351 c 1
 353 382 300 405 218 419 c 0
 132 434 67 441 66 441 c 1
 66 472 110 604 278 604 c 0xf740
 368 604 422 572 484 572 c 0
 543 572 555 598 555 598 c 1
 590 532 l 1
 587 530 558 494 489 494 c 0xfb40
 403 494 362 526 287 526 c 0
 214 526 201 498 195 491 c 1xf740
224 268 m 0xf2c0
 224 288 210 306 185 306 c 0
 160 306 147 287 147 268 c 0
 147 250 159 231 185 231 c 0
 211 231 224 250 224 268 c 0xf2c0
EndSplineSet
Validated: 1
Layer: 2
SplineSet
195 491 m 1,0,1
 267 491 267 491 343 469 c 128,-1,2
 419 447 419 447 452 425 c 0,3,4
 481 405 481 405 502 371 c 128,-1,5
 523 337 523 337 523 302 c 2,6,-1
 523 139 l 2,7,8
 523 53 523 53 482.5 24 c 128,-1,9
 442 -5 442 -5 357 -5 c 0,10,11
 190 -5 190 -5 190 141 c 2,12,-1
 190 163 l 1,13,14
 131 163 131 163 104 195.5 c 128,-1,15
 77 228 77 228 77 267 c 0,16,17
 77 314 77 314 109.5 344 c 128,-1,18
 142 374 142 374 190 374 c 0,19,20
 242 374 242 374 275 342 c 128,-1,21
 308 310 308 310 308 267 c 2,22,-1
 308 144 l 2,23,24
 308 120 308 120 309 110 c 128,-1,25
 310 100 310 100 315 89.5 c 128,-1,26
 320 79 320 79 331 76 c 128,-1,27
 342 73 342 73 363 73 c 0,28,29
 386 73 386 73 395.5 85.5 c 128,-1,30
 405 98 405 98 405 126 c 2,31,-1
 405 286 l 2,32,33
 405 322 405 322 381 351 c 0,34,35
 338 398 338 398 218 419 c 0,36,37
 92 441 92 441 66 441 c 1,38,39
 66 456 66 456 76.5 480 c 128,-1,40
 87 504 87 504 108.5 533.5 c 128,-1,41
 130 563 130 563 175 583.5 c 128,-1,42
 220 604 220 604 278 604 c 0,43,44
 326 604 326 604 391 588 c 128,-1,45
 456 572 456 572 484 572 c 0,46,47
 510 572 510 572 528 578.5 c 128,-1,48
 546 585 546 585 550.5 591.5 c 2,49,-1
 555 598 l 1,50,-1
 590 532 l 1,51,-1
 586.5 528.5 l 2,52,53
 583 525 583 525 578 521 c 128,-1,54
 573 517 573 517 564 512 c 128,-1,55
 555 507 555 507 545 503 c 128,-1,56
 535 499 535 499 520 496.5 c 128,-1,57
 505 494 505 494 489 494 c 0,58,59
 445 494 445 494 384 510 c 128,-1,60
 323 526 323 526 287 526 c 0,61,62
 272 526 272 526 259.5 524.5 c 128,-1,63
 247 523 247 523 238 520 c 128,-1,64
 229 517 229 517 222.5 514.5 c 128,-1,65
 216 512 216 512 211 507.5 c 128,-1,66
 206 503 206 503 203.5 501 c 128,-1,67
 201 499 201 499 198 495 c 2,68,-1
 195 491 l 1,0,1
224 268 m 0,69,70
 224 284 224 284 213.5 295 c 128,-1,71
 203 306 203 306 185 306 c 256,72,73
 167 306 167 306 157 294.5 c 128,-1,74
 147 283 147 283 147 268 c 256,75,76
 147 253 147 253 157 242 c 128,-1,77
 167 231 167 231 185 231 c 256,78,79
 203 231 203 231 213.5 242 c 128,-1,80
 224 253 224 253 224 268 c 0,69,70
EndSplineSet
EndChar

StartChar: ellipsis
Encoding: 8230 8230 101
Width: 637
VWidth: 2048
Flags: W
HStem: 0 133<62.0396 167.925 273.226 380.877 484.633 588>
VStem: 49 135<16.1858 119.96> 261 133<12.3098 119.96> 472 133<17.161 119.96>
LayerCount: 3
Fore
SplineSet
184 66 m 0
 184 33 161 0 116 0 c 0
 72 0 49 21 49 66 c 0
 49 110 72 133 116 133 c 0
 161 133 184 110 184 66 c 0
326 133 m 0
 371 133 394 110 394 66 c 0
 394 21 371 0 326 0 c 0
 282 0 261 21 261 66 c 0
 261 110 282 133 326 133 c 0
605 66 m 0
 605 24 572 0 538 0 c 0
 494 0 472 21 472 66 c 0
 472 110 494 133 538 133 c 0
 582 133 605 110 605 66 c 0
EndSplineSet
Validated: 1
Layer: 2
SplineSet
184 66 m 0,0,1
 184 39 184 39 166 19.5 c 128,-1,2
 148 0 148 0 116 0 c 0,3,4
 49 0 49 0 49 66 c 0,5,6
 49 133 49 133 116 133 c 0,7,8
 184 133 184 133 184 66 c 0,0,1
326 133 m 0,9,10
 394 133 394 133 394 66 c 0,11,12
 394 0 394 0 326 0 c 0,13,14
 261 0 261 0 261 66 c 0,15,16
 261 133 261 133 326 133 c 0,9,10
605 66 m 0,17,18
 605 36 605 36 585 18 c 128,-1,19
 565 0 565 0 538 0 c 0,20,21
 472 0 472 0 472 66 c 0,22,23
 472 133 472 133 538 133 c 0,24,25
 605 133 605 133 605 66 c 0,17,18
EndSplineSet
EndChar

StartChar: uni0E49.low_left
Encoding: 63238 63238 103
Width: 0
Flags: W
HStem: 791 59<-552.257 -522> 946 58<-553.72 -473.164>
VStem: -624 63<857.743 938.001> -465 74<857.75 937.654>
LayerCount: 3
Back
SplineSet
-510 716 m 0
 -510 716 l 0
 -490 742 -486 766 -486 766 c 1
 -512 766 -550 782 -566 814 c 0
 -589 868 -559 944 -486 947 c 0
 -428 949 -385 917 -377 868 c 0
 -369 809 -400 753 -418 740 c 1
 -388 745 -360 753 -328 768 c 0
 -291 786 -273 802 -250 823 c 0
 -202 868 -175 923 -175 923 c 1
 -175 785 l 1
 -175 785 -230 728 -322 699 c 0
 -403 673 -509 667 -559 673 c 1
 -559 673 -530 690 -510 716 c 0
-478 815 m 0
 -425 815 -428 898 -481 898 c 0
 -535 898 -532 815 -478 815 c 0
EndSplineSet
Fore
Refer: 108 63243 N 1 0 0 1 -166 0 2
Validated: 1
Layer: 2
Refer: 108 63243 N 1 0 0 1 -166 0 2
EndChar

StartChar: uni0E4A.low_left
Encoding: 63239 63239 104
Width: 0
Flags: W
HStem: 677 40<-573.215 -506.033> 797 41<-571.753 -505.733> 901 74<-560.831 -466.586 -421.229 -349.319>
VStem: -501 45<720.513 793.063> -336 81<774.281 887.958> -175 93<864.584 923.462>
LayerCount: 3
Back
SplineSet
-535 834 m 0xe0
 -535 834 l 0
 -543 819 -540 802 -540 799 c 1
 -538 799 -507 814 -475 799 c 0
 -435 779 -434 714 -463 688 c 0
 -504 650 -570 676 -592 722 c 0
 -621 785 -601 906 -527 921 c 0
 -469 932 -437 887 -435 887 c 0xe0
 -434 887 -400 923 -357 923 c 0
 -317 923 -277 895 -273 837 c 0
 -267 789 -290 750 -290 750 c 1
 -285 751 -253 769 -230 809 c 0
 -208 849 -204 898 -204 917 c 1
 -124 875 l 1
 -124 875 -146 769 -236 719 c 0
 -294 685 -380 674 -405 674 c 0
 -400 674 -354 704 -343 768 c 0
 -336 812 -343 858 -382 858 c 0xd0
 -405 858 -438 832 -438 832 c 2
 -440 832 -468 860 -501 860 c 0
 -521 860 -529 848 -535 834 c 0xe0
-515 705 m 0
 -471 705 -471 773 -515 773 c 0
 -559 773 -559 705 -515 705 c 0
EndSplineSet
Fore
Refer: 109 63244 N 1 0 0 1 -166 0 2
Validated: 1
Layer: 2
Refer: 109 63244 N 1 0 0 1 -166 0 2
EndChar

StartChar: uni0E4B.low_left
Encoding: 63240 63240 105
Width: 0
Flags: W
HStem: 808 98<-613 -474 -356 -216>
VStem: -474 118<682 808 906 1033>
LayerCount: 3
Back
SplineSet
-468 981 m 1
 -356 981 l 1
 -356 871 l 1
 -236 871 l 1
 -236 788 l 1
 -356 788 l 1
 -356 679 l 1
 -468 679 l 1
 -468 788 l 1
 -586 788 l 1
 -586 871 l 1
 -468 871 l 1
 -468 981 l 1
EndSplineSet
Fore
Refer: 110 63245 S 1 0 0 1 -270 0 2
Validated: 1
Layer: 2
Refer: 110 63245 S 1 0 0 1 -270 0 2
EndChar

StartChar: uni0E4C.low_left
Encoding: 63241 63241 106
Width: 0
Flags: W
HStem: 668 48<-394.648 -313.186> 814 47<-361.834 -314.375>
VStem: -472 70<723.675 806.065> -305 50<723.574 806.675> -210 95<986.561 1056>
LayerCount: 3
Back
SplineSet
-342 874 m 0
 -342 874 l 0
 -395 869 -400 843 -402 843 c 0
 -399 843 -303 843 -305 746 c 0
 -305 667 -423 642 -472 700 c 0
 -517 753 -503 846 -445 887 c 0
 -386 927 -336 914 -288 949 c 0
 -264 967 -264 1013 -264 1018 c 1
 -179 1018 l 1
 -179 1013 -187 953 -212 926 c 0
 -238 898 -268 880 -342 874 c 0
-392 713 m 0
 -334 713 -334 800 -392 800 c 0
 -451 800 -451 713 -392 713 c 0
EndSplineSet
Fore
Refer: 111 63246 N 1 0 0 1 -166 0 2
Validated: 1
Layer: 2
Refer: 111 63246 N 1 0 0 1 -166 0 2
EndChar

StartChar: uni0E48.low
Encoding: 63242 63242 107
Width: 0
Flags: W
HStem: 684 254<-202 -84>
VStem: -202 118<684 938>
AnchorPoint: "AboveMark" -143 988 basemark 0
AnchorPoint: "AboveBase" -87 613 mark 0
LayerCount: 3
Fore
SplineSet
-202 684 m 1
 -202 938 l 1
 -84 938 l 1
 -84 684 l 1
 -202 684 l 1
EndSplineSet
Validated: 1
Layer: 2
SplineSet
-202 684 m 1,0,-1
 -202 938 l 1,1,-1
 -84 938 l 1,2,-1
 -84 684 l 1,3,-1
 -202 684 l 1,0,-1
EndSplineSet
Substitution2: "Thai Phinthu Mai Ek Reordering" uni0E3A
EndChar

StartChar: uni0E49.low
Encoding: 63243 63243 108
Width: 0
Flags: W
HStem: 791 59<-386.257 -356> 946 58<-387.72 -307.164>
VStem: -458 63<857.743 938.001> -299 74<857.75 937.654>
AnchorPoint: "AboveMark" -223 1054 basemark 0
AnchorPoint: "AboveBase" -87 613 mark 0
LayerCount: 3
Fore
SplineSet
11 814 m 1
 -29 772 -147 678 -384 678 c 0
 -406 678 -425 679 -440 681 c 1
 -440 681 -406 699 -382 731 c 0
 -359 762 -356 791 -356 791 c 1
 -395 791 -458 822 -458 895 c 0
 -458 949 -420 1004 -348 1004 c 0
 -279 1004 -225 963 -225 885 c 0
 -225 827 -256 774 -273 760 c 1
 -74 788 7 972 11 976 c 1
 11 814 l 1
-299 898 m 0
 -299 926 -319 946 -347 946 c 0
 -375 946 -395 926 -395 898 c 0
 -395 870 -375 850 -347 850 c 0
 -319 850 -299 870 -299 898 c 0
EndSplineSet
Validated: 1
Layer: 2
SplineSet
11 814 m 1,0,1
 -8 794 -8 794 -36 774.5 c 128,-1,2
 -64 755 -64 755 -111 731 c 128,-1,3
 -158 707 -158 707 -229.5 692.5 c 128,-1,4
 -301 678 -301 678 -384 678 c 0,5,6
 -418 678 -418 678 -440 681 c 1,7,8
 -406 699 -406 699 -382 731 c 0,9,10
 -372 745 -372 745 -365.5 760 c 128,-1,11
 -359 775 -359 775 -357.5 783 c 2,12,-1
 -356 791 l 1,13,14
 -392 791 -392 791 -425 818 c 128,-1,15
 -458 845 -458 845 -458 895 c 0,16,17
 -458 939 -458 939 -428.5 971.5 c 128,-1,18
 -399 1004 -399 1004 -348 1004 c 0,19,20
 -294 1004 -294 1004 -259.5 973 c 128,-1,21
 -225 942 -225 942 -225 885 c 0,22,23
 -225 846 -225 846 -241 809.5 c 128,-1,24
 -257 773 -257 773 -273 760 c 1,25,26
 -232 766 -232 766 -195 780.5 c 128,-1,27
 -158 795 -158 795 -130.5 814.5 c 128,-1,28
 -103 834 -103 834 -79.5 855.5 c 128,-1,29
 -56 877 -56 877 -39.5 898.5 c 128,-1,30
 -23 920 -23 920 -12.5 936.5 c 128,-1,31
 -2 953 -2 953 4.5 964.5 c 2,32,-1
 11 976 l 1,33,-1
 11 814 l 1,0,1
-299 898 m 256,34,35
 -299 919 -299 919 -312.5 932.5 c 128,-1,36
 -326 946 -326 946 -347 946 c 256,37,38
 -368 946 -368 946 -381.5 932.5 c 128,-1,39
 -395 919 -395 919 -395 898 c 256,40,41
 -395 877 -395 877 -381.5 863.5 c 128,-1,42
 -368 850 -368 850 -347 850 c 256,43,44
 -326 850 -326 850 -312.5 863.5 c 128,-1,45
 -299 877 -299 877 -299 898 c 256,34,35
EndSplineSet
Substitution2: "Thai Phinthu Mai Tho Reordering" uni0E3A
EndChar

StartChar: uni0E4A.low
Encoding: 63244 63244 109
Width: 0
Flags: W
HStem: 677 40<-407.215 -340.033> 797 41<-405.753 -339.733> 901 74<-394.831 -300.586 -255.229 -183.319>
VStem: -335 45<720.513 793.063> -170 81<774.281 887.958> -9 93<864.584 923.462>
AnchorPoint: "AboveMark" -286 1023 basemark 0
AnchorPoint: "AboveBase" -87 613 mark 0
LayerCount: 3
Fore
SplineSet
-356 901 m 0
 -397 901 -407 859 -407 845 c 0
 -407 837 -405 832 -405 829 c 1
 -404 829 -388 838 -366 838 c 0
 -324 838 -290 806 -290 758 c 0
 -290 708 -329 677 -374 677 c 0
 -416 677 -483 707 -483 814 c 0
 -483 888 -449 975 -364 975 c 0
 -310 975 -285 938 -282 933 c 1
 -278 937 -237 975 -189 975 c 0
 -129 975 -89 923 -89 858 c 0
 -89 809 -112 771 -112 771 c 1
 -106 774 -69 794 -41 842 c 1
 -15 889 -9 946 -9 966 c 1
 84 920 l 1
 84 920 58 794 -48 734 c 0
 -117 695 -210 682 -245 682 c 1
 -228 691 -170 740 -170 827 c 0
 -170 866 -184 898 -221 898 c 0
 -245 898 -280 872 -285 868 c 1
 -290 872 -319 901 -356 901 c 0
-374 717 m 0
 -348 717 -335 737 -335 757 c 0
 -335 777 -348 797 -374 797 c 0
 -400 797 -413 777 -413 757 c 0
 -413 737 -400 717 -374 717 c 0
EndSplineSet
Validated: 1
Layer: 2
SplineSet
-356 901 m 0,0,1
 -383 901 -383 901 -395 881.5 c 128,-1,2
 -407 862 -407 862 -407 845 c 0,3,4
 -407 840 -407 840 -406 835 c 128,-1,5
 -405 830 -405 830 -405 829 c 2,6,-1
 -403 830 l 2,7,8
 -401 831 -401 831 -397.5 832.5 c 128,-1,9
 -394 834 -394 834 -389.5 835 c 128,-1,10
 -385 836 -385 836 -378.5 837 c 128,-1,11
 -372 838 -372 838 -366 838 c 0,12,13
 -334 838 -334 838 -312 815.5 c 128,-1,14
 -290 793 -290 793 -290 758 c 0,15,16
 -290 722 -290 722 -314.5 699.5 c 128,-1,17
 -339 677 -339 677 -374 677 c 0,18,19
 -414 677 -414 677 -448.5 709.5 c 128,-1,20
 -483 742 -483 742 -483 814 c 0,21,22
 -483 877 -483 877 -453 926 c 128,-1,23
 -423 975 -423 975 -364 975 c 0,24,25
 -340 975 -340 975 -319.5 964.5 c 128,-1,26
 -299 954 -299 954 -292.5 946.5 c 128,-1,27
 -286 939 -286 939 -282 933 c 1,28,29
 -240 975 -240 975 -189 975 c 0,30,31
 -145 975 -145 975 -117 941.5 c 128,-1,32
 -89 908 -89 908 -89 858 c 0,33,34
 -89 836 -89 836 -94.5 814.5 c 128,-1,35
 -100 793 -100 793 -106 782 c 2,36,-1
 -112 771 l 1,37,38
 -70 792 -70 792 -41 842 c 0,39,40
 -9 900 -9 900 -9 966 c 1,41,-1
 84 920 l 1,42,43
 83 915 83 915 80.5 906 c 128,-1,44
 78 897 78 897 68 872 c 128,-1,45
 58 847 58 847 44.5 825 c 128,-1,46
 31 803 31 803 6.5 777 c 128,-1,47
 -18 751 -18 751 -48 734 c 0,48,49
 -94 708 -94 708 -152 695 c 128,-1,50
 -210 682 -210 682 -245 682 c 1,51,52
 -223 694 -223 694 -196.5 732.5 c 128,-1,53
 -170 771 -170 771 -170 827 c 0,54,55
 -170 898 -170 898 -221 898 c 0,56,57
 -248 898 -248 898 -285 868 c 1,58,59
 -326 901 -326 901 -356 901 c 0,0,1
-374 717 m 256,60,61
 -356 717 -356 717 -345.5 729 c 128,-1,62
 -335 741 -335 741 -335 757 c 256,63,64
 -335 773 -335 773 -345.5 785 c 128,-1,65
 -356 797 -356 797 -374 797 c 256,66,67
 -392 797 -392 797 -402.5 785 c 128,-1,68
 -413 773 -413 773 -413 757 c 256,69,70
 -413 741 -413 741 -402.5 729 c 128,-1,71
 -392 717 -392 717 -374 717 c 256,60,61
EndSplineSet
Substitution2: "Thai Phinthu Mai Tri Reordering" uni0E3A
EndChar

StartChar: uni0E4B.low
Encoding: 63245 63245 110
Width: 0
Flags: W
HStem: 808 98<-343 -204 -86 54>
VStem: -204 118<682 808 906 1033>
AnchorPoint: "AboveMark" -145 1083 basemark 0
AnchorPoint: "AboveBase" 17 613 mark 0
LayerCount: 3
Fore
SplineSet
-204 1033 m 1
 -86 1033 l 1
 -86 906 l 1
 54 906 l 1
 54 808 l 1
 -86 808 l 1
 -86 682 l 1
 -204 682 l 1
 -204 808 l 1
 -343 808 l 1
 -343 906 l 1
 -204 906 l 1
 -204 1033 l 1
EndSplineSet
Validated: 1
Layer: 2
SplineSet
-204 1033 m 1,0,-1
 -86 1033 l 1,1,-1
 -86 906 l 1,2,-1
 54 906 l 1,3,-1
 54 808 l 1,4,-1
 -86 808 l 1,5,-1
 -86 682 l 1,6,-1
 -204 682 l 1,7,-1
 -204 808 l 1,8,-1
 -343 808 l 1,9,-1
 -343 906 l 1,10,-1
 -204 906 l 1,11,-1
 -204 1033 l 1,0,-1
EndSplineSet
Substitution2: "Thai Phinthu Mai Chattawa Reordering" uni0E3A
EndChar

StartChar: uni0E4C.low
Encoding: 63246 63246 111
Width: 0
Flags: W
HStem: 668 48<-228.648 -147.186> 814 47<-195.834 -148.375>
VStem: -306 70<723.675 806.065> -139 50<723.574 806.675> -44 95<986.561 1056>
AnchorPoint: "AboveMark" -187 988 basemark 0
AnchorPoint: "AboveBase" -87 613 mark 0
LayerCount: 3
Fore
SplineSet
-193 668 m 0
 -261 668 -306 723 -306 790 c 0
 -306 836 -285 882 -245 910 c 0
 -157 970 -44 930 -44 1056 c 1
 51 1056 l 1
 51 1052 44 986 15 953 c 0
 -14 921 -51 901 -130 895 c 0
 -190 891 -195 861 -196 861 c 1
 -192 861 -89 861 -89 759 c 0
 -89 700 -141 668 -193 668 c 0
-187 716 m 0
 -155 716 -139 740 -139 765 c 0
 -139 790 -155 814 -187 814 c 0
 -220 814 -236 790 -236 765 c 0
 -236 740 -220 716 -187 716 c 0
EndSplineSet
Validated: 1
Layer: 2
SplineSet
-193 668 m 0,0,1
 -243 668 -243 668 -274.5 703.5 c 128,-1,2
 -306 739 -306 739 -306 790 c 0,3,4
 -306 867 -306 867 -245 910 c 0,5,6
 -218 928 -218 928 -177.5 940 c 128,-1,7
 -137 952 -137 952 -110.5 958.5 c 128,-1,8
 -84 965 -84 965 -64 988.5 c 128,-1,9
 -44 1012 -44 1012 -44 1056 c 1,10,-1
 51 1056 l 1,11,12
 51 1051 51 1051 48.5 1035 c 128,-1,13
 46 1019 46 1019 37 993.5 c 128,-1,14
 28 968 28 968 15 953 c 0,15,16
 -8 927 -8 927 -41 913 c 128,-1,17
 -74 899 -74 899 -130 895 c 0,18,19
 -142 894 -142 894 -152.5 892 c 128,-1,20
 -163 890 -163 890 -169.5 886.5 c 128,-1,21
 -176 883 -176 883 -181 879.5 c 128,-1,22
 -186 876 -186 876 -188.5 873 c 128,-1,23
 -191 870 -191 870 -193 867 c 128,-1,24
 -195 864 -195 864 -195.5 862.5 c 2,25,-1
 -196 861 l 1,26,27
 -190 861 -190 861 -182.5 860.5 c 128,-1,28
 -175 860 -175 860 -157 854.5 c 128,-1,29
 -139 849 -139 849 -125 839.5 c 128,-1,30
 -111 830 -111 830 -100 809 c 128,-1,31
 -89 788 -89 788 -89 759 c 0,32,33
 -89 717 -89 717 -120 692.5 c 128,-1,34
 -151 668 -151 668 -193 668 c 0,0,1
-187 716 m 256,35,36
 -164 716 -164 716 -151.5 730.5 c 128,-1,37
 -139 745 -139 745 -139 765 c 256,38,39
 -139 785 -139 785 -151.5 799.5 c 128,-1,40
 -164 814 -164 814 -187 814 c 256,41,42
 -210 814 -210 814 -223 799.5 c 128,-1,43
 -236 785 -236 785 -236 765 c 256,44,45
 -236 745 -236 745 -223 730.5 c 128,-1,46
 -210 716 -210 716 -187 716 c 256,35,36
EndSplineSet
Substitution2: "Thai Phinthu Thanthakhat Reordering" uni0E3A
EndChar

StartChar: uni0E0D.descless
Encoding: 63247 63247 112
Width: 882
Flags: W
HStem: -5 68<202.991 263.022> 0 78<407 446 564 676.746> 142 68<227.045 263.201> 524 78<235.677 405.714> 575 20G<679 797>
VStem: 109 118<210 353.37> 109 90<64.9349 140.022> 267 70<65.7776 138.814> 446 118<78 483.031> 679 118<82.2486 595>
LayerCount: 3
Fore
SplineSet
639 78 m 2x75c0
 671 78 679 98 679 112 c 2
 679 595 l 1
 797 595 l 1
 797 130 l 2
 797 58 756 0 699 0 c 2
 407 0 l 1
 407 78 l 1
 446 78 l 1x6dc0
 446 402 l 2
 446 478 414 524 327 524 c 0
 252 524 209 486 209 486 c 1
 261 458 293 425 313 405 c 1
 293 395 227 364 227 279 c 2
 227 210 l 1
 246 210 337 204 337 105 c 0
 337 28 270 -5 227 -5 c 0xb5c0
 154 -5 109 43 109 127 c 2xb3c0
 109 279 l 2
 109 371 169 392 183 400 c 1
 141 444 54 483 49 484 c 1
 69 512 162 602 330 602 c 0
 506 602 564 508 564 414 c 2
 564 78 l 1
 639 78 l 2x75c0
232 142 m 0
 210 142 199 122 199 102 c 0
 199 82 210 63 232 63 c 0xa3c0
 256 63 267 83 267 102 c 0
 267 122 256 142 232 142 c 0
EndSplineSet
Validated: 1
Layer: 2
SplineSet
639 78 m 2,0,1
 661 78 661 78 670 88.5 c 128,-1,2
 679 99 679 99 679 112 c 2,3,-1
 679 595 l 1,4,-1
 797 595 l 1,5,-1
 797 130 l 2,6,7
 797 75 797 75 769 37.5 c 128,-1,8
 741 0 741 0 699 0 c 2,9,-1
 407 0 l 1,10,-1
 407 78 l 1,11,-1
 446 78 l 1,12,-1
 446 402 l 2,13,14
 446 524 446 524 327 524 c 0,15,16
 294 524 294 524 264.5 514.5 c 128,-1,17
 235 505 235 505 222 495.5 c 2,18,-1
 209 486 l 1,19,20
 259 459 259 459 313 405 c 1,21,22
 227 362 227 362 227 279 c 2,23,-1
 227 210 l 1,24,25
 239 210 239 210 253 207 c 128,-1,26
 267 204 267 204 288.5 195 c 128,-1,27
 310 186 310 186 323.5 162.5 c 128,-1,28
 337 139 337 139 337 105 c 0,29,30
 337 53 337 53 301.5 24 c 128,-1,31
 266 -5 266 -5 227 -5 c 0,32,33
 172 -5 172 -5 140.5 29.5 c 128,-1,34
 109 64 109 64 109 127 c 2,35,-1
 109 279 l 2,36,37
 109 298 109 298 112 314 c 128,-1,38
 115 330 115 330 121.5 342 c 128,-1,39
 128 354 128 354 133.5 362.5 c 128,-1,40
 139 371 139 371 148 378 c 128,-1,41
 157 385 157 385 162 388.5 c 128,-1,42
 167 392 167 392 175 396 c 2,43,-1
 183 400 l 1,44,45
 164 420 164 420 131.5 440.5 c 128,-1,46
 99 461 99 461 76 472 c 128,-1,47
 53 483 53 483 49 484 c 1,48,49
 59 498 59 498 79 515 c 128,-1,50
 99 532 99 532 133 553 c 128,-1,51
 167 574 167 574 219 588 c 128,-1,52
 271 602 271 602 330 602 c 0,53,54
 452 602 452 602 508 548 c 128,-1,55
 564 494 564 494 564 414 c 2,56,-1
 564 78 l 1,57,-1
 639 78 l 2,0,1
232 142 m 0,58,59
 216 142 216 142 207.5 130 c 128,-1,60
 199 118 199 118 199 102 c 256,61,62
 199 86 199 86 207.5 74.5 c 128,-1,63
 216 63 216 63 232 63 c 0,64,65
 249 63 249 63 258 74.5 c 128,-1,66
 267 86 267 86 267 102 c 256,67,68
 267 118 267 118 258 130 c 128,-1,69
 249 142 249 142 232 142 c 0,58,59
EndSplineSet
EndChar

StartChar: quoteleft
Encoding: 8216 8216 113
Width: 295
Flags: W
HStem: 450 145<125.192 193.183> 684 39<162.221 196>
VStem: 58 66<593 634.444>
LayerCount: 3
Fore
SplineSet
134 450 m 0
 104 450 58 467 58 545 c 0
 58 614 99 708 196 723 c 1
 196 684 l 1
 162 677 124 630 124 593 c 1
 130 595 137 595 143 595 c 0
 177 595 213 571 213 524 c 0
 213 465 164 450 134 450 c 0
EndSplineSet
Validated: 1
Layer: 2
SplineSet
134 450 m 256,0,1
 105 450 105 450 81.5 471.5 c 128,-1,2
 58 493 58 493 58 545 c 0,3,4
 58 605 58 605 93.5 659 c 128,-1,5
 129 713 129 713 196 723 c 1,6,-1
 196 684 l 1,7,8
 170 679 170 679 147 650 c 128,-1,9
 124 621 124 621 124 593 c 1,10,11
 130 595 130 595 143 595 c 0,12,13
 171 595 171 595 192 576 c 128,-1,14
 213 557 213 557 213 524 c 0,15,16
 213 485 213 485 188 467.5 c 128,-1,17
 163 450 163 450 134 450 c 256,0,1
EndSplineSet
EndChar

StartChar: quoteright
Encoding: 8217 8217 114
Width: 280
Flags: W
HStem: 460 40<84 119.321> 588 145<88.5 157.673>
VStem: 158 68<554.529 590>
LayerCount: 3
Fore
SplineSet
147 733 m 0
 178 733 226 719 226 644 c 0
 226 576 188 481 84 460 c 1
 84 500 l 1
 118 507 158 553 158 590 c 1
 151 588 145 588 139 588 c 0
 105 588 69 610 69 659 c 0
 69 702 95 733 147 733 c 0
EndSplineSet
Validated: 1
Layer: 2
SplineSet
147 733 m 0,0,1
 178 733 178 733 202 713.5 c 128,-1,2
 226 694 226 694 226 644 c 0,3,4
 226 584 226 584 190.5 529 c 128,-1,5
 155 474 155 474 84 460 c 1,6,-1
 84 500 l 1,7,8
 110 505 110 505 134 534 c 128,-1,9
 158 563 158 563 158 590 c 1,10,11
 151 588 151 588 139 588 c 0,12,13
 111 588 111 588 90 606.5 c 128,-1,14
 69 625 69 625 69 659 c 0,15,16
 69 692 69 692 89 712.5 c 128,-1,17
 109 733 109 733 147 733 c 0,0,1
EndSplineSet
EndChar

StartChar: quotedblleft
Encoding: 8220 8220 115
Width: 487
Flags: W
HStem: 448 147<139 194.136 354 408.137> 687 53<156.576 208 370.242 422>
LayerCount: 3
Fore
SplineSet
139 595 m 1
 180 595 216 565 216 521 c 0
 216 486 190 448 139 448 c 0
 79 448 60 497 60 543 c 0
 60 587 83 734 208 740 c 1
 208 687 l 1
 198 687 159 685 147 655 c 0
 139 634 137 620 137 610 c 0
 137 601 139 596 139 595 c 1
354 595 m 1
 395 595 429 566 429 520 c 0
 429 485 405 448 354 448 c 0
 292 448 274 498 274 544 c 0
 274 586 296 734 422 740 c 1
 422 687 l 1
 412 687 374 685 362 655 c 0
 354 636 352 622 352 612 c 0
 352 602 354 597 354 595 c 1
EndSplineSet
Validated: 1
Layer: 2
SplineSet
139 595 m 1,0,1
 171 595 171 595 193.5 574 c 128,-1,2
 216 553 216 553 216 521 c 0,3,4
 216 492 216 492 195.5 470 c 128,-1,5
 175 448 175 448 139 448 c 0,6,7
 98 448 98 448 79 475.5 c 128,-1,8
 60 503 60 503 60 543 c 0,9,10
 60 564 60 564 66 592 c 128,-1,11
 72 620 72 620 86.5 655 c 128,-1,12
 101 690 101 690 132.5 714 c 128,-1,13
 164 738 164 738 208 740 c 1,14,-1
 208 687 l 1,15,16
 160 687 160 687 147 655 c 0,17,18
 137 629 137 629 137 610 c 0,19,20
 137 606 137 606 137.5 602.5 c 128,-1,21
 138 599 138 599 138.5 597 c 2,22,-1
 139 595 l 1,0,1
354 595 m 1,23,24
 386 595 386 595 407.5 574.5 c 128,-1,25
 429 554 429 554 429 520 c 0,26,27
 429 491 429 491 409.5 469.5 c 128,-1,28
 390 448 390 448 354 448 c 0,29,30
 311 448 311 448 292.5 476 c 128,-1,31
 274 504 274 504 274 544 c 0,32,33
 274 565 274 565 280 592.5 c 128,-1,34
 286 620 286 620 300 654.5 c 128,-1,35
 314 689 314 689 346 713.5 c 128,-1,36
 378 738 378 738 422 740 c 1,37,-1
 422 687 l 1,38,39
 375 687 375 687 362 655 c 0,40,41
 352 631 352 631 352 612 c 0,42,43
 352 606 352 606 353 600.5 c 2,44,-1
 354 595 l 1,23,24
EndSplineSet
EndChar

StartChar: quotedblright
Encoding: 8221 8221 116
Width: 493
Flags: W
HStem: 449 54<80 134.127 294 346.491> 595 147<95.167 149 308.339 363>
VStem: 80 148<610.351 718.495>
LayerCount: 3
Fore
SplineSet
287 669 m 0
 287 704 312 742 363 742 c 0
 424 742 443 692 443 646 c 0
 443 609 422 456 294 449 c 1
 294 503 l 1
 305 503 343 504 356 535 c 0
 363 554 365 568 365 578 c 0
 365 588 363 593 363 595 c 1
 322 595 287 625 287 669 c 0
74 672 m 0
 74 706 99 742 149 742 c 0
 209 742 228 694 228 649 c 0
 228 637 227 626 225 616 c 0
 210 520 167 454 80 449 c 1
 80 503 l 1
 90 503 129 504 141 535 c 0
 149 554 151 568 151 578 c 0
 151 588 149 593 149 595 c 1
 105 595 74 626 74 672 c 0
EndSplineSet
Validated: 1
Layer: 2
SplineSet
287 669 m 0,0,1
 287 698 287 698 307 720 c 128,-1,2
 327 742 327 742 363 742 c 0,3,4
 405 742 405 742 424 714 c 128,-1,5
 443 686 443 686 443 646 c 0,6,7
 443 627 443 627 437 600 c 128,-1,8
 431 573 431 573 417 537.5 c 128,-1,9
 403 502 403 502 371 476.5 c 128,-1,10
 339 451 339 451 294 449 c 1,11,-1
 294 503 l 1,12,13
 343 503 343 503 356 535 c 0,14,15
 365 559 365 559 365 578 c 0,16,17
 365 584 365 584 364 589.5 c 2,18,-1
 363 595 l 1,19,20
 332 595 332 595 309.5 616 c 128,-1,21
 287 637 287 637 287 669 c 0,0,1
74 672 m 0,22,23
 74 700 74 700 94 721 c 128,-1,24
 114 742 114 742 149 742 c 0,25,26
 190 742 190 742 209 715 c 128,-1,27
 228 688 228 688 228 649 c 0,28,29
 228 631 228 631 225 616 c 0,30,31
 200 456 200 456 80 449 c 1,32,-1
 80 503 l 1,33,34
 129 503 129 503 141 535 c 0,35,36
 151 559 151 559 151 578 c 0,37,38
 151 584 151 584 150 589.5 c 2,39,-1
 149 595 l 1,40,41
 116 595 116 595 95 616.5 c 128,-1,42
 74 638 74 638 74 672 c 0,22,23
EndSplineSet
EndChar

StartChar: bullet
Encoding: 8226 8226 117
Width: 531
Flags: W
HStem: 100 337<196.057 366.596>
VStem: 113 337<181.336 355.401>
LayerCount: 3
Fore
SplineSet
281 437 m 0
 394 437 450 353 450 268 c 0
 450 184 394 100 281 100 c 0
 169 100 113 184 113 268 c 0
 113 353 169 437 281 437 c 0
EndSplineSet
Validated: 1
Layer: 2
SplineSet
281 437 m 0,0,1
 361 437 361 437 405.5 387 c 128,-1,2
 450 337 450 337 450 268 c 0,3,4
 450 200 450 200 405.5 150 c 128,-1,5
 361 100 361 100 281 100 c 0,6,7
 202 100 202 100 157.5 150 c 128,-1,8
 113 200 113 200 113 268 c 0,9,10
 113 337 113 337 157.5 387 c 128,-1,11
 202 437 202 437 281 437 c 0,0,1
EndSplineSet
EndChar

StartChar: endash
Encoding: 8211 8211 118
Width: 665
Flags: W
HStem: 245 100<48 609>
LayerCount: 3
Back
SplineSet
609 248 m 1
 48 248 l 1
 48 345 l 1
 609 345 l 1
 609 248 l 1
EndSplineSet
Fore
SplineSet
609 245 m 1
 48 245 l 1
 48 345 l 1
 609 345 l 1
 609 245 l 1
EndSplineSet
Validated: 1
Layer: 2
SplineSet
609 245 m 1,0,-1
 48 245 l 1,1,-1
 48 345 l 1,2,-1
 609 345 l 1,3,-1
 609 245 l 1,0,-1
EndSplineSet
EndChar

StartChar: emdash
Encoding: 8212 8212 119
Width: 1056
Flags: W
HStem: 245 100<49 1007>
LayerCount: 3
Back
SplineSet
1007 248 m 1
 49 248 l 1
 49 345 l 1
 1007 345 l 1
 1007 248 l 1
EndSplineSet
Fore
SplineSet
1007 245 m 1
 49 245 l 1
 49 345 l 1
 1007 345 l 1
 1007 245 l 1
EndSplineSet
Validated: 1
Layer: 2
SplineSet
1007 245 m 1,0,-1
 49 245 l 1,1,-1
 49 345 l 1,2,-1
 1007 345 l 1,3,-1
 1007 245 l 1,0,-1
EndSplineSet
EndChar

StartChar: uni0E31.left
Encoding: 63248 63248 120
Width: 0
Flags: W
HStem: 682 77<-425.815 -289.184> 873 57<-555.16 -476.532>
VStem: -622 61<787.577 866.205> -469 65<787.265 865.302>
LayerCount: 3
Back
SplineSet
9 788 m 1
 9 788 l 0
 8 788 -51 725 -169 699 c 0
 -274 674 -388 687 -434 704 c 0
 -544 748 -535 872 -471 910 c 0
 -408 950 -314 918 -302 845 c 0
 -293 789 -326 757 -326 757 c 1
 -322 757 -245 753 -169 783 c 0
 -37 834 9 914 9 914 c 1
 9 788 l 1
-363 828 m 0
 -365 889 -457 886 -455 825 c 0
 -454 765 -362 766 -363 828 c 0
EndSplineSet
Fore
Refer: 177 3633 N 1 0 0 1 -166 0 2
Layer: 2
Refer: 177 3633 N 1 0 0 1 -166 0 2
EndChar

StartChar: uni0E47.left
Encoding: 63250 63250 122
Width: 0
Flags: W
HStem: 674 63<-371.466 -316.455> 759 94<-525.816 -456.146> 808 60<-371.712 -316.696> 926 80<-507.091 -304.857> 942 70<-571.292 -367.77>
VStem: -690 92<793.621 913.876> -314 52<738.228 806.438> -290 99<1021.79 1093>
LayerCount: 3
Back
SplineSet
-201 1061 m 1
 -201 1061 l 1
 -201 1061 -195 932 -297 917 c 0
 -376 904 -422 929 -497 926 c 0
 -543 923 -564 881 -564 840 c 0
 -564 802 -533 789 -533 789 c 1
 -533 792 -530 837 -494 846 c 0
 -455 857 -411 805 -411 805 c 1
 -411 805 -399 861 -337 861 c 0
 -290 861 -259 819 -265 760 c 0
 -268 717 -299 691 -337 690 c 0
 -406 687 -434 766 -471 765 c 0
 -517 763 -503 690 -503 688 c 1
 -561 690 -613 716 -632 769 c 0
 -661 849 -638 953 -553 981 c 0
 -484 1002 -388 972 -322 990 c 0
 -288 998 -293 1033 -290 1061 c 1
 -201 1061 l 1
-336 806 m 0
 -369 806 -374 746 -336 746 c 0
 -299 746 -303 806 -336 806 c 0
EndSplineSet
Fore
Refer: 197 3655 N 1 0 0 1 -166 0 2
Validated: 1
Layer: 2
Refer: 197 3655 N 1 0 0 1 -166 0 2
EndChar

StartChar: uni0E01
Encoding: 3585 3585 129
Width: 674
Flags: W
HStem: 0 21G<116 234 474 592> 524 78<246.056 428.624>
VStem: 116 118<0 348.25> 474 118<0 480.922>
LayerCount: 3
Back
SplineSet
190 397 m 1
 149 441 64 476 57 478 c 1
 75 506 176 598 336 598 c 0
 518 598 592 506 592 411 c 2
 592 0 l 1
 474 0 l 1
 474 409 l 2
 474 486 426 524 339 524 c 0
 259 524 217 483 217 483 c 1
 220 481 239 471 271 448 c 0
 298 426 321 402 321 402 c 1
 318 402 288 389 260 356 c 4
 236 326 234 291 234 276 c 2
 234 0 l 1
 116 0 l 1
 116 276 l 2
 116 287 120 330 139 357 c 4
 162 386 190 397 190 397 c 1
EndSplineSet
Fore
SplineSet
190 397 m 1
 149 441 64 476 57 478 c 1
 75 506 176 602 336 602 c 0
 518 602 592 506 592 411 c 2
 592 0 l 1
 474 0 l 1
 474 409 l 2
 474 486 426 524 339 524 c 0
 259 524 217 483 217 483 c 1
 269 455 301 422 321 402 c 1
 301 392 234 361 234 276 c 2
 234 0 l 1
 116 0 l 1
 116 276 l 2
 116 364 176 389 190 397 c 1
EndSplineSet
Validated: 1
Layer: 2
SplineSet
190 397 m 1,0,1
 172 417 172 417 139.5 437 c 128,-1,2
 107 457 107 457 85.5 466.5 c 128,-1,3
 64 476 64 476 57 478 c 1,4,5
 65 491 65 491 86.5 509.5 c 128,-1,6
 108 528 108 528 142.5 550 c 128,-1,7
 177 572 177 572 228.5 587 c 128,-1,8
 280 602 280 602 336 602 c 0,9,10
 463 602 463 602 527.5 546 c 128,-1,11
 592 490 592 490 592 411 c 2,12,-1
 592 0 l 1,13,-1
 474 0 l 1,14,-1
 474 409 l 2,15,16
 474 524 474 524 339 524 c 0,17,18
 303 524 303 524 272.5 513.5 c 128,-1,19
 242 503 242 503 229.5 493 c 2,20,-1
 217 483 l 1,21,22
 267 456 267 456 321 402 c 1,23,24
 234 358 234 358 234 276 c 2,25,-1
 234 0 l 1,26,-1
 116 0 l 1,27,-1
 116 276 l 2,28,29
 116 290 116 290 118 303 c 128,-1,30
 120 316 120 316 124 326 c 128,-1,31
 128 336 128 336 132 344.5 c 128,-1,32
 136 353 136 353 142.5 360 c 128,-1,33
 149 367 149 367 153.5 372 c 128,-1,34
 158 377 158 377 165 381.5 c 128,-1,35
 172 386 172 386 175 388.5 c 128,-1,36
 178 391 178 391 184 394 c 2,37,-1
 190 397 l 1,0,1
EndSplineSet
EndChar

StartChar: uni0E02
Encoding: 3586 3586 130
Width: 659
Flags: W
HStem: 0 78<120 190 308 453.721> 335 68<106.234 169.024> 524 78<200.421 264.862> 575 20G<462 580>
VStem: 29 73<406.66 476.97> 173 70<405.234 478.621> 190 118<78 285.731> 292 95<365.557 497.472> 462 118<86.9062 595>
LayerCount: 3
Back
SplineSet
410 78 m 2xf5
 441 78 462 94 462 135 c 2
 462 595 l 1
 580 595 l 1
 580 133 l 2
 580 73 553 0 449 0 c 2
 120 0 l 1
 120 78 l 1
 190 78 l 1
 190 224 l 2xf5
 190 305 292 343 292 434 c 0
 292 463 277 531 213 531 c 0
 206 531 200 530 196 530 c 1
 225 516 243 478 243 444 c 0
 243 396 210 342 141 342 c 0
 78 342 29 384 29 453 c 0
 29 511 65 598 207 598 c 4
 345 598 387 507 387 447 c 0xfb
 387 347 308 301 308 230 c 2
 308 78 l 1
 410 78 l 2xf5
105 451 m 0
 105 431 117 412 142 412 c 0
 165 412 176 431 176 451 c 0xf9
 176 470 165 490 141 490 c 0
 117 490 105 470 105 451 c 0
EndSplineSet
Fore
SplineSet
410 78 m 2xea80
 441 78 462 94 462 135 c 2
 462 595 l 1
 580 595 l 1
 580 133 l 2
 580 73 553 0 449 0 c 2
 120 0 l 1
 120 78 l 1
 190 78 l 1
 190 224 l 2xda80
 190 305 292 343 292 434 c 0
 292 463 277 524 213 524 c 0
 206 524 200 523 196 523 c 1
 225 509 243 471 243 437 c 0
 243 389 210 335 141 335 c 0
 78 335 29 377 29 446 c 0
 29 504 65 602 207 602 c 0
 345 602 387 507 387 447 c 0xed80
 387 347 308 301 308 230 c 2
 308 78 l 1
 410 78 l 2xea80
102 442 m 0
 102 422 114 403 139 403 c 0
 162 403 173 422 173 442 c 0xcc80
 173 461 162 481 138 481 c 0
 114 481 102 461 102 442 c 0
EndSplineSet
Validated: 1
Layer: 2
SplineSet
410 78 m 2,0,1
 462 78 462 78 462 135 c 2,2,-1
 462 595 l 1,3,-1
 580 595 l 1,4,-1
 580 133 l 2,5,6
 580 79 580 79 550 39.5 c 128,-1,7
 520 0 520 0 449 0 c 2,8,-1
 120 0 l 1,9,-1
 120 78 l 1,10,-1
 190 78 l 1,11,-1
 190 224 l 2,12,13
 190 251 190 251 206 278.5 c 128,-1,14
 222 306 222 306 241 325.5 c 128,-1,15
 260 345 260 345 276 374.5 c 128,-1,16
 292 404 292 404 292 434 c 0,17,18
 292 465 292 465 273.5 494.5 c 128,-1,19
 255 524 255 524 213 524 c 0,20,21
 209 524 209 524 203.5 523.5 c 128,-1,22
 198 523 198 523 196 523 c 1,23,24
 217 513 217 513 230 488 c 128,-1,25
 243 463 243 463 243 437 c 0,26,27
 243 397 243 397 216 366 c 128,-1,28
 189 335 189 335 141 335 c 256,29,30
 93 335 93 335 61 365 c 128,-1,31
 29 395 29 395 29 446 c 0,32,33
 29 471 29 471 37.5 495.5 c 128,-1,34
 46 520 46 520 64.5 545 c 128,-1,35
 83 570 83 570 120 586 c 128,-1,36
 157 602 157 602 207 602 c 0,37,38
 256 602 256 602 293 586.5 c 128,-1,39
 330 571 330 571 349.5 546.5 c 128,-1,40
 369 522 369 522 378 497 c 128,-1,41
 387 472 387 472 387 447 c 0,42,43
 387 405 387 405 367.5 365.5 c 128,-1,44
 348 326 348 326 328 292.5 c 128,-1,45
 308 259 308 259 308 230 c 2,46,-1
 308 78 l 1,47,-1
 410 78 l 2,0,1
102 442 m 256,48,49
 102 426 102 426 111.5 414.5 c 128,-1,50
 121 403 121 403 139 403 c 0,51,52
 155 403 155 403 164 414.5 c 128,-1,53
 173 426 173 426 173 442 c 256,54,55
 173 458 173 458 164 469.5 c 128,-1,56
 155 481 155 481 138 481 c 256,57,58
 121 481 121 481 111.5 469.5 c 128,-1,59
 102 458 102 458 102 442 c 256,48,49
EndSplineSet
EndChar

StartChar: uni0E03
Encoding: 3587 3587 131
Width: 669
Flags: W
HStem: 0 78<132 204 322 455.086> 275 68<80.2271 137.169> 421 68<98.397 137.832> 524 78<103.186 188.267 257.965 337> 575 20G<463 581>
VStem: 6 70<345.637 418.063> 141 70<345.255 418.24> 204 118<78 293.274> 309 98<397.484 520.452> 463 118<85.1958 595>
LayerCount: 3
Back
SplineSet
409 78 m 2xcba0
 443.5 78 463 92 463 119 c 2
 463 595 l 1
 581 595 l 1
 581 120 l 2
 581 29 516 7.34351e-06 432 0 c 2
 132 0 l 1
 132 78 l 1
 204 78 l 1
 204 221 l 2xcba0
 204 298 309 373 309 448 c 0
 309 478 292 500 279 500 c 0xcb60
 253 500 222 458 221 458 c 1xd360
 219.5 461.5 185 520 137 520 c 0
 103 520 98 485 98 481 c 1
 98 481 103 483 113 483 c 0
 163 483 200 441 200 388 c 0
 200 334 163 289 107 289 c 0
 48 289 7 335 7 412 c 0
 7 485 45 596 136 596 c 0xe760
 186 596 224 543 225 543 c 1xd360
 230 541 264 596 307 596 c 0
 367 596 407 519 407 459 c 0xcb60
 407 336 322 315 322 215 c 2
 322 78 l 1
 409 78 l 2xcba0
141 389 m 0
 141 411 129 429 107 429 c 0xe320
 86 429 76 411 76 392 c 0
 76 372 87 352 109 351 c 0
 129 351 139 369 141 389 c 0
EndSplineSet
Fore
SplineSet
409 78 m 2xf540
 443 78 463 92 463 119 c 2
 463 595 l 1
 581 595 l 1
 581 120 l 2
 581 29 516 0 432 0 c 2
 132 0 l 1
 132 78 l 1
 204 78 l 1
 204 227 l 2xed40
 204 304 309 388 309 463 c 0
 309 493 292 524 279 524 c 0
 253 524 222 464 221 464 c 0
 219 468 185 524 137 524 c 0
 103 524 98 491 98 487 c 1
 98 487 103 489 113 489 c 0
 168 489 211 447 211 380 c 0
 211 320 168 275 107 275 c 0
 48 275 6 321 6 404 c 0
 6 491 45 602 136 602 c 0
 186 602 224 549 225 549 c 0
 232 549 264 602 307 602 c 0
 367 602 407 525 407 465 c 0xf6c0
 407 342 322 321 322 221 c 2
 322 78 l 1
 409 78 l 2xf540
141 381 m 0xe640
 141 403 129 421 107 421 c 0
 86 421 76 403 76 384 c 0
 76 364 88 343 109 343 c 0
 129 343 141 363 141 381 c 0xe640
EndSplineSet
Validated: 1
Layer: 2
SplineSet
409 78 m 2,0,1
 463 78 463 78 463 119 c 2,2,-1
 463 595 l 1,3,-1
 581 595 l 1,4,-1
 581 120 l 2,5,6
 581 0 581 0 432 0 c 2,7,-1
 132 0 l 1,8,-1
 132 78 l 1,9,-1
 204 78 l 1,10,-1
 204 227 l 2,11,12
 204 266 204 266 256.5 346 c 128,-1,13
 309 426 309 426 309 463 c 0,14,15
 309 485 309 485 299 504.5 c 128,-1,16
 289 524 289 524 279 524 c 0,17,18
 272 524 272 524 263.5 518 c 128,-1,19
 255 512 255 512 247.5 503 c 128,-1,20
 240 494 240 494 234 485 c 128,-1,21
 228 476 228 476 224.5 470 c 2,22,-1
 221 464 l 1,23,24
 218 470 218 470 209.5 482 c 128,-1,25
 201 494 201 494 179.5 509 c 128,-1,26
 158 524 158 524 137 524 c 0,27,28
 122 524 122 524 112 515 c 128,-1,29
 102 506 102 506 100 498.5 c 128,-1,30
 98 491 98 491 98 487 c 1,31,32
 103 489 103 489 113 489 c 0,33,34
 155 489 155 489 183 459 c 128,-1,35
 211 429 211 429 211 380 c 0,36,37
 211 335 211 335 181.5 305 c 128,-1,38
 152 275 152 275 107 275 c 256,39,40
 62 275 62 275 34 309 c 128,-1,41
 6 343 6 343 6 404 c 0,42,43
 6 479 6 479 39.5 540.5 c 128,-1,44
 73 602 73 602 136 602 c 0,45,46
 150 602 150 602 164 596.5 c 128,-1,47
 178 591 178 591 188.5 583.5 c 128,-1,48
 199 576 199 576 207.5 568 c 128,-1,49
 216 560 216 560 220.5 554.5 c 2,50,-1
 225 549 l 2,51,52
 227 549 227 549 238.5 562.5 c 128,-1,53
 250 576 250 576 269 589 c 128,-1,54
 288 602 288 602 307 602 c 0,55,56
 349 602 349 602 378 558 c 128,-1,57
 407 514 407 514 407 465 c 0,58,59
 407 424 407 424 393.5 389 c 128,-1,60
 380 354 380 354 364.5 334 c 128,-1,61
 349 314 349 314 335.5 284 c 128,-1,62
 322 254 322 254 322 221 c 2,63,-1
 322 78 l 1,64,-1
 409 78 l 2,0,1
141 381 m 0,65,66
 141 398 141 398 132 409.5 c 128,-1,67
 123 421 123 421 107 421 c 0,68,69
 92 421 92 421 84 410 c 128,-1,70
 76 399 76 399 76 384 c 0,71,72
 76 368 76 368 85 355.5 c 128,-1,73
 94 343 94 343 109 343 c 0,74,75
 123 343 123 343 132 354.5 c 128,-1,76
 141 366 141 366 141 381 c 0,65,66
EndSplineSet
EndChar

StartChar: uni0E04
Encoding: 3588 3588 132
Width: 702
Flags: W
HStem: 0 21G<147 267 502 620> 205 68<317.375 385.103> 348 68<318.019 385.596> 524 78<253.62 448.92>
VStem: 65 118<241.994 453.468> 147 120<0 132.257> 389 70<276.473 344.763> 502 118<0 474.594>
LayerCount: 3
Back
SplineSet
70 358 m 0xfb
 70 550 226 598 355 598 c 0
 524 598 620 514 620 380 c 2
 620 0 l 1
 502 0 l 1
 502 374 l 2
 502 444 488 510 349 510 c 0
 200 510 178 425 178 368 c 0xfb
 178 293 210 173 213 169 c 1
 213 173 224 302 248 348 c 0
 268 386 293 412 354 414 c 0
 420 414 457 361 457 307 c 0
 457 245 414 207 356 207 c 0
 323 207 300 221 300 221 c 1
 300 221 267 96 267 0 c 1
 147 0 l 1
 147 21 l 2xf7
 147 143 70 229 70 358 c 0xfb
354 348 m 0
 328 348 316 329 316 310 c 0
 316 292 328 273 354 273 c 0
 378 273 391 292 391 310 c 0
 391 329 378 348 354 348 c 0
EndSplineSet
Fore
SplineSet
65 358 m 0xfb
 65 550 224 602 353 602 c 0
 522 602 620 518 620 384 c 2
 620 0 l 1
 502 0 l 1
 502 378 l 2
 502 448 490 524 351 524 c 0
 202 524 183 425 183 368 c 0xfb
 183 293 210 173 213 169 c 1
 213 173 224 302 248 348 c 0
 268 386 293 414 354 416 c 1
 420 416 459 361 459 307 c 0
 459 245 414 205 356 205 c 0
 323 205 300 221 300 221 c 1
 300 221 267 96 267 0 c 1
 147 0 l 1
 147 21 l 2xf7
 147 143 65 229 65 358 c 0xfb
352 348 m 0
 326 348 314 329 314 310 c 0
 314 292 326 273 352 273 c 0
 376 273 389 292 389 310 c 0
 389 329 376 348 352 348 c 0
EndSplineSet
Validated: 1
Layer: 2
SplineSet
65 358 m 0,0,1
 65 413 65 413 83 456.5 c 128,-1,2
 101 500 101 500 129 527 c 128,-1,3
 157 554 157 554 196 571.5 c 128,-1,4
 235 589 235 589 273.5 595.5 c 128,-1,5
 312 602 312 602 353 602 c 0,6,7
 479 602 479 602 549.5 543.5 c 128,-1,8
 620 485 620 485 620 384 c 2,9,-1
 620 0 l 1,10,-1
 502 0 l 1,11,-1
 502 378 l 2,12,13
 502 410 502 410 497.5 431.5 c 128,-1,14
 493 453 493 453 479 476.5 c 128,-1,15
 465 500 465 500 433 512 c 128,-1,16
 401 524 401 524 351 524 c 0,17,18
 308 524 308 524 276.5 513 c 128,-1,19
 245 502 245 502 227.5 486 c 128,-1,20
 210 470 210 470 199.5 447.5 c 128,-1,21
 189 425 189 425 186 406.5 c 128,-1,22
 183 388 183 388 183 368 c 0,23,24
 183 334 183 334 190 285.5 c 128,-1,25
 197 237 197 237 204 204.5 c 128,-1,26
 211 172 211 172 213 169 c 1,27,28
 213 175 213 175 216.5 206.5 c 128,-1,29
 220 238 220 238 228.5 282.5 c 128,-1,30
 237 327 237 327 248 348 c 0,31,32
 265 380 265 380 288.5 398 c 128,-1,33
 312 416 312 416 354 416 c 0,34,35
 401 416 401 416 430 383 c 128,-1,36
 459 350 459 350 459 307 c 0,37,38
 459 261 459 261 429.5 233 c 128,-1,39
 400 205 400 205 356 205 c 0,40,41
 341 205 341 205 327 209 c 128,-1,42
 313 213 313 213 306.5 217 c 2,43,-1
 300 221 l 1,44,45
 267 96 267 96 267 0 c 1,46,-1
 147 0 l 1,47,-1
 147 21 l 2,48,49
 147 81 147 81 106 187 c 128,-1,50
 65 293 65 293 65 358 c 0,0,1
352 348 m 0,51,52
 334 348 334 348 324 337 c 128,-1,53
 314 326 314 326 314 310 c 0,54,55
 314 295 314 295 324 284 c 128,-1,56
 334 273 334 273 352 273 c 0,57,58
 369 273 369 273 379 284 c 128,-1,59
 389 295 389 295 389 310 c 256,60,61
 389 325 389 325 379 336.5 c 128,-1,62
 369 348 369 348 352 348 c 0,51,52
EndSplineSet
EndChar

StartChar: uni0E05
Encoding: 3589 3589 133
Width: 698
Flags: W
HStem: 0 21G<136 256 494 612> 182 68<309.581 376.234> 325 68<309.737 375.733> 502 100<207.668 243 437 475.463>
VStem: 55 118<244.006 461.545> 136 118<0 140.671> 380 70<253.117 320.816> 494 118<0 485.276>
LayerCount: 3
Back
SplineSet
136 25 m 2xf7
 136 161 60 223 60 358 c 0
 60 539 200 598 245 598 c 1
 339 541 l 1
 437 598 l 1
 488 598 612 561 612 406 c 2
 612 0 l 1
 494 0 l 1
 494 401 l 2
 494 474 468 499 430 499 c 1
 339 452 l 1
 243 498 l 1
 213 498 168 449 168 361 c 0xfb
 168 286 199 173 202 169 c 1
 202 173 216 284 235 320 c 0
 253 355 278 392 347 392 c 0
 385 392 447 371 447 288 c 0
 447 205 377 184 342 184 c 0
 313 184 290 195 290 195 c 1
 284 172 277 153 273 127 c 0
 265 78 258 48 254 0 c 1
 136 0 l 1
 136 25 l 2xf7
346 325 m 0
 322 325 309 306 309 288 c 0
 309 269 322 250 346 250 c 0
 370 250 383 269 383 288 c 0
 383 306 370 325 346 325 c 0
EndSplineSet
Fore
SplineSet
136 25 m 2xf7
 136 161 55 225 55 360 c 0
 55 541 200 602 245 602 c 1
 339 545 l 1
 437 602 l 1
 488 602 612 565 612 410 c 2
 612 0 l 1
 494 0 l 1
 494 405 l 2
 494 478 468 503 430 503 c 1
 339 456 l 1
 243 502 l 1
 213 502 173 451 173 363 c 0xfb
 173 288 199 173 202 169 c 1
 202 173 216 284 235 320 c 0
 253 355 278 393 347 393 c 0
 385 393 450 371 450 288 c 0
 450 205 377 182 342 182 c 0
 313 182 290 195 290 195 c 1
 284 172 277 153 273 127 c 0
 265 78 258 48 254 0 c 1
 136 0 l 1
 136 25 l 2xf7
343 325 m 0
 319 325 306 306 306 288 c 0
 306 269 319 250 343 250 c 0
 367 250 380 269 380 288 c 0
 380 306 367 325 343 325 c 0
EndSplineSet
Validated: 1
Layer: 2
SplineSet
136 25 m 2,0,1
 136 93 136 93 95.5 193 c 128,-1,2
 55 293 55 293 55 360 c 0,3,4
 55 423 55 423 78 473.5 c 128,-1,5
 101 524 101 524 134 550 c 128,-1,6
 167 576 167 576 196 589 c 128,-1,7
 225 602 225 602 245 602 c 1,8,-1
 339 545 l 1,9,-1
 437 602 l 1,10,11
 460 602 460 602 486.5 593 c 128,-1,12
 513 584 513 584 543 564.5 c 128,-1,13
 573 545 573 545 592.5 504.5 c 128,-1,14
 612 464 612 464 612 410 c 2,15,-1
 612 0 l 1,16,-1
 494 0 l 1,17,-1
 494 405 l 2,18,19
 494 503 494 503 430 503 c 1,20,-1
 339 456 l 1,21,-1
 243 502 l 1,22,23
 218 502 218 502 195.5 463 c 128,-1,24
 173 424 173 424 173 363 c 0,25,26
 173 329 173 329 179.5 281.5 c 128,-1,27
 186 234 186 234 193 203 c 128,-1,28
 200 172 200 172 202 169 c 1,29,30
 202 173 202 173 206 201 c 128,-1,31
 210 229 210 229 218.5 266.5 c 128,-1,32
 227 304 227 304 235 320 c 0,33,34
 252 354 252 354 276.5 373.5 c 128,-1,35
 301 393 301 393 347 393 c 0,36,37
 384 393 384 393 417 368 c 128,-1,38
 450 343 450 343 450 288 c 256,39,40
 450 233 450 233 414 207.5 c 128,-1,41
 378 182 378 182 342 182 c 0,42,43
 329 182 329 182 316 185 c 128,-1,44
 303 188 303 188 296.5 191.5 c 2,45,-1
 290 195 l 1,46,47
 274 134 274 134 273 127 c 0,48,49
 256 22 256 22 254 0 c 1,50,-1
 136 0 l 1,51,-1
 136 25 l 2,0,1
343 325 m 256,52,53
 326 325 326 325 316 314 c 128,-1,54
 306 303 306 303 306 288 c 256,55,56
 306 273 306 273 316 261.5 c 128,-1,57
 326 250 326 250 343 250 c 256,58,59
 360 250 360 250 370 261.5 c 128,-1,60
 380 273 380 273 380 288 c 256,61,62
 380 303 380 303 370 314 c 128,-1,63
 360 325 360 325 343 325 c 256,52,53
EndSplineSet
EndChar

StartChar: uni0E06
Encoding: 3590 3590 134
Width: 767
Flags: W
HStem: -5 135<534.318 606> -5 78<228.376 274.771> 203 78<233.483 276> 274 68<90.1153 146.885> 421 68<109.37 146.666> 524 78<113.758 198.341 268.378 348.5> 575 20G<561 679>
VStem: 16 70<345.022 418.964> 138 82<80.9852 194.541> 150 70<344.275 418.694> 276 118<75.358 155 281 418.558> 313 104<403.834 523.878> 561 118<130.002 595>
LayerCount: 3
Back
SplineSet
17 411 m 0xf358
 17 504 66 596 147 596 c 0xf358
 197 596 235 543 236 543 c 1xe958
 241 541 273 596 317 596 c 0
 380 596 417 512 417 470 c 0xe558
 417 436 394 394 394 348 c 2
 394 258 l 1
 397 256 428 244 466 213 c 0
 503 182 512 172 544 143 c 0
 561 127 563 127 563 139 c 2
 563 595 l 1
 679 595 l 1
 679 89 l 2
 679 16 623 -3 589 -3 c 0
 541 -3 513 34 468 83 c 0
 417 138 397 150 394 155 c 1
 394 98 l 2
 394 11 325 -5 271 -5 c 0
 206 -5 138 40 138 133 c 0
 138 250 233 281 276 281 c 1
 276 351 l 2xe5a8
 276 392 313 414 313 461 c 0
 313 482 303 500 290 500 c 0xe518
 264 500 231 458 230 458 c 1xe918
 226 464 196 520 148 520 c 0
 117 520 109 491 109 481 c 1
 109 481 114 483 123 483 c 0
 163 483 211 450 211 387 c 0
 211 333 173 289 117 289 c 0
 77 289 17 313 17 411 c 0xf358
220 130 m 0xe1a8
 220 105 229 76 268 76 c 0
 275 76 276 81 276 98 c 2
 276 198 l 1
 275 198 270 200 262 200 c 0
 228 200 220 154 220 130 c 0xe1a8
150 388 m 0xf148
 150 409 139 428 118 428 c 0
 97 428 86 409 86 390 c 0
 86 370 97 350 118 349 c 0
 139 349 150 368 150 388 c 0xf148
EndSplineSet
Fore
SplineSet
16 404 m 0x1d58
 16 510 66 602 147 602 c 0
 193 602 228 558 236 549 c 1
 244 557 281 602 317 602 c 0
 380 602 417 518 417 476 c 0x1d58
 417 442 394 394 394 348 c 2
 394 258 l 1
 397 256 428 244 466 213 c 0
 530 159 553 130 559 130 c 0
 561 130 561 133 561 139 c 2
 561 595 l 1
 679 595 l 1
 679 89 l 2
 679 16 623 -5 589 -5 c 0x8b28
 541 -5 513 34 468 83 c 0
 417 138 397 150 394 155 c 1
 394 98 l 2
 394 11 325 -5 271 -5 c 0
 206 -5 138 40 138 133 c 0
 138 250 233 281 276 281 c 1
 276 351 l 2x69a8
 276 392 313 429 313 476 c 0
 313 497 303 524 290 524 c 0
 264 524 235 470 230 464 c 1
 226 470 196 524 148 524 c 0
 117 524 109 497 109 487 c 1
 109 487 114 489 123 489 c 0
 168 489 220 456 220 380 c 0
 220 318 178 274 117 274 c 0
 77 274 16 298 16 404 c 0x1d58
220 130 m 0xa9a8
 220 105 229 73 268 73 c 0x49a8
 275 73 276 78 276 95 c 2
 276 201 l 1
 275 201 270 203 262 203 c 0
 228 203 220 154 220 130 c 0xa9a8
150 381 m 0x1948
 150 402 139 421 118 421 c 0
 97 421 86 402 86 383 c 0
 86 363 97 343 118 342 c 0
 139 342 150 361 150 381 c 0x1948
EndSplineSet
Validated: 1
Layer: 2
SplineSet
16 404 m 0,0,1
 16 486 16 486 52 544 c 128,-1,2
 88 602 88 602 147 602 c 0,3,4
 189 602 189 602 236 549 c 1,5,-1
 242 555.5 l 2,6,7
 248 562 248 562 252.5 566.5 c 128,-1,8
 257 571 257 571 265.5 578 c 128,-1,9
 274 585 274 585 281.5 590 c 128,-1,10
 289 595 289 595 298.5 598.5 c 128,-1,11
 308 602 308 602 317 602 c 0,12,13
 360 602 360 602 388.5 558 c 128,-1,14
 417 514 417 514 417 476 c 0,15,16
 417 460 417 460 405.5 416 c 128,-1,17
 394 372 394 372 394 348 c 2,18,-1
 394 258 l 2,19,20
 395 258 395 258 399 256 c 128,-1,21
 403 254 403 254 410 250.5 c 128,-1,22
 417 247 417 247 425 242 c 128,-1,23
 433 237 433 237 444 229.5 c 128,-1,24
 455 222 455 222 466 213 c 0,25,26
 493 190 493 190 516 168.5 c 128,-1,27
 539 147 539 147 548 138.5 c 128,-1,28
 557 130 557 130 559 130 c 128,-1,29
 561 130 561 130 561 139 c 2,30,-1
 561 595 l 1,31,-1
 679 595 l 1,32,-1
 679 89 l 2,33,34
 679 40 679 40 650.5 17.5 c 128,-1,35
 622 -5 622 -5 589 -5 c 0,36,37
 579 -5 579 -5 570 -3 c 128,-1,38
 561 -1 561 -1 551.5 4.5 c 128,-1,39
 542 10 542 10 535.5 14 c 128,-1,40
 529 18 529 18 519 28 c 128,-1,41
 509 38 509 38 503.5 43.5 c 128,-1,42
 498 49 498 49 486 63 c 128,-1,43
 474 77 474 77 468 83 c 0,44,45
 446 107 446 107 428 124 c 128,-1,46
 410 141 410 141 402.5 147 c 128,-1,47
 395 153 395 153 394 155 c 2,48,-1
 394 98 l 2,49,50
 394 -5 394 -5 271 -5 c 0,51,52
 218 -5 218 -5 178 31 c 128,-1,53
 138 67 138 67 138 133 c 0,54,55
 138 174 138 174 153 205 c 128,-1,56
 168 236 168 236 191 251.5 c 128,-1,57
 214 267 214 267 235.5 274 c 128,-1,58
 257 281 257 281 276 281 c 1,59,-1
 276 351 l 2,60,61
 276 371 276 371 294.5 411.5 c 128,-1,62
 313 452 313 452 313 476 c 0,63,64
 313 493 313 493 306 508.5 c 128,-1,65
 299 524 299 524 290 524 c 256,66,67
 281 524 281 524 270 515 c 128,-1,68
 259 506 259 506 252 496.5 c 128,-1,69
 245 487 245 487 238 476 c 128,-1,70
 231 465 231 465 230 464 c 1,71,72
 190 524 190 524 148 524 c 0,73,74
 128 524 128 524 118.5 511.5 c 128,-1,75
 109 499 109 499 109 487 c 1,76,77
 114 489 114 489 123 489 c 0,78,79
 161 489 161 489 190.5 461 c 128,-1,80
 220 433 220 433 220 380 c 0,81,82
 220 333 220 333 191.5 303.5 c 128,-1,83
 163 274 163 274 117 274 c 0,84,85
 78 274 78 274 47 303.5 c 128,-1,86
 16 333 16 333 16 404 c 0,0,1
220 130 m 0,87,88
 220 73 220 73 268 73 c 0,89,90
 276 73 276 73 276 95 c 2,91,-1
 276 201 l 1,92,-1
 274 201.5 l 2,93,94
 272 202 272 202 269 202.5 c 128,-1,95
 266 203 266 203 262 203 c 0,96,97
 240 203 240 203 230 179 c 128,-1,98
 220 155 220 155 220 130 c 0,87,88
150 381 m 0,99,100
 150 398 150 398 141.5 409.5 c 128,-1,101
 133 421 133 421 118 421 c 256,102,103
 103 421 103 421 94.5 409.5 c 128,-1,104
 86 398 86 398 86 383 c 0,105,106
 86 367 86 367 94.5 354.5 c 128,-1,107
 103 342 103 342 118 342 c 256,108,109
 133 342 133 342 141.5 353.5 c 128,-1,110
 150 365 150 365 150 381 c 0,99,100
EndSplineSet
EndChar

StartChar: uni0E07
Encoding: 3591 3591 135
Width: 510
Flags: W
HStem: -5 78<222.194 293.454> 388 68<250.772 299.996> 534 68<250.374 319.565>
VStem: 176 70<460.038 529.854> 300 118<77.3402 389> 325 93<459.597 529.051>
LayerCount: 3
Back
SplineSet
176 487 m 0xf8
 176 564 237 598 287 598 c 0
 406 598 418 504 418 460 c 2xf4
 418 152 l 2
 418 28 330 -3 263 -3 c 0
 212 -3 155 16 127 74 c 0
 104 123 103 167 75 212 c 0
 55 242 40 236 18 242 c 1
 18 345 l 1
 19 345 27 346 39 346 c 0
 63 346 104 341 132 307 c 0
 188 237 184 86 256 86 c 0
 295 86 300 113 300 146 c 2
 300 379 l 1
 300 379 296 378 289 378 c 0
 224 378 176 422 176 487 c 0xf8
325 488 m 0
 325 511 309 527 286 527 c 0
 263 527 246 511 246 488 c 0
 246 465 263 449 286 449 c 0
 309 449 325 465 325 488 c 0
EndSplineSet
Fore
SplineSet
176 494 m 0xf8
 176 571 237 602 287 602 c 0
 406 602 418 511 418 467 c 2xf4
 418 150 l 2
 418 26 330 -5 263 -5 c 0
 212 -5 155 14 127 72 c 0
 104 121 103 165 75 210 c 1
 55 240 40 234 18 240 c 1
 18 343 l 1
 19 343 27 344 39 344 c 0
 63 344 104 339 132 305 c 0
 188 235 195 73 256 73 c 0
 295 73 300 100 300 133 c 2
 300 389 l 1
 300 389 296 388 289 388 c 0
 224 388 176 429 176 494 c 0xf8
325 495 m 0
 325 518 309 534 286 534 c 0
 263 534 246 518 246 495 c 0
 246 472 263 456 286 456 c 0
 309 456 325 472 325 495 c 0
EndSplineSet
Validated: 1
Layer: 2
SplineSet
176 494 m 0,0,1
 176 547 176 547 210 574.5 c 128,-1,2
 244 602 244 602 287 602 c 0,3,4
 321 602 321 602 346 592 c 128,-1,5
 371 582 371 582 384.5 567.5 c 128,-1,6
 398 553 398 553 406 533 c 128,-1,7
 414 513 414 513 416 498 c 128,-1,8
 418 483 418 483 418 467 c 2,9,-1
 418 150 l 2,10,11
 418 106 418 106 403.5 74 c 128,-1,12
 389 42 389 42 365 25.5 c 128,-1,13
 341 9 341 9 316 2 c 128,-1,14
 291 -5 291 -5 263 -5 c 0,15,16
 164 -5 164 -5 127 72 c 0,17,18
 118 92 118 92 104 138.5 c 128,-1,19
 90 185 90 185 75 210 c 0,20,21
 66 224 66 224 58.5 229 c 128,-1,22
 51 234 51 234 35.5 236.5 c 128,-1,23
 20 239 20 239 18 240 c 2,24,-1
 18 343 l 1,25,-1
 21 343.5 l 2,26,27
 24 344 24 344 29 344 c 128,-1,28
 34 344 34 344 39 344 c 0,29,30
 100 344 100 344 132 305 c 0,31,32
 150 282 150 282 166 239.5 c 128,-1,33
 182 197 182 197 192 162 c 128,-1,34
 202 127 202 127 218.5 100 c 128,-1,35
 235 73 235 73 256 73 c 0,36,37
 283 73 283 73 291.5 88.5 c 128,-1,38
 300 104 300 104 300 133 c 2,39,-1
 300 389 l 1,40,41
 296 388 296 388 289 388 c 0,42,43
 239 388 239 388 207.5 417 c 128,-1,44
 176 446 176 446 176 494 c 0,0,1
325 495 m 256,45,46
 325 512 325 512 314 523 c 128,-1,47
 303 534 303 534 286 534 c 256,48,49
 269 534 269 534 257.5 523 c 128,-1,50
 246 512 246 512 246 495 c 256,51,52
 246 478 246 478 257.5 467 c 128,-1,53
 269 456 269 456 286 456 c 256,54,55
 303 456 303 456 314 467 c 128,-1,56
 325 478 325 478 325 495 c 256,45,46
EndSplineSet
EndChar

StartChar: uni0E08
Encoding: 3592 3592 136
Width: 606
Flags: W
HStem: -5 78<320.716 398.981> 192 68<150.225 189.723> 335 68<150.66 219.761> 524 78<161.796 357.086>
VStem: 77 70<263.945 330.687> 190 118<82.1801 192> 224 84<263.25 330.75> 405 118<76.7125 477.076>
LayerCount: 3
Back
SplineSet
15 486 m 1
 22 518 96 598 267 598 c 0
 424 598 523 531 523 404 c 2
 523 170 l 2
 523 46 458 -3 357 -3 c 0
 274 -3 221 38 210 94 c 0
 202 130 201 166 201 185 c 2
 201 198 l 1
 199 198 195 197 190 197 c 0
 102 197 80 257 80 298 c 0
 80 362 127 404 190 404 c 0
 227 404 263 388 282 357 c 0
 311 311 302 228 308 175 c 0
 313 122 308 86 363 86 c 0
 395 86 405 102 405 139 c 2
 405 379 l 2
 405 476 356 510 261 510 c 0
 164 510 114 458 83 434 c 1
 15 486 l 1
221 299 m 0
 221 319 207 337 182 337 c 0
 157 337 144 318 144 299 c 0
 144 281 156 262 182 262 c 0
 208 262 221 281 221 299 c 0
EndSplineSet
Fore
SplineSet
15 490 m 1xfd
 22 522 96 602 267 602 c 0
 424 602 523 535 523 408 c 2
 523 168 l 2
 523 44 458 -5 357 -5 c 0
 223 -5 190 96 190 170 c 2
 190 192 l 1
 102 192 77 255 77 296 c 0
 77 360 127 403 190 403 c 0xfd
 262 403 308 350 308 296 c 2xfb
 308 173 l 2
 308 120 308 73 363 73 c 0
 395 73 405 89 405 126 c 2
 405 393 l 2
 405 490 356 524 261 524 c 0
 164 524 114 472 83 448 c 1
 15 490 l 1xfd
224 297 m 0xfb
 224 317 210 335 185 335 c 0
 160 335 147 316 147 297 c 0
 147 279 159 260 185 260 c 0
 211 260 224 279 224 297 c 0xfb
EndSplineSet
Validated: 1
Layer: 2
SplineSet
15 490 m 1,0,1
 23 524 23 524 88.5 563 c 128,-1,2
 154 602 154 602 267 602 c 0,3,4
 387 602 387 602 455 552 c 128,-1,5
 523 502 523 502 523 408 c 2,6,-1
 523 168 l 2,7,8
 523 -5 523 -5 357 -5 c 0,9,10
 267 -5 267 -5 228.5 48 c 128,-1,11
 190 101 190 101 190 170 c 2,12,-1
 190 192 l 1,13,14
 131 192 131 192 104 224.5 c 128,-1,15
 77 257 77 257 77 296 c 0,16,17
 77 343 77 343 109.5 373 c 128,-1,18
 142 403 142 403 190 403 c 0,19,20
 242 403 242 403 275 371 c 128,-1,21
 308 339 308 339 308 296 c 2,22,-1
 308 173 l 2,23,24
 308 152 308 152 308.5 141.5 c 128,-1,25
 309 131 309 131 311.5 115.5 c 128,-1,26
 314 100 314 100 319.5 92.5 c 128,-1,27
 325 85 325 85 336 79 c 128,-1,28
 347 73 347 73 363 73 c 0,29,30
 386 73 386 73 395.5 85.5 c 128,-1,31
 405 98 405 98 405 126 c 2,32,-1
 405 393 l 2,33,34
 405 464 405 464 370 494 c 128,-1,35
 335 524 335 524 261 524 c 0,36,37
 238 524 238 524 216 519.5 c 128,-1,38
 194 515 194 515 179 510 c 128,-1,39
 164 505 164 505 146.5 494.5 c 128,-1,40
 129 484 129 484 121.5 478.5 c 128,-1,41
 114 473 114 473 99.5 461.5 c 128,-1,42
 85 450 85 450 83 448 c 2,43,-1
 15 490 l 1,0,1
224 297 m 0,44,45
 224 313 224 313 213.5 324 c 128,-1,46
 203 335 203 335 185 335 c 256,47,48
 167 335 167 335 157 323.5 c 128,-1,49
 147 312 147 312 147 297 c 256,50,51
 147 282 147 282 157 271 c 128,-1,52
 167 260 167 260 185 260 c 256,53,54
 203 260 203 260 213.5 271 c 128,-1,55
 224 282 224 282 224 297 c 0,44,45
EndSplineSet
EndChar

StartChar: uni0E09
Encoding: 3593 3593 137
Width: 711
Flags: W
HStem: -5 116<214 312.562> -5 78<563.157 610.696> 177 68<127.562 158> 217 78<563 601.832> 317 68<126.716 184.533> 524 78<174.84 393.928>
VStem: 54 70<247.786 315.54> 158 118<111.002 177> 188 88<246.25 314.164> 445 118<74.78 160 291.308 478.294> 618 75<76.5982 200.291>
AnchorPoint: "AboveBase" 560 613 basechar 0
LayerCount: 3
Back
SplineSet
693 145 m 0x9f60
 693 81 668 -3 569 -3 c 0x5f60
 530 -3 445 16 445 94 c 2
 445 162 l 1
 443 159 414 129 372 61 c 0
 340 12 310 -3 258 -3 c 0
 170 -3 159 50 159 74 c 2
 159 179 l 1xaf60
 96 179 58 225 58 281 c 0
 58 334 92 386 166 386 c 0
 233 386 276 336 276 276 c 2xaee0
 276 124 l 2
 276 116 276 113 285 113 c 0
 303 113 322 149 362 198 c 0
 409 258 440 271 445 274 c 1
 445 389 l 2
 445 483 375 506 290 506 c 0
 136 506 106 431 104 426 c 1
 25 475 l 1
 25 488 94 604 295 604 c 0
 453 604 563 542 563 417 c 2
 563 297 l 1
 628 288 693 261 693 145 c 0x9f60
563 219 m 1
 563 114 l 2
 563 90 566 86 584 86 c 0
 615 86 618 129 618 149 c 0
 618 202 579 219 563 219 c 1
185 289 m 0x2ee0
 185 313 167 319 154 319 c 0
 133 319 122 301 122 283 c 0
 122 265 133 247 155 247 c 0
 172 247 185 269 185 289 c 0x2ee0
EndSplineSet
Fore
SplineSet
693 143 m 0x9f60
 693 79 668 -5 569 -5 c 0x5f60
 530 -5 445 14 445 92 c 2
 445 160 l 1
 443 157 414 127 372 59 c 1
 340 10 310 -5 258 -5 c 0
 170 -5 158 48 158 72 c 2
 158 177 l 1xaf60
 95 177 54 223 54 279 c 0
 54 332 91 385 165 385 c 0
 232 385 276 334 276 274 c 2xaee0
 276 122 l 2
 276 114 276 111 285 111 c 0
 303 111 322 147 362 196 c 1
 409 256 440 269 445 272 c 1
 445 407 l 2
 445 501 375 524 290 524 c 0
 136 524 106 439 104 434 c 1
 25 473 l 1
 25 486 94 602 295 602 c 0
 453 602 563 540 563 415 c 2
 563 295 l 1
 628 286 693 259 693 143 c 0x9f60
563 217 m 1
 563 101 l 2
 563 77 566 73 584 73 c 0
 615 73 618 117 618 142 c 0
 618 200 579 217 563 217 c 1
188 281 m 0x2ee0
 188 299 178 317 156 317 c 0
 134 317 124 299 124 281 c 0
 124 263 135 245 157 245 c 0
 179 245 188 263 188 281 c 0x2ee0
EndSplineSet
Validated: 1
Layer: 2
SplineSet
693 143 m 0,0,1
 693 84 693 84 664.5 39.5 c 128,-1,2
 636 -5 636 -5 569 -5 c 0,3,4
 527 -5 527 -5 486 18 c 128,-1,5
 445 41 445 41 445 92 c 2,6,-1
 445 160 l 1,7,-1
 441 155.5 l 2,8,9
 437 151 437 151 430.5 142.5 c 128,-1,10
 424 134 424 134 415.5 123 c 128,-1,11
 407 112 407 112 395.5 95 c 128,-1,12
 384 78 384 78 372 59 c 0,13,14
 348 23 348 23 323 9 c 128,-1,15
 298 -5 298 -5 258 -5 c 0,16,17
 227 -5 227 -5 205.5 3.5 c 128,-1,18
 184 12 184 12 174.5 25 c 128,-1,19
 165 38 165 38 161.5 49.5 c 128,-1,20
 158 61 158 61 158 72 c 2,21,-1
 158 177 l 1,22,23
 112 177 112 177 83 206.5 c 128,-1,24
 54 236 54 236 54 279 c 256,25,26
 54 322 54 322 83.5 353.5 c 128,-1,27
 113 385 113 385 165 385 c 0,28,29
 214 385 214 385 245 352.5 c 128,-1,30
 276 320 276 320 276 274 c 2,31,-1
 276 122 l 2,32,33
 276 117 276 117 276.5 115.5 c 128,-1,34
 277 114 277 114 279 112.5 c 128,-1,35
 281 111 281 111 285 111 c 0,36,37
 290 111 290 111 295.5 115 c 128,-1,38
 301 119 301 119 308.5 127.5 c 128,-1,39
 316 136 316 136 322.5 145 c 128,-1,40
 329 154 329 154 340.5 169 c 128,-1,41
 352 184 352 184 362 196 c 0,42,43
 401 245 401 245 445 272 c 1,44,-1
 445 407 l 2,45,46
 445 524 445 524 290 524 c 0,47,48
 247 524 247 524 212 514.5 c 128,-1,49
 177 505 177 505 158.5 494 c 128,-1,50
 140 483 140 483 126 467 c 128,-1,51
 112 451 112 451 109 445.5 c 128,-1,52
 106 440 106 440 104 434 c 1,53,-1
 25 473 l 1,54,55
 25 478 25 478 33.5 491.5 c 128,-1,56
 42 505 42 505 62.5 524 c 128,-1,57
 83 543 83 543 112.5 560.5 c 128,-1,58
 142 578 142 578 190 590 c 128,-1,59
 238 602 238 602 295 602 c 0,60,61
 417 602 417 602 490 554 c 128,-1,62
 563 506 563 506 563 415 c 2,63,-1
 563 295 l 1,64,65
 622 287 622 287 657.5 254.5 c 128,-1,66
 693 222 693 222 693 143 c 0,0,1
563 217 m 1,67,-1
 563 101 l 2,68,69
 563 83 563 83 566.5 78 c 128,-1,70
 570 73 570 73 584 73 c 0,71,72
 618 73 618 73 618 142 c 0,73,74
 618 180 618 180 599 198.5 c 128,-1,75
 580 217 580 217 563 217 c 1,67,-1
188 281 m 0,76,77
 188 296 188 296 180 306.5 c 128,-1,78
 172 317 172 317 156 317 c 256,79,80
 140 317 140 317 132 306.5 c 128,-1,81
 124 296 124 296 124 281 c 256,82,83
 124 266 124 266 132.5 255.5 c 128,-1,84
 141 245 141 245 157 245 c 0,85,86
 188 245 188 245 188 281 c 0,76,77
EndSplineSet
EndChar

StartChar: uni0E0A
Encoding: 3594 3594 138
Width: 656
Flags: W
HStem: 0 78<104 175 293 438.91> 341 68<91.0427 154.625> 524 78<183.561 252.389>
VStem: 17 70<412.003 483.811> 159 70<412.012 484.065> 175 118<78 286.673> 448 118<85.3369 394.55>
LayerCount: 3
Back
SplineSet
190 598 m 0xfa
 328 598 363 510 366 487 c 1
 373 491 535 577 582 670 c 1
 609 561 l 1
 609 552 513 479 458 468 c 1
 463 466 503 451 529 418 c 0
 561 380 566 346 566 300 c 2
 566 133 l 2
 566 76 540 0 434 0 c 2
 104 0 l 1
 104 78 l 1
 175 78 l 1
 175 225 l 2xf6
 175 303 276 346 276 436 c 0
 276 470 261 527 194 527 c 2
 181 527 l 1
 189 523 225 510 225 450 c 0
 225 396 188 345 122 345 c 0
 67 345 20 387 20 457 c 0
 20 508 51 598 190 598 c 0xfa
395 78 m 2
 423 78 448 89 448 135 c 2
 448 325 l 2
 448 351 445 372 428 391 c 0
 402 422 395 422 371 423 c 1
 369 425 l 1
 358 336 293 300 293 233 c 2
 293 78 l 1
 395 78 l 2
87 451 m 0
 87 431 99 412 124 412 c 0
 147 412 159 432 159 451 c 0xfa
 159 470 147 490 123 490 c 0
 100 490 87 470 87 451 c 0
EndSplineSet
Fore
SplineSet
190 602 m 0xfa
 328 602 363 510 366 487 c 1
 373 491 535 577 582 670 c 1
 609 561 l 1
 609 552 513 479 458 468 c 1
 521 443 566 396 566 300 c 2
 566 133 l 2
 566 76 540 0 434 0 c 2
 104 0 l 1
 104 78 l 1
 175 78 l 1
 175 225 l 2xf6
 175 303 276 346 276 436 c 0
 276 470 261 524 194 524 c 2
 181 524 l 1
 189 520 229 507 229 447 c 0
 229 393 188 341 122 341 c 0
 67 341 17 384 17 454 c 0
 17 505 51 602 190 602 c 0xfa
395 78 m 2
 423 78 448 89 448 135 c 2
 448 325 l 2
 448 384 418 421 371 423 c 1
 369 425 l 1
 358 336 293 300 293 233 c 2
 293 78 l 1
 395 78 l 2
87 448 m 0
 87 428 99 409 124 409 c 0
 147 409 159 429 159 448 c 0xfa
 159 467 147 487 123 487 c 0
 100 487 87 467 87 448 c 0
EndSplineSet
Validated: 1
Layer: 2
SplineSet
190 602 m 0,0,1
 238 602 238 602 274.5 588 c 128,-1,2
 311 574 311 574 329 553 c 128,-1,3
 347 532 347 532 355.5 515.5 c 128,-1,4
 364 499 364 499 366 487 c 1,5,6
 540 586 540 586 582 670 c 1,7,-1
 609 561 l 2,8,9
 609 556 609 556 583.5 536 c 128,-1,10
 558 516 558 516 520.5 494.5 c 128,-1,11
 483 473 483 473 458 468 c 1,12,13
 566 425 566 425 566 300 c 2,14,-1
 566 133 l 2,15,16
 566 80 566 80 536 40 c 128,-1,17
 506 0 506 0 434 0 c 2,18,-1
 104 0 l 1,19,-1
 104 78 l 1,20,-1
 175 78 l 1,21,-1
 175 225 l 2,22,23
 175 251 175 251 191 278.5 c 128,-1,24
 207 306 207 306 225.5 326 c 128,-1,25
 244 346 244 346 260 376 c 128,-1,26
 276 406 276 406 276 436 c 0,27,28
 276 470 276 470 257.5 497 c 128,-1,29
 239 524 239 524 194 524 c 2,30,-1
 181 524 l 1,31,-1
 184.5 522.5 l 2,32,33
 188 521 188 521 190.5 519.5 c 128,-1,34
 193 518 193 518 197 515.5 c 128,-1,35
 201 513 201 513 204 510 c 128,-1,36
 207 507 207 507 211.5 502.5 c 128,-1,37
 216 498 216 498 218.5 492.5 c 128,-1,38
 221 487 221 487 223.5 480.5 c 128,-1,39
 226 474 226 474 227.5 465.5 c 128,-1,40
 229 457 229 457 229 447 c 0,41,42
 229 404 229 404 199.5 372.5 c 128,-1,43
 170 341 170 341 122 341 c 0,44,45
 79 341 79 341 48 372 c 128,-1,46
 17 403 17 403 17 454 c 0,47,48
 17 476 17 476 25 499 c 128,-1,49
 33 522 33 522 51 546.5 c 128,-1,50
 69 571 69 571 105 586.5 c 128,-1,51
 141 602 141 602 190 602 c 0,0,1
395 78 m 2,52,53
 448 78 448 78 448 135 c 2,54,-1
 448 325 l 2,55,56
 448 369 448 369 427 395 c 128,-1,57
 406 421 406 421 371 423 c 1,58,-1
 369 425 l 1,59,60
 363 380 363 380 328 323 c 128,-1,61
 293 266 293 266 293 233 c 2,62,-1
 293 78 l 1,63,-1
 395 78 l 2,52,53
87 448 m 0,64,65
 87 432 87 432 96.5 420.5 c 128,-1,66
 106 409 106 409 124 409 c 0,67,68
 140 409 140 409 149.5 421 c 128,-1,69
 159 433 159 433 159 448 c 0,70,71
 159 464 159 464 149.5 475.5 c 128,-1,72
 140 487 140 487 123 487 c 0,73,74
 107 487 107 487 97 475 c 128,-1,75
 87 463 87 463 87 448 c 0,64,65
EndSplineSet
EndChar

StartChar: uni0E0B
Encoding: 3595 3595 139
Width: 694
Flags: W
HStem: 0 78<147 219 337 481.91> 295 64<95.3538 154.801> 432 57<115.37 155.271> 524 78<118.812 205.646 273.276 350.5>
VStem: 21 71<361.796 428.495> 158 58<361.501 429.666> 219 118<78 340.488> 491 118<86.1964 391.189>
LayerCount: 3
Back
SplineSet
21 419 m 0xe7c0
 21 521 79 599 153 599 c 0xe7c0
 203 599 241 546 242 546 c 1xd3c0
 247 544 279 599 322 599 c 0
 379 599 402 535 408 484 c 1
 557 559 604 634 627 668 c 1
 651 558 l 1
 651 556 625 526 573 495 c 0
 544 477 506 466 501 464 c 1
 506 464 546 449 572 417 c 0
 604 379 609 345 609 297 c 2
 609 133 l 2
 609 78 583 0 477 0 c 2
 147 0 l 1
 147 78 l 1
 219 78 l 1
 219 276 l 2
 219 364 316 388 316 464 c 0
 316 480 309 503 295 503 c 0xcbc0
 268 503 238 461 236 461 c 1xd3c0
 232 469 202.5 522 154 522 c 0
 121 522 115 496 115 484 c 1
 115 484 120 486 129 486 c 0
 167 486 216 456 216 391 c 0
 216 336 180 292 125 292 c 0
 84 292 21 318 21 419 c 0xe7c0
439 78 m 2
 487 78 491 110 491 135 c 2
 491 323 l 2
 491 348 487 372 472 388 c 0
 447 417 430 423 401 423 c 1
 401 428 l 1
 376 369 337 350 337 291 c 2
 337 78 l 1
 439 78 l 2
158 392 m 0
 158 412 147 429 124 429 c 0
 103 429 92 411 92 394 c 0
 92 375 102.98 356 124 356 c 0
 146 356 158 371.9 158 392 c 0
EndSplineSet
Fore
SplineSet
21 422 m 0
 21 524 79 602 153 602 c 0
 201 602 235 556 242 549 c 1
 247 555 285 602 322 602 c 0
 379 602 402 535 408 484 c 1
 557 559 604 634 627 668 c 1
 651 558 l 1
 651 549 556 475 501 464 c 1
 564 439 609 393 609 297 c 2
 609 133 l 2
 609 78 583 0 477 0 c 2
 147 0 l 1
 147 78 l 1
 219 78 l 1
 219 276 l 2
 219 364 316 388 316 464 c 0
 316 480 309 524 295 524 c 0
 268 524 240 472 236 464 c 1
 232 472 202 524 154 524 c 0
 121 524 115 499 115 487 c 1
 115 487 120 489 129 489 c 0
 167 489 216 459 216 394 c 0
 216 339 180 295 125 295 c 0
 84 295 21 321 21 422 c 0
439 78 m 2
 487 78 491 110 491 135 c 2
 491 323 l 2
 491 395 447 423 401 423 c 1
 401 428 l 1
 376 369 337 350 337 291 c 2
 337 78 l 1
 439 78 l 2
158 395 m 0
 158 415 147 432 124 432 c 0
 103 432 92 414 92 397 c 0
 92 378 103 359 124 359 c 0
 146 359 158 375 158 395 c 0
EndSplineSet
Validated: 1
Layer: 2
SplineSet
21 422 m 0,0,1
 21 498 21 498 59 550 c 128,-1,2
 97 602 97 602 153 602 c 0,3,4
 164 602 164 602 175.5 598.5 c 128,-1,5
 187 595 187 595 195.5 590 c 128,-1,6
 204 585 204 585 213 578 c 128,-1,7
 222 571 222 571 226.5 566 c 128,-1,8
 231 561 231 561 236.5 555 c 2,9,-1
 242 549 l 1,10,11
 286 602 286 602 322 602 c 0,12,13
 361 602 361 602 381.5 566.5 c 128,-1,14
 402 531 402 531 408 484 c 1,15,16
 460 510 460 510 500 537.5 c 128,-1,17
 540 565 540 565 566.5 593 c 128,-1,18
 593 621 593 621 602.5 633.5 c 128,-1,19
 612 646 612 646 627 668 c 1,20,-1
 651 558 l 2,21,22
 651 553 651 553 625.5 532.5 c 128,-1,23
 600 512 600 512 563 490.5 c 128,-1,24
 526 469 526 469 501 464 c 1,25,26
 609 421 609 421 609 297 c 2,27,-1
 609 133 l 2,28,29
 609 81 609 81 578.5 40.5 c 128,-1,30
 548 0 548 0 477 0 c 2,31,-1
 147 0 l 1,32,-1
 147 78 l 1,33,-1
 219 78 l 1,34,-1
 219 276 l 2,35,36
 219 305 219 305 234 331.5 c 128,-1,37
 249 358 249 358 267.5 374.5 c 128,-1,38
 286 391 286 391 301 415 c 128,-1,39
 316 439 316 439 316 464 c 0,40,41
 316 480 316 480 310 502 c 128,-1,42
 304 524 304 524 295 524 c 0,43,44
 283 524 283 524 268.5 509.5 c 128,-1,45
 254 495 254 495 247 484 c 128,-1,46
 240 473 240 473 236 464 c 1,47,48
 232 473 232 473 224 484 c 128,-1,49
 216 495 216 495 196 509.5 c 128,-1,50
 176 524 176 524 154 524 c 256,51,52
 132 524 132 524 123.5 512 c 128,-1,53
 115 500 115 500 115 487 c 1,54,55
 120 489 120 489 129 489 c 0,56,57
 162 489 162 489 189 464 c 128,-1,58
 216 439 216 439 216 394 c 0,59,60
 216 352 216 352 190.5 323.5 c 128,-1,61
 165 295 165 295 125 295 c 0,62,63
 86 295 86 295 53.5 324.5 c 128,-1,64
 21 354 21 354 21 422 c 0,0,1
439 78 m 2,65,66
 491 78 491 78 491 135 c 2,67,-1
 491 323 l 2,68,69
 491 373 491 373 465 398 c 128,-1,70
 439 423 439 423 401 423 c 1,71,-1
 401 428 l 1,72,73
 394 412 394 412 365.5 368.5 c 128,-1,74
 337 325 337 325 337 291 c 2,75,-1
 337 78 l 1,76,-1
 439 78 l 2,65,66
158 395 m 256,77,78
 158 411 158 411 149 421.5 c 128,-1,79
 140 432 140 432 124 432 c 0,80,81
 109 432 109 432 100.5 421.5 c 128,-1,82
 92 411 92 411 92 397 c 0,83,84
 92 382 92 382 100.5 370.5 c 128,-1,85
 109 359 109 359 124 359 c 0,86,87
 140 359 140 359 149 369 c 128,-1,88
 158 379 158 379 158 395 c 256,77,78
EndSplineSet
EndChar

StartChar: uni0E0C
Encoding: 3596 3596 140
Width: 882
Flags: W
HStem: -5 68<196.856 257.571 435.065 494.137> 142 68<224.976 257.679> 524 78<233.151 408.17> 575 20G<676 794>
VStem: 106 118<210 351.062> 106 86<67.9075 139.692> 261 70<65.7776 138.957> 357 70<68.2146 161.046> 443 118<244 489.531> 502 70<68.2647 162.551> 676 118<157 595>
LayerCount: 3
Back
SplineSet
237 57 m 0x7720
 261 57 272 77 272 96 c 0
 272 116 261 136 237 136 c 0
 215 136 203 116 203 96 c 0
 203 77 215 57 237 57 c 0x7720
357 116 m 0
 357 227 443 236 443 236 c 1
 443 409 l 2
 443 486 411 518 322 518 c 0
 248 518 207 483 207 483 c 1
 210 481 229 471 261 448 c 0
 289 426 312 402 312 402 c 1
 309 402 279 389 250 356 c 0
 227 326 224 291 224 276 c 2
 224 202 l 1
 244 202 331 199 331 99 c 0
 331 22 269 -2 224 -2 c 0x7ba0
 152 -2 106 46 106 130 c 2x7720
 106 276 l 2
 106 287 109 330 129 357 c 0
 152 386 179 397 179 397 c 1
 137 442 53 477 46 478 c 1
 70 512 159 599 328 599 c 0
 503 599 561 505 561 411 c 2
 561 244 l 1
 578 244 650 216 676 159 c 1
 676 595 l 1
 794 595 l 1
 794 72 l 2
 794 8 744 -3 720 -3 c 0
 658 -3 672 52 619 126 c 0
 593 166 564 173 561 175 c 1x7ba0
 563 173 572 149 572 116 c 0
 572 67 550 -5 464 -5 c 0xb360
 409 -5 357 43 357 116 c 0
464 69 m 0xb360
 490 69 502 94 502 119 c 0
 502 143 490 166 466 166 c 0
 441 166 427 140 427 115 c 0
 427 91 439 69 464 69 c 0xb360
EndSplineSet
Fore
SplineSet
226 63 m 0xc720
 250 63 261 83 261 102 c 0
 261 122 250 142 226 142 c 0
 204 142 192 122 192 102 c 0
 192 83 204 63 226 63 c 0xc720
357 116 m 0
 357 227 443 236 443 236 c 1
 443 412 l 2
 443 489 411 524 322 524 c 0
 248 524 207 486 207 486 c 1
 259 458 292 425 312 405 c 1
 292 395 224 364 224 279 c 2
 224 210 l 1
 244 210 331 205 331 105 c 0
 331 28 269 -5 224 -5 c 0xeba0
 152 -5 106 43 106 127 c 2xe720
 106 279 l 2
 106 371 165 392 179 400 c 1
 137 445 53 480 46 481 c 1
 70 515 159 602 328 602 c 0xeb20
 503 602 561 508 561 414 c 2
 561 244 l 1
 578 244 650 214 676 157 c 1
 676 595 l 1
 794 595 l 1
 794 70 l 2
 794 6 744 -5 720 -5 c 0
 658 -5 672 52 619 126 c 0
 591 165 564 173 561 175 c 1xdba0
 563 173 572 149 572 116 c 0xd360
 572 67 550 -5 464 -5 c 0
 409 -5 357 43 357 116 c 0
464 63 m 0
 490 63 502 91 502 116 c 0xc360
 502 140 490 166 466 166 c 0
 441 166 427 141 427 116 c 0
 427 92 439 63 464 63 c 0
EndSplineSet
Validated: 1
Layer: 2
SplineSet
226 63 m 0,0,1
 243 63 243 63 252 74.5 c 128,-1,2
 261 86 261 86 261 102 c 256,3,4
 261 118 261 118 252 130 c 128,-1,5
 243 142 243 142 226 142 c 0,6,7
 210 142 210 142 201 130 c 128,-1,8
 192 118 192 118 192 102 c 0,9,10
 192 87 192 87 201 75 c 128,-1,11
 210 63 210 63 226 63 c 0,0,1
357 116 m 0,12,13
 357 147 357 147 366 171 c 128,-1,14
 375 195 375 195 387.5 206.5 c 128,-1,15
 400 218 400 218 412.5 225.5 c 128,-1,16
 425 233 425 233 434 234.5 c 2,17,-1
 443 236 l 1,18,-1
 443 412 l 2,19,20
 443 471 443 471 415.5 497.5 c 128,-1,21
 388 524 388 524 322 524 c 0,22,23
 289 524 289 524 260.5 514.5 c 128,-1,24
 232 505 232 505 219.5 495.5 c 2,25,-1
 207 486 l 1,26,27
 259 458 259 458 312 405 c 1,28,29
 224 361 224 361 224 279 c 2,30,-1
 224 210 l 1,31,32
 233 210 233 210 243 209 c 128,-1,33
 253 208 253 208 270 202 c 128,-1,34
 287 196 287 196 299.5 185.5 c 128,-1,35
 312 175 312 175 321.5 154 c 128,-1,36
 331 133 331 133 331 105 c 0,37,38
 331 52 331 52 297.5 23.5 c 128,-1,39
 264 -5 264 -5 224 -5 c 0,40,41
 169 -5 169 -5 137.5 30 c 128,-1,42
 106 65 106 65 106 127 c 2,43,-1
 106 279 l 2,44,45
 106 296 106 296 108.5 310.5 c 128,-1,46
 111 325 111 325 115 335.5 c 128,-1,47
 119 346 119 346 125.5 355.5 c 128,-1,48
 132 365 132 365 137 371 c 128,-1,49
 142 377 142 377 149.5 382.5 c 128,-1,50
 157 388 157 388 161.5 390.5 c 128,-1,51
 166 393 166 393 172 396.5 c 128,-1,52
 178 400 178 400 179 400 c 1,53,54
 160 420 160 420 128 440 c 128,-1,55
 96 460 96 460 73.5 470 c 128,-1,56
 51 480 51 480 46 481 c 1,57,58
 57 497 57 497 77.5 515 c 128,-1,59
 98 533 98 533 131.5 554 c 128,-1,60
 165 575 165 575 217 588.5 c 128,-1,61
 269 602 269 602 328 602 c 0,62,63
 450 602 450 602 505.5 548 c 128,-1,64
 561 494 561 494 561 414 c 2,65,-1
 561 244 l 1,66,67
 580 244 580 244 619.5 219 c 128,-1,68
 659 194 659 194 676 157 c 1,69,-1
 676 595 l 1,70,-1
 794 595 l 1,71,-1
 794 70 l 2,72,73
 794 28 794 28 770.5 11.5 c 128,-1,74
 747 -5 747 -5 720 -5 c 0,75,76
 692 -5 692 -5 680 10 c 128,-1,77
 668 25 668 25 653 62 c 128,-1,78
 638 99 638 99 619 126 c 0,79,80
 611 137 611 137 602.5 146 c 128,-1,81
 594 155 594 155 587 160 c 128,-1,82
 580 165 580 165 574.5 168 c 128,-1,83
 569 171 569 171 565 173 c 2,84,-1
 561 175 l 2,85,86
 562 174 562 174 564.5 166.5 c 128,-1,87
 567 159 567 159 569.5 145 c 128,-1,88
 572 131 572 131 572 116 c 0,89,90
 572 69 572 69 547 32 c 128,-1,91
 522 -5 522 -5 464 -5 c 0,92,93
 421 -5 421 -5 389 29 c 128,-1,94
 357 63 357 63 357 116 c 0,12,13
464 63 m 0,95,96
 482 63 482 63 492 79 c 128,-1,97
 502 95 502 95 502 116 c 0,98,99
 502 136 502 136 492.5 151 c 128,-1,100
 483 166 483 166 466 166 c 0,101,102
 448 166 448 166 437.5 151 c 128,-1,103
 427 136 427 136 427 116 c 256,104,105
 427 96 427 96 437 79.5 c 128,-1,106
 447 63 447 63 464 63 c 0,95,96
EndSplineSet
EndChar

